G04 #@! TF.GenerationSoftware,KiCad,Pcbnew,(5.1.5-0-10_14)*
G04 #@! TF.CreationDate,2021-09-26T22:00:01-06:00*
G04 #@! TF.ProjectId,2021DC435,32303231-4443-4343-9335-2e6b69636164,rev?*
G04 #@! TF.SameCoordinates,Original*
G04 #@! TF.FileFunction,Paste,Bot*
G04 #@! TF.FilePolarity,Positive*
%FSLAX46Y46*%
G04 Gerber Fmt 4.6, Leading zero omitted, Abs format (unit mm)*
G04 Created by KiCad (PCBNEW (5.1.5-0-10_14)) date 2021-09-26 22:00:01*
%MOMM*%
%LPD*%
G04 APERTURE LIST*
%ADD10C,0.100000*%
G04 APERTURE END LIST*
D10*
G36*
X131080164Y-81092004D02*
G01*
X131104433Y-81095604D01*
X131128231Y-81101565D01*
X131151331Y-81109830D01*
X131173509Y-81120320D01*
X131194553Y-81132933D01*
X131214258Y-81147547D01*
X131232437Y-81164023D01*
X131248913Y-81182202D01*
X131263527Y-81201907D01*
X131276140Y-81222951D01*
X131286630Y-81245129D01*
X131294895Y-81268229D01*
X131300856Y-81292027D01*
X131304456Y-81316296D01*
X131305660Y-81340800D01*
X131305660Y-82590800D01*
X131304456Y-82615304D01*
X131300856Y-82639573D01*
X131294895Y-82663371D01*
X131286630Y-82686471D01*
X131276140Y-82708649D01*
X131263527Y-82729693D01*
X131248913Y-82749398D01*
X131232437Y-82767577D01*
X131214258Y-82784053D01*
X131194553Y-82798667D01*
X131173509Y-82811280D01*
X131151331Y-82821770D01*
X131128231Y-82830035D01*
X131104433Y-82835996D01*
X131080164Y-82839596D01*
X131055660Y-82840800D01*
X130255660Y-82840800D01*
X130231156Y-82839596D01*
X130206887Y-82835996D01*
X130183089Y-82830035D01*
X130159989Y-82821770D01*
X130137811Y-82811280D01*
X130116767Y-82798667D01*
X130097062Y-82784053D01*
X130078883Y-82767577D01*
X130062407Y-82749398D01*
X130047793Y-82729693D01*
X130035180Y-82708649D01*
X130024690Y-82686471D01*
X130016425Y-82663371D01*
X130010464Y-82639573D01*
X130006864Y-82615304D01*
X130005660Y-82590800D01*
X130005660Y-81340800D01*
X130006864Y-81316296D01*
X130010464Y-81292027D01*
X130016425Y-81268229D01*
X130024690Y-81245129D01*
X130035180Y-81222951D01*
X130047793Y-81201907D01*
X130062407Y-81182202D01*
X130078883Y-81164023D01*
X130097062Y-81147547D01*
X130116767Y-81132933D01*
X130137811Y-81120320D01*
X130159989Y-81109830D01*
X130183089Y-81101565D01*
X130206887Y-81095604D01*
X130231156Y-81092004D01*
X130255660Y-81090800D01*
X131055660Y-81090800D01*
X131080164Y-81092004D01*
G37*
G36*
X127980164Y-81092004D02*
G01*
X128004433Y-81095604D01*
X128028231Y-81101565D01*
X128051331Y-81109830D01*
X128073509Y-81120320D01*
X128094553Y-81132933D01*
X128114258Y-81147547D01*
X128132437Y-81164023D01*
X128148913Y-81182202D01*
X128163527Y-81201907D01*
X128176140Y-81222951D01*
X128186630Y-81245129D01*
X128194895Y-81268229D01*
X128200856Y-81292027D01*
X128204456Y-81316296D01*
X128205660Y-81340800D01*
X128205660Y-82590800D01*
X128204456Y-82615304D01*
X128200856Y-82639573D01*
X128194895Y-82663371D01*
X128186630Y-82686471D01*
X128176140Y-82708649D01*
X128163527Y-82729693D01*
X128148913Y-82749398D01*
X128132437Y-82767577D01*
X128114258Y-82784053D01*
X128094553Y-82798667D01*
X128073509Y-82811280D01*
X128051331Y-82821770D01*
X128028231Y-82830035D01*
X128004433Y-82835996D01*
X127980164Y-82839596D01*
X127955660Y-82840800D01*
X127155660Y-82840800D01*
X127131156Y-82839596D01*
X127106887Y-82835996D01*
X127083089Y-82830035D01*
X127059989Y-82821770D01*
X127037811Y-82811280D01*
X127016767Y-82798667D01*
X126997062Y-82784053D01*
X126978883Y-82767577D01*
X126962407Y-82749398D01*
X126947793Y-82729693D01*
X126935180Y-82708649D01*
X126924690Y-82686471D01*
X126916425Y-82663371D01*
X126910464Y-82639573D01*
X126906864Y-82615304D01*
X126905660Y-82590800D01*
X126905660Y-81340800D01*
X126906864Y-81316296D01*
X126910464Y-81292027D01*
X126916425Y-81268229D01*
X126924690Y-81245129D01*
X126935180Y-81222951D01*
X126947793Y-81201907D01*
X126962407Y-81182202D01*
X126978883Y-81164023D01*
X126997062Y-81147547D01*
X127016767Y-81132933D01*
X127037811Y-81120320D01*
X127059989Y-81109830D01*
X127083089Y-81101565D01*
X127106887Y-81095604D01*
X127131156Y-81092004D01*
X127155660Y-81090800D01*
X127955660Y-81090800D01*
X127980164Y-81092004D01*
G37*
G36*
X140483244Y-95117884D02*
G01*
X140507513Y-95121484D01*
X140531311Y-95127445D01*
X140554411Y-95135710D01*
X140576589Y-95146200D01*
X140597633Y-95158813D01*
X140617338Y-95173427D01*
X140635517Y-95189903D01*
X140651993Y-95208082D01*
X140666607Y-95227787D01*
X140679220Y-95248831D01*
X140689710Y-95271009D01*
X140697975Y-95294109D01*
X140703936Y-95317907D01*
X140707536Y-95342176D01*
X140708740Y-95366680D01*
X140708740Y-96616680D01*
X140707536Y-96641184D01*
X140703936Y-96665453D01*
X140697975Y-96689251D01*
X140689710Y-96712351D01*
X140679220Y-96734529D01*
X140666607Y-96755573D01*
X140651993Y-96775278D01*
X140635517Y-96793457D01*
X140617338Y-96809933D01*
X140597633Y-96824547D01*
X140576589Y-96837160D01*
X140554411Y-96847650D01*
X140531311Y-96855915D01*
X140507513Y-96861876D01*
X140483244Y-96865476D01*
X140458740Y-96866680D01*
X139658740Y-96866680D01*
X139634236Y-96865476D01*
X139609967Y-96861876D01*
X139586169Y-96855915D01*
X139563069Y-96847650D01*
X139540891Y-96837160D01*
X139519847Y-96824547D01*
X139500142Y-96809933D01*
X139481963Y-96793457D01*
X139465487Y-96775278D01*
X139450873Y-96755573D01*
X139438260Y-96734529D01*
X139427770Y-96712351D01*
X139419505Y-96689251D01*
X139413544Y-96665453D01*
X139409944Y-96641184D01*
X139408740Y-96616680D01*
X139408740Y-95366680D01*
X139409944Y-95342176D01*
X139413544Y-95317907D01*
X139419505Y-95294109D01*
X139427770Y-95271009D01*
X139438260Y-95248831D01*
X139450873Y-95227787D01*
X139465487Y-95208082D01*
X139481963Y-95189903D01*
X139500142Y-95173427D01*
X139519847Y-95158813D01*
X139540891Y-95146200D01*
X139563069Y-95135710D01*
X139586169Y-95127445D01*
X139609967Y-95121484D01*
X139634236Y-95117884D01*
X139658740Y-95116680D01*
X140458740Y-95116680D01*
X140483244Y-95117884D01*
G37*
G36*
X137383244Y-95117884D02*
G01*
X137407513Y-95121484D01*
X137431311Y-95127445D01*
X137454411Y-95135710D01*
X137476589Y-95146200D01*
X137497633Y-95158813D01*
X137517338Y-95173427D01*
X137535517Y-95189903D01*
X137551993Y-95208082D01*
X137566607Y-95227787D01*
X137579220Y-95248831D01*
X137589710Y-95271009D01*
X137597975Y-95294109D01*
X137603936Y-95317907D01*
X137607536Y-95342176D01*
X137608740Y-95366680D01*
X137608740Y-96616680D01*
X137607536Y-96641184D01*
X137603936Y-96665453D01*
X137597975Y-96689251D01*
X137589710Y-96712351D01*
X137579220Y-96734529D01*
X137566607Y-96755573D01*
X137551993Y-96775278D01*
X137535517Y-96793457D01*
X137517338Y-96809933D01*
X137497633Y-96824547D01*
X137476589Y-96837160D01*
X137454411Y-96847650D01*
X137431311Y-96855915D01*
X137407513Y-96861876D01*
X137383244Y-96865476D01*
X137358740Y-96866680D01*
X136558740Y-96866680D01*
X136534236Y-96865476D01*
X136509967Y-96861876D01*
X136486169Y-96855915D01*
X136463069Y-96847650D01*
X136440891Y-96837160D01*
X136419847Y-96824547D01*
X136400142Y-96809933D01*
X136381963Y-96793457D01*
X136365487Y-96775278D01*
X136350873Y-96755573D01*
X136338260Y-96734529D01*
X136327770Y-96712351D01*
X136319505Y-96689251D01*
X136313544Y-96665453D01*
X136309944Y-96641184D01*
X136308740Y-96616680D01*
X136308740Y-95366680D01*
X136309944Y-95342176D01*
X136313544Y-95317907D01*
X136319505Y-95294109D01*
X136327770Y-95271009D01*
X136338260Y-95248831D01*
X136350873Y-95227787D01*
X136365487Y-95208082D01*
X136381963Y-95189903D01*
X136400142Y-95173427D01*
X136419847Y-95158813D01*
X136440891Y-95146200D01*
X136463069Y-95135710D01*
X136486169Y-95127445D01*
X136509967Y-95121484D01*
X136534236Y-95117884D01*
X136558740Y-95116680D01*
X137358740Y-95116680D01*
X137383244Y-95117884D01*
G37*
G36*
X123434764Y-81173284D02*
G01*
X123459033Y-81176884D01*
X123482831Y-81182845D01*
X123505931Y-81191110D01*
X123528109Y-81201600D01*
X123549153Y-81214213D01*
X123568858Y-81228827D01*
X123587037Y-81245303D01*
X123603513Y-81263482D01*
X123618127Y-81283187D01*
X123630740Y-81304231D01*
X123641230Y-81326409D01*
X123649495Y-81349509D01*
X123655456Y-81373307D01*
X123659056Y-81397576D01*
X123660260Y-81422080D01*
X123660260Y-82672080D01*
X123659056Y-82696584D01*
X123655456Y-82720853D01*
X123649495Y-82744651D01*
X123641230Y-82767751D01*
X123630740Y-82789929D01*
X123618127Y-82810973D01*
X123603513Y-82830678D01*
X123587037Y-82848857D01*
X123568858Y-82865333D01*
X123549153Y-82879947D01*
X123528109Y-82892560D01*
X123505931Y-82903050D01*
X123482831Y-82911315D01*
X123459033Y-82917276D01*
X123434764Y-82920876D01*
X123410260Y-82922080D01*
X122610260Y-82922080D01*
X122585756Y-82920876D01*
X122561487Y-82917276D01*
X122537689Y-82911315D01*
X122514589Y-82903050D01*
X122492411Y-82892560D01*
X122471367Y-82879947D01*
X122451662Y-82865333D01*
X122433483Y-82848857D01*
X122417007Y-82830678D01*
X122402393Y-82810973D01*
X122389780Y-82789929D01*
X122379290Y-82767751D01*
X122371025Y-82744651D01*
X122365064Y-82720853D01*
X122361464Y-82696584D01*
X122360260Y-82672080D01*
X122360260Y-81422080D01*
X122361464Y-81397576D01*
X122365064Y-81373307D01*
X122371025Y-81349509D01*
X122379290Y-81326409D01*
X122389780Y-81304231D01*
X122402393Y-81283187D01*
X122417007Y-81263482D01*
X122433483Y-81245303D01*
X122451662Y-81228827D01*
X122471367Y-81214213D01*
X122492411Y-81201600D01*
X122514589Y-81191110D01*
X122537689Y-81182845D01*
X122561487Y-81176884D01*
X122585756Y-81173284D01*
X122610260Y-81172080D01*
X123410260Y-81172080D01*
X123434764Y-81173284D01*
G37*
G36*
X120334764Y-81173284D02*
G01*
X120359033Y-81176884D01*
X120382831Y-81182845D01*
X120405931Y-81191110D01*
X120428109Y-81201600D01*
X120449153Y-81214213D01*
X120468858Y-81228827D01*
X120487037Y-81245303D01*
X120503513Y-81263482D01*
X120518127Y-81283187D01*
X120530740Y-81304231D01*
X120541230Y-81326409D01*
X120549495Y-81349509D01*
X120555456Y-81373307D01*
X120559056Y-81397576D01*
X120560260Y-81422080D01*
X120560260Y-82672080D01*
X120559056Y-82696584D01*
X120555456Y-82720853D01*
X120549495Y-82744651D01*
X120541230Y-82767751D01*
X120530740Y-82789929D01*
X120518127Y-82810973D01*
X120503513Y-82830678D01*
X120487037Y-82848857D01*
X120468858Y-82865333D01*
X120449153Y-82879947D01*
X120428109Y-82892560D01*
X120405931Y-82903050D01*
X120382831Y-82911315D01*
X120359033Y-82917276D01*
X120334764Y-82920876D01*
X120310260Y-82922080D01*
X119510260Y-82922080D01*
X119485756Y-82920876D01*
X119461487Y-82917276D01*
X119437689Y-82911315D01*
X119414589Y-82903050D01*
X119392411Y-82892560D01*
X119371367Y-82879947D01*
X119351662Y-82865333D01*
X119333483Y-82848857D01*
X119317007Y-82830678D01*
X119302393Y-82810973D01*
X119289780Y-82789929D01*
X119279290Y-82767751D01*
X119271025Y-82744651D01*
X119265064Y-82720853D01*
X119261464Y-82696584D01*
X119260260Y-82672080D01*
X119260260Y-81422080D01*
X119261464Y-81397576D01*
X119265064Y-81373307D01*
X119271025Y-81349509D01*
X119279290Y-81326409D01*
X119289780Y-81304231D01*
X119302393Y-81283187D01*
X119317007Y-81263482D01*
X119333483Y-81245303D01*
X119351662Y-81228827D01*
X119371367Y-81214213D01*
X119392411Y-81201600D01*
X119414589Y-81191110D01*
X119437689Y-81182845D01*
X119461487Y-81176884D01*
X119485756Y-81173284D01*
X119510260Y-81172080D01*
X120310260Y-81172080D01*
X120334764Y-81173284D01*
G37*
G36*
X117300664Y-95117884D02*
G01*
X117324933Y-95121484D01*
X117348731Y-95127445D01*
X117371831Y-95135710D01*
X117394009Y-95146200D01*
X117415053Y-95158813D01*
X117434758Y-95173427D01*
X117452937Y-95189903D01*
X117469413Y-95208082D01*
X117484027Y-95227787D01*
X117496640Y-95248831D01*
X117507130Y-95271009D01*
X117515395Y-95294109D01*
X117521356Y-95317907D01*
X117524956Y-95342176D01*
X117526160Y-95366680D01*
X117526160Y-96616680D01*
X117524956Y-96641184D01*
X117521356Y-96665453D01*
X117515395Y-96689251D01*
X117507130Y-96712351D01*
X117496640Y-96734529D01*
X117484027Y-96755573D01*
X117469413Y-96775278D01*
X117452937Y-96793457D01*
X117434758Y-96809933D01*
X117415053Y-96824547D01*
X117394009Y-96837160D01*
X117371831Y-96847650D01*
X117348731Y-96855915D01*
X117324933Y-96861876D01*
X117300664Y-96865476D01*
X117276160Y-96866680D01*
X116476160Y-96866680D01*
X116451656Y-96865476D01*
X116427387Y-96861876D01*
X116403589Y-96855915D01*
X116380489Y-96847650D01*
X116358311Y-96837160D01*
X116337267Y-96824547D01*
X116317562Y-96809933D01*
X116299383Y-96793457D01*
X116282907Y-96775278D01*
X116268293Y-96755573D01*
X116255680Y-96734529D01*
X116245190Y-96712351D01*
X116236925Y-96689251D01*
X116230964Y-96665453D01*
X116227364Y-96641184D01*
X116226160Y-96616680D01*
X116226160Y-95366680D01*
X116227364Y-95342176D01*
X116230964Y-95317907D01*
X116236925Y-95294109D01*
X116245190Y-95271009D01*
X116255680Y-95248831D01*
X116268293Y-95227787D01*
X116282907Y-95208082D01*
X116299383Y-95189903D01*
X116317562Y-95173427D01*
X116337267Y-95158813D01*
X116358311Y-95146200D01*
X116380489Y-95135710D01*
X116403589Y-95127445D01*
X116427387Y-95121484D01*
X116451656Y-95117884D01*
X116476160Y-95116680D01*
X117276160Y-95116680D01*
X117300664Y-95117884D01*
G37*
G36*
X114200664Y-95117884D02*
G01*
X114224933Y-95121484D01*
X114248731Y-95127445D01*
X114271831Y-95135710D01*
X114294009Y-95146200D01*
X114315053Y-95158813D01*
X114334758Y-95173427D01*
X114352937Y-95189903D01*
X114369413Y-95208082D01*
X114384027Y-95227787D01*
X114396640Y-95248831D01*
X114407130Y-95271009D01*
X114415395Y-95294109D01*
X114421356Y-95317907D01*
X114424956Y-95342176D01*
X114426160Y-95366680D01*
X114426160Y-96616680D01*
X114424956Y-96641184D01*
X114421356Y-96665453D01*
X114415395Y-96689251D01*
X114407130Y-96712351D01*
X114396640Y-96734529D01*
X114384027Y-96755573D01*
X114369413Y-96775278D01*
X114352937Y-96793457D01*
X114334758Y-96809933D01*
X114315053Y-96824547D01*
X114294009Y-96837160D01*
X114271831Y-96847650D01*
X114248731Y-96855915D01*
X114224933Y-96861876D01*
X114200664Y-96865476D01*
X114176160Y-96866680D01*
X113376160Y-96866680D01*
X113351656Y-96865476D01*
X113327387Y-96861876D01*
X113303589Y-96855915D01*
X113280489Y-96847650D01*
X113258311Y-96837160D01*
X113237267Y-96824547D01*
X113217562Y-96809933D01*
X113199383Y-96793457D01*
X113182907Y-96775278D01*
X113168293Y-96755573D01*
X113155680Y-96734529D01*
X113145190Y-96712351D01*
X113136925Y-96689251D01*
X113130964Y-96665453D01*
X113127364Y-96641184D01*
X113126160Y-96616680D01*
X113126160Y-95366680D01*
X113127364Y-95342176D01*
X113130964Y-95317907D01*
X113136925Y-95294109D01*
X113145190Y-95271009D01*
X113155680Y-95248831D01*
X113168293Y-95227787D01*
X113182907Y-95208082D01*
X113199383Y-95189903D01*
X113217562Y-95173427D01*
X113237267Y-95158813D01*
X113258311Y-95146200D01*
X113280489Y-95135710D01*
X113303589Y-95127445D01*
X113327387Y-95121484D01*
X113351656Y-95117884D01*
X113376160Y-95116680D01*
X114176160Y-95116680D01*
X114200664Y-95117884D01*
G37*
G36*
X146846824Y-89211384D02*
G01*
X146871093Y-89214984D01*
X146894891Y-89220945D01*
X146917991Y-89229210D01*
X146940169Y-89239700D01*
X146961213Y-89252313D01*
X146980918Y-89266927D01*
X146999097Y-89283403D01*
X147015573Y-89301582D01*
X147030187Y-89321287D01*
X147042800Y-89342331D01*
X147053290Y-89364509D01*
X147061555Y-89387609D01*
X147067516Y-89411407D01*
X147071116Y-89435676D01*
X147072320Y-89460180D01*
X147072320Y-90385180D01*
X147071116Y-90409684D01*
X147067516Y-90433953D01*
X147061555Y-90457751D01*
X147053290Y-90480851D01*
X147042800Y-90503029D01*
X147030187Y-90524073D01*
X147015573Y-90543778D01*
X146999097Y-90561957D01*
X146980918Y-90578433D01*
X146961213Y-90593047D01*
X146940169Y-90605660D01*
X146917991Y-90616150D01*
X146894891Y-90624415D01*
X146871093Y-90630376D01*
X146846824Y-90633976D01*
X146822320Y-90635180D01*
X145572320Y-90635180D01*
X145547816Y-90633976D01*
X145523547Y-90630376D01*
X145499749Y-90624415D01*
X145476649Y-90616150D01*
X145454471Y-90605660D01*
X145433427Y-90593047D01*
X145413722Y-90578433D01*
X145395543Y-90561957D01*
X145379067Y-90543778D01*
X145364453Y-90524073D01*
X145351840Y-90503029D01*
X145341350Y-90480851D01*
X145333085Y-90457751D01*
X145327124Y-90433953D01*
X145323524Y-90409684D01*
X145322320Y-90385180D01*
X145322320Y-89460180D01*
X145323524Y-89435676D01*
X145327124Y-89411407D01*
X145333085Y-89387609D01*
X145341350Y-89364509D01*
X145351840Y-89342331D01*
X145364453Y-89321287D01*
X145379067Y-89301582D01*
X145395543Y-89283403D01*
X145413722Y-89266927D01*
X145433427Y-89252313D01*
X145454471Y-89239700D01*
X145476649Y-89229210D01*
X145499749Y-89220945D01*
X145523547Y-89214984D01*
X145547816Y-89211384D01*
X145572320Y-89210180D01*
X146822320Y-89210180D01*
X146846824Y-89211384D01*
G37*
G36*
X146846824Y-86236384D02*
G01*
X146871093Y-86239984D01*
X146894891Y-86245945D01*
X146917991Y-86254210D01*
X146940169Y-86264700D01*
X146961213Y-86277313D01*
X146980918Y-86291927D01*
X146999097Y-86308403D01*
X147015573Y-86326582D01*
X147030187Y-86346287D01*
X147042800Y-86367331D01*
X147053290Y-86389509D01*
X147061555Y-86412609D01*
X147067516Y-86436407D01*
X147071116Y-86460676D01*
X147072320Y-86485180D01*
X147072320Y-87410180D01*
X147071116Y-87434684D01*
X147067516Y-87458953D01*
X147061555Y-87482751D01*
X147053290Y-87505851D01*
X147042800Y-87528029D01*
X147030187Y-87549073D01*
X147015573Y-87568778D01*
X146999097Y-87586957D01*
X146980918Y-87603433D01*
X146961213Y-87618047D01*
X146940169Y-87630660D01*
X146917991Y-87641150D01*
X146894891Y-87649415D01*
X146871093Y-87655376D01*
X146846824Y-87658976D01*
X146822320Y-87660180D01*
X145572320Y-87660180D01*
X145547816Y-87658976D01*
X145523547Y-87655376D01*
X145499749Y-87649415D01*
X145476649Y-87641150D01*
X145454471Y-87630660D01*
X145433427Y-87618047D01*
X145413722Y-87603433D01*
X145395543Y-87586957D01*
X145379067Y-87568778D01*
X145364453Y-87549073D01*
X145351840Y-87528029D01*
X145341350Y-87505851D01*
X145333085Y-87482751D01*
X145327124Y-87458953D01*
X145323524Y-87434684D01*
X145322320Y-87410180D01*
X145322320Y-86485180D01*
X145323524Y-86460676D01*
X145327124Y-86436407D01*
X145333085Y-86412609D01*
X145341350Y-86389509D01*
X145351840Y-86367331D01*
X145364453Y-86346287D01*
X145379067Y-86326582D01*
X145395543Y-86308403D01*
X145413722Y-86291927D01*
X145433427Y-86277313D01*
X145454471Y-86264700D01*
X145476649Y-86254210D01*
X145499749Y-86245945D01*
X145523547Y-86239984D01*
X145547816Y-86236384D01*
X145572320Y-86235180D01*
X146822320Y-86235180D01*
X146846824Y-86236384D01*
G37*
G36*
X133981724Y-89386644D02*
G01*
X134005993Y-89390244D01*
X134029791Y-89396205D01*
X134052891Y-89404470D01*
X134075069Y-89414960D01*
X134096113Y-89427573D01*
X134115818Y-89442187D01*
X134133997Y-89458663D01*
X134150473Y-89476842D01*
X134165087Y-89496547D01*
X134177700Y-89517591D01*
X134188190Y-89539769D01*
X134196455Y-89562869D01*
X134202416Y-89586667D01*
X134206016Y-89610936D01*
X134207220Y-89635440D01*
X134207220Y-90560440D01*
X134206016Y-90584944D01*
X134202416Y-90609213D01*
X134196455Y-90633011D01*
X134188190Y-90656111D01*
X134177700Y-90678289D01*
X134165087Y-90699333D01*
X134150473Y-90719038D01*
X134133997Y-90737217D01*
X134115818Y-90753693D01*
X134096113Y-90768307D01*
X134075069Y-90780920D01*
X134052891Y-90791410D01*
X134029791Y-90799675D01*
X134005993Y-90805636D01*
X133981724Y-90809236D01*
X133957220Y-90810440D01*
X132707220Y-90810440D01*
X132682716Y-90809236D01*
X132658447Y-90805636D01*
X132634649Y-90799675D01*
X132611549Y-90791410D01*
X132589371Y-90780920D01*
X132568327Y-90768307D01*
X132548622Y-90753693D01*
X132530443Y-90737217D01*
X132513967Y-90719038D01*
X132499353Y-90699333D01*
X132486740Y-90678289D01*
X132476250Y-90656111D01*
X132467985Y-90633011D01*
X132462024Y-90609213D01*
X132458424Y-90584944D01*
X132457220Y-90560440D01*
X132457220Y-89635440D01*
X132458424Y-89610936D01*
X132462024Y-89586667D01*
X132467985Y-89562869D01*
X132476250Y-89539769D01*
X132486740Y-89517591D01*
X132499353Y-89496547D01*
X132513967Y-89476842D01*
X132530443Y-89458663D01*
X132548622Y-89442187D01*
X132568327Y-89427573D01*
X132589371Y-89414960D01*
X132611549Y-89404470D01*
X132634649Y-89396205D01*
X132658447Y-89390244D01*
X132682716Y-89386644D01*
X132707220Y-89385440D01*
X133957220Y-89385440D01*
X133981724Y-89386644D01*
G37*
G36*
X133981724Y-86411644D02*
G01*
X134005993Y-86415244D01*
X134029791Y-86421205D01*
X134052891Y-86429470D01*
X134075069Y-86439960D01*
X134096113Y-86452573D01*
X134115818Y-86467187D01*
X134133997Y-86483663D01*
X134150473Y-86501842D01*
X134165087Y-86521547D01*
X134177700Y-86542591D01*
X134188190Y-86564769D01*
X134196455Y-86587869D01*
X134202416Y-86611667D01*
X134206016Y-86635936D01*
X134207220Y-86660440D01*
X134207220Y-87585440D01*
X134206016Y-87609944D01*
X134202416Y-87634213D01*
X134196455Y-87658011D01*
X134188190Y-87681111D01*
X134177700Y-87703289D01*
X134165087Y-87724333D01*
X134150473Y-87744038D01*
X134133997Y-87762217D01*
X134115818Y-87778693D01*
X134096113Y-87793307D01*
X134075069Y-87805920D01*
X134052891Y-87816410D01*
X134029791Y-87824675D01*
X134005993Y-87830636D01*
X133981724Y-87834236D01*
X133957220Y-87835440D01*
X132707220Y-87835440D01*
X132682716Y-87834236D01*
X132658447Y-87830636D01*
X132634649Y-87824675D01*
X132611549Y-87816410D01*
X132589371Y-87805920D01*
X132568327Y-87793307D01*
X132548622Y-87778693D01*
X132530443Y-87762217D01*
X132513967Y-87744038D01*
X132499353Y-87724333D01*
X132486740Y-87703289D01*
X132476250Y-87681111D01*
X132467985Y-87658011D01*
X132462024Y-87634213D01*
X132458424Y-87609944D01*
X132457220Y-87585440D01*
X132457220Y-86660440D01*
X132458424Y-86635936D01*
X132462024Y-86611667D01*
X132467985Y-86587869D01*
X132476250Y-86564769D01*
X132486740Y-86542591D01*
X132499353Y-86521547D01*
X132513967Y-86501842D01*
X132530443Y-86483663D01*
X132548622Y-86467187D01*
X132568327Y-86452573D01*
X132589371Y-86439960D01*
X132611549Y-86429470D01*
X132634649Y-86421205D01*
X132658447Y-86415244D01*
X132682716Y-86411644D01*
X132707220Y-86410440D01*
X133957220Y-86410440D01*
X133981724Y-86411644D01*
G37*
G36*
X117293924Y-89236784D02*
G01*
X117318193Y-89240384D01*
X117341991Y-89246345D01*
X117365091Y-89254610D01*
X117387269Y-89265100D01*
X117408313Y-89277713D01*
X117428018Y-89292327D01*
X117446197Y-89308803D01*
X117462673Y-89326982D01*
X117477287Y-89346687D01*
X117489900Y-89367731D01*
X117500390Y-89389909D01*
X117508655Y-89413009D01*
X117514616Y-89436807D01*
X117518216Y-89461076D01*
X117519420Y-89485580D01*
X117519420Y-90410580D01*
X117518216Y-90435084D01*
X117514616Y-90459353D01*
X117508655Y-90483151D01*
X117500390Y-90506251D01*
X117489900Y-90528429D01*
X117477287Y-90549473D01*
X117462673Y-90569178D01*
X117446197Y-90587357D01*
X117428018Y-90603833D01*
X117408313Y-90618447D01*
X117387269Y-90631060D01*
X117365091Y-90641550D01*
X117341991Y-90649815D01*
X117318193Y-90655776D01*
X117293924Y-90659376D01*
X117269420Y-90660580D01*
X116019420Y-90660580D01*
X115994916Y-90659376D01*
X115970647Y-90655776D01*
X115946849Y-90649815D01*
X115923749Y-90641550D01*
X115901571Y-90631060D01*
X115880527Y-90618447D01*
X115860822Y-90603833D01*
X115842643Y-90587357D01*
X115826167Y-90569178D01*
X115811553Y-90549473D01*
X115798940Y-90528429D01*
X115788450Y-90506251D01*
X115780185Y-90483151D01*
X115774224Y-90459353D01*
X115770624Y-90435084D01*
X115769420Y-90410580D01*
X115769420Y-89485580D01*
X115770624Y-89461076D01*
X115774224Y-89436807D01*
X115780185Y-89413009D01*
X115788450Y-89389909D01*
X115798940Y-89367731D01*
X115811553Y-89346687D01*
X115826167Y-89326982D01*
X115842643Y-89308803D01*
X115860822Y-89292327D01*
X115880527Y-89277713D01*
X115901571Y-89265100D01*
X115923749Y-89254610D01*
X115946849Y-89246345D01*
X115970647Y-89240384D01*
X115994916Y-89236784D01*
X116019420Y-89235580D01*
X117269420Y-89235580D01*
X117293924Y-89236784D01*
G37*
G36*
X117293924Y-86261784D02*
G01*
X117318193Y-86265384D01*
X117341991Y-86271345D01*
X117365091Y-86279610D01*
X117387269Y-86290100D01*
X117408313Y-86302713D01*
X117428018Y-86317327D01*
X117446197Y-86333803D01*
X117462673Y-86351982D01*
X117477287Y-86371687D01*
X117489900Y-86392731D01*
X117500390Y-86414909D01*
X117508655Y-86438009D01*
X117514616Y-86461807D01*
X117518216Y-86486076D01*
X117519420Y-86510580D01*
X117519420Y-87435580D01*
X117518216Y-87460084D01*
X117514616Y-87484353D01*
X117508655Y-87508151D01*
X117500390Y-87531251D01*
X117489900Y-87553429D01*
X117477287Y-87574473D01*
X117462673Y-87594178D01*
X117446197Y-87612357D01*
X117428018Y-87628833D01*
X117408313Y-87643447D01*
X117387269Y-87656060D01*
X117365091Y-87666550D01*
X117341991Y-87674815D01*
X117318193Y-87680776D01*
X117293924Y-87684376D01*
X117269420Y-87685580D01*
X116019420Y-87685580D01*
X115994916Y-87684376D01*
X115970647Y-87680776D01*
X115946849Y-87674815D01*
X115923749Y-87666550D01*
X115901571Y-87656060D01*
X115880527Y-87643447D01*
X115860822Y-87628833D01*
X115842643Y-87612357D01*
X115826167Y-87594178D01*
X115811553Y-87574473D01*
X115798940Y-87553429D01*
X115788450Y-87531251D01*
X115780185Y-87508151D01*
X115774224Y-87484353D01*
X115770624Y-87460084D01*
X115769420Y-87435580D01*
X115769420Y-86510580D01*
X115770624Y-86486076D01*
X115774224Y-86461807D01*
X115780185Y-86438009D01*
X115788450Y-86414909D01*
X115798940Y-86392731D01*
X115811553Y-86371687D01*
X115826167Y-86351982D01*
X115842643Y-86333803D01*
X115860822Y-86317327D01*
X115880527Y-86302713D01*
X115901571Y-86290100D01*
X115923749Y-86279610D01*
X115946849Y-86271345D01*
X115970647Y-86265384D01*
X115994916Y-86261784D01*
X116019420Y-86260580D01*
X117269420Y-86260580D01*
X117293924Y-86261784D01*
G37*
G36*
X105312744Y-88998024D02*
G01*
X105337013Y-89001624D01*
X105360811Y-89007585D01*
X105383911Y-89015850D01*
X105406089Y-89026340D01*
X105427133Y-89038953D01*
X105446838Y-89053567D01*
X105465017Y-89070043D01*
X105481493Y-89088222D01*
X105496107Y-89107927D01*
X105508720Y-89128971D01*
X105519210Y-89151149D01*
X105527475Y-89174249D01*
X105533436Y-89198047D01*
X105537036Y-89222316D01*
X105538240Y-89246820D01*
X105538240Y-90171820D01*
X105537036Y-90196324D01*
X105533436Y-90220593D01*
X105527475Y-90244391D01*
X105519210Y-90267491D01*
X105508720Y-90289669D01*
X105496107Y-90310713D01*
X105481493Y-90330418D01*
X105465017Y-90348597D01*
X105446838Y-90365073D01*
X105427133Y-90379687D01*
X105406089Y-90392300D01*
X105383911Y-90402790D01*
X105360811Y-90411055D01*
X105337013Y-90417016D01*
X105312744Y-90420616D01*
X105288240Y-90421820D01*
X104038240Y-90421820D01*
X104013736Y-90420616D01*
X103989467Y-90417016D01*
X103965669Y-90411055D01*
X103942569Y-90402790D01*
X103920391Y-90392300D01*
X103899347Y-90379687D01*
X103879642Y-90365073D01*
X103861463Y-90348597D01*
X103844987Y-90330418D01*
X103830373Y-90310713D01*
X103817760Y-90289669D01*
X103807270Y-90267491D01*
X103799005Y-90244391D01*
X103793044Y-90220593D01*
X103789444Y-90196324D01*
X103788240Y-90171820D01*
X103788240Y-89246820D01*
X103789444Y-89222316D01*
X103793044Y-89198047D01*
X103799005Y-89174249D01*
X103807270Y-89151149D01*
X103817760Y-89128971D01*
X103830373Y-89107927D01*
X103844987Y-89088222D01*
X103861463Y-89070043D01*
X103879642Y-89053567D01*
X103899347Y-89038953D01*
X103920391Y-89026340D01*
X103942569Y-89015850D01*
X103965669Y-89007585D01*
X103989467Y-89001624D01*
X104013736Y-88998024D01*
X104038240Y-88996820D01*
X105288240Y-88996820D01*
X105312744Y-88998024D01*
G37*
G36*
X105312744Y-86023024D02*
G01*
X105337013Y-86026624D01*
X105360811Y-86032585D01*
X105383911Y-86040850D01*
X105406089Y-86051340D01*
X105427133Y-86063953D01*
X105446838Y-86078567D01*
X105465017Y-86095043D01*
X105481493Y-86113222D01*
X105496107Y-86132927D01*
X105508720Y-86153971D01*
X105519210Y-86176149D01*
X105527475Y-86199249D01*
X105533436Y-86223047D01*
X105537036Y-86247316D01*
X105538240Y-86271820D01*
X105538240Y-87196820D01*
X105537036Y-87221324D01*
X105533436Y-87245593D01*
X105527475Y-87269391D01*
X105519210Y-87292491D01*
X105508720Y-87314669D01*
X105496107Y-87335713D01*
X105481493Y-87355418D01*
X105465017Y-87373597D01*
X105446838Y-87390073D01*
X105427133Y-87404687D01*
X105406089Y-87417300D01*
X105383911Y-87427790D01*
X105360811Y-87436055D01*
X105337013Y-87442016D01*
X105312744Y-87445616D01*
X105288240Y-87446820D01*
X104038240Y-87446820D01*
X104013736Y-87445616D01*
X103989467Y-87442016D01*
X103965669Y-87436055D01*
X103942569Y-87427790D01*
X103920391Y-87417300D01*
X103899347Y-87404687D01*
X103879642Y-87390073D01*
X103861463Y-87373597D01*
X103844987Y-87355418D01*
X103830373Y-87335713D01*
X103817760Y-87314669D01*
X103807270Y-87292491D01*
X103799005Y-87269391D01*
X103793044Y-87245593D01*
X103789444Y-87221324D01*
X103788240Y-87196820D01*
X103788240Y-86271820D01*
X103789444Y-86247316D01*
X103793044Y-86223047D01*
X103799005Y-86199249D01*
X103807270Y-86176149D01*
X103817760Y-86153971D01*
X103830373Y-86132927D01*
X103844987Y-86113222D01*
X103861463Y-86095043D01*
X103879642Y-86078567D01*
X103899347Y-86063953D01*
X103920391Y-86051340D01*
X103942569Y-86040850D01*
X103965669Y-86032585D01*
X103989467Y-86026624D01*
X104013736Y-86023024D01*
X104038240Y-86021820D01*
X105288240Y-86021820D01*
X105312744Y-86023024D01*
G37*
M02*
