G04 #@! TF.GenerationSoftware,KiCad,Pcbnew,(5.1.5-0-10_14)*
G04 #@! TF.CreationDate,2021-09-26T22:00:01-06:00*
G04 #@! TF.ProjectId,2021DC435,32303231-4443-4343-9335-2e6b69636164,rev?*
G04 #@! TF.SameCoordinates,Original*
G04 #@! TF.FileFunction,Legend,Top*
G04 #@! TF.FilePolarity,Positive*
%FSLAX46Y46*%
G04 Gerber Fmt 4.6, Leading zero omitted, Abs format (unit mm)*
G04 Created by KiCad (PCBNEW (5.1.5-0-10_14)) date 2021-09-26 22:00:01*
%MOMM*%
%LPD*%
G04 APERTURE LIST*
%ADD10C,0.010000*%
G04 APERTURE END LIST*
D10*
G36*
X139603331Y-81040331D02*
G01*
X139793686Y-81122022D01*
X139954418Y-81235892D01*
X140049876Y-81358005D01*
X140106190Y-81577913D01*
X140083008Y-81799951D01*
X139986660Y-82001975D01*
X139823474Y-82161837D01*
X139819366Y-82164589D01*
X139655320Y-82231579D01*
X139445850Y-82261224D01*
X139231327Y-82251361D01*
X139063167Y-82205066D01*
X138866354Y-82075975D01*
X138746590Y-81900819D01*
X138700984Y-81675101D01*
X138700351Y-81640890D01*
X138740818Y-81407653D01*
X138856287Y-81220918D01*
X139037859Y-81088537D01*
X139276637Y-81018359D01*
X139416444Y-81009049D01*
X139603331Y-81040331D01*
G37*
X139603331Y-81040331D02*
X139793686Y-81122022D01*
X139954418Y-81235892D01*
X140049876Y-81358005D01*
X140106190Y-81577913D01*
X140083008Y-81799951D01*
X139986660Y-82001975D01*
X139823474Y-82161837D01*
X139819366Y-82164589D01*
X139655320Y-82231579D01*
X139445850Y-82261224D01*
X139231327Y-82251361D01*
X139063167Y-82205066D01*
X138866354Y-82075975D01*
X138746590Y-81900819D01*
X138700984Y-81675101D01*
X138700351Y-81640890D01*
X138740818Y-81407653D01*
X138856287Y-81220918D01*
X139037859Y-81088537D01*
X139276637Y-81018359D01*
X139416444Y-81009049D01*
X139603331Y-81040331D01*
G36*
X112239103Y-81026165D02*
G01*
X112455993Y-81085503D01*
X112635476Y-81190570D01*
X112747585Y-81325625D01*
X112823310Y-81559393D01*
X112813532Y-81783137D01*
X112721797Y-81983464D01*
X112551654Y-82146982D01*
X112525508Y-82163883D01*
X112305785Y-82251418D01*
X112059078Y-82270476D01*
X111815838Y-82219449D01*
X111776488Y-82203454D01*
X111597923Y-82082666D01*
X111481403Y-81917065D01*
X111426621Y-81725098D01*
X111433269Y-81525217D01*
X111501038Y-81335870D01*
X111629620Y-81175508D01*
X111795386Y-81071928D01*
X112010378Y-81019370D01*
X112239103Y-81026165D01*
G37*
X112239103Y-81026165D02*
X112455993Y-81085503D01*
X112635476Y-81190570D01*
X112747585Y-81325625D01*
X112823310Y-81559393D01*
X112813532Y-81783137D01*
X112721797Y-81983464D01*
X112551654Y-82146982D01*
X112525508Y-82163883D01*
X112305785Y-82251418D01*
X112059078Y-82270476D01*
X111815838Y-82219449D01*
X111776488Y-82203454D01*
X111597923Y-82082666D01*
X111481403Y-81917065D01*
X111426621Y-81725098D01*
X111433269Y-81525217D01*
X111501038Y-81335870D01*
X111629620Y-81175508D01*
X111795386Y-81071928D01*
X112010378Y-81019370D01*
X112239103Y-81026165D01*
G36*
X137994697Y-97783954D02*
G01*
X138208023Y-97862144D01*
X138378587Y-97998940D01*
X138491915Y-98186200D01*
X138533531Y-98415785D01*
X138533536Y-98418473D01*
X138491360Y-98627510D01*
X138376492Y-98802457D01*
X138206418Y-98934197D01*
X137998626Y-99013613D01*
X137770603Y-99031589D01*
X137539836Y-98979005D01*
X137495657Y-98959586D01*
X137298362Y-98828438D01*
X137178113Y-98655421D01*
X137128622Y-98455041D01*
X137144398Y-98228449D01*
X137237190Y-98033991D01*
X137398354Y-97886168D01*
X137497668Y-97835952D01*
X137753087Y-97772510D01*
X137994697Y-97783954D01*
G37*
X137994697Y-97783954D02*
X138208023Y-97862144D01*
X138378587Y-97998940D01*
X138491915Y-98186200D01*
X138533531Y-98415785D01*
X138533536Y-98418473D01*
X138491360Y-98627510D01*
X138376492Y-98802457D01*
X138206418Y-98934197D01*
X137998626Y-99013613D01*
X137770603Y-99031589D01*
X137539836Y-98979005D01*
X137495657Y-98959586D01*
X137298362Y-98828438D01*
X137178113Y-98655421D01*
X137128622Y-98455041D01*
X137144398Y-98228449D01*
X137237190Y-98033991D01*
X137398354Y-97886168D01*
X137497668Y-97835952D01*
X137753087Y-97772510D01*
X137994697Y-97783954D01*
G36*
X113723508Y-97785550D02*
G01*
X113942643Y-97851705D01*
X114122938Y-97971424D01*
X114244662Y-98137796D01*
X114267711Y-98198730D01*
X114299431Y-98436302D01*
X114248476Y-98649807D01*
X114117904Y-98826748D01*
X114112986Y-98831186D01*
X113898379Y-98975104D01*
X113669233Y-99035900D01*
X113423584Y-99013854D01*
X113250776Y-98953755D01*
X113068353Y-98831585D01*
X112948398Y-98665972D01*
X112890962Y-98475199D01*
X112896098Y-98277552D01*
X112963855Y-98091315D01*
X113094287Y-97934772D01*
X113247642Y-97841560D01*
X113485264Y-97779865D01*
X113723508Y-97785550D01*
G37*
X113723508Y-97785550D02*
X113942643Y-97851705D01*
X114122938Y-97971424D01*
X114244662Y-98137796D01*
X114267711Y-98198730D01*
X114299431Y-98436302D01*
X114248476Y-98649807D01*
X114117904Y-98826748D01*
X114112986Y-98831186D01*
X113898379Y-98975104D01*
X113669233Y-99035900D01*
X113423584Y-99013854D01*
X113250776Y-98953755D01*
X113068353Y-98831585D01*
X112948398Y-98665972D01*
X112890962Y-98475199D01*
X112896098Y-98277552D01*
X112963855Y-98091315D01*
X113094287Y-97934772D01*
X113247642Y-97841560D01*
X113485264Y-97779865D01*
X113723508Y-97785550D01*
G36*
X118557000Y-80132027D02*
G01*
X120138549Y-80132310D01*
X121810288Y-80132781D01*
X123573530Y-80133440D01*
X125429590Y-80134283D01*
X125857142Y-80134496D01*
X147621826Y-80145534D01*
X147881491Y-80276370D01*
X148118255Y-80428887D01*
X148282792Y-80610045D01*
X148424428Y-80812884D01*
X148438280Y-90041066D01*
X148439880Y-91255254D01*
X148440908Y-92385218D01*
X148441364Y-93430975D01*
X148441249Y-94392545D01*
X148440561Y-95269948D01*
X148439302Y-96063201D01*
X148437470Y-96772325D01*
X148435067Y-97397337D01*
X148432091Y-97938258D01*
X148428543Y-98395106D01*
X148424422Y-98767900D01*
X148419729Y-99056658D01*
X148414463Y-99261401D01*
X148408625Y-99382147D01*
X148404206Y-99416678D01*
X148298031Y-99613881D01*
X148122763Y-99799058D01*
X147902815Y-99948478D01*
X147814019Y-99990357D01*
X147574614Y-100089819D01*
X125715506Y-100087025D01*
X123925560Y-100086752D01*
X122227959Y-100086399D01*
X120620626Y-100085960D01*
X119101483Y-100085430D01*
X117668451Y-100084805D01*
X116319453Y-100084079D01*
X115052410Y-100083247D01*
X113865245Y-100082304D01*
X112755878Y-100081245D01*
X111722233Y-100080064D01*
X110762232Y-100078758D01*
X109873795Y-100077320D01*
X109054845Y-100075746D01*
X108303304Y-100074030D01*
X107617095Y-100072167D01*
X106994138Y-100070152D01*
X106432356Y-100067981D01*
X105929670Y-100065648D01*
X105484004Y-100063147D01*
X105093278Y-100060474D01*
X104755414Y-100057624D01*
X104468336Y-100054592D01*
X104229963Y-100051372D01*
X104038219Y-100047959D01*
X103891026Y-100044349D01*
X103786304Y-100040536D01*
X103721977Y-100036515D01*
X103697628Y-100032969D01*
X103486815Y-99932336D01*
X103280190Y-99778561D01*
X103111522Y-99598508D01*
X103064899Y-99529612D01*
X102959372Y-99353494D01*
X102959372Y-94099393D01*
X103320520Y-94099393D01*
X103320689Y-94824749D01*
X103321105Y-95509119D01*
X103321764Y-96148591D01*
X103322658Y-96739251D01*
X103323783Y-97277185D01*
X103325132Y-97758482D01*
X103326698Y-98179226D01*
X103328477Y-98535505D01*
X103330462Y-98823406D01*
X103332647Y-99039015D01*
X103335026Y-99178419D01*
X103337594Y-99237705D01*
X103337739Y-99238557D01*
X103394581Y-99368255D01*
X103501711Y-99510952D01*
X103631903Y-99635995D01*
X103757934Y-99712735D01*
X103759393Y-99713268D01*
X103812517Y-99715570D01*
X103957110Y-99717845D01*
X104190218Y-99720088D01*
X104508886Y-99722294D01*
X104910159Y-99724457D01*
X105391083Y-99726572D01*
X105948704Y-99728635D01*
X106580066Y-99730640D01*
X107282215Y-99732583D01*
X108052197Y-99734458D01*
X108887056Y-99736260D01*
X109783839Y-99737984D01*
X110739591Y-99739624D01*
X111751356Y-99741177D01*
X112816182Y-99742637D01*
X113931112Y-99743998D01*
X115093193Y-99745256D01*
X116299469Y-99746406D01*
X117546987Y-99747442D01*
X118832791Y-99748359D01*
X120153928Y-99749153D01*
X121507441Y-99749819D01*
X122890378Y-99750350D01*
X124299783Y-99750743D01*
X125720327Y-99750990D01*
X147584256Y-99753660D01*
X147740336Y-99658884D01*
X147872851Y-99562621D01*
X147986885Y-99454882D01*
X147995180Y-99445185D01*
X148093945Y-99326262D01*
X148106168Y-90177342D01*
X148118392Y-81028423D01*
X148011745Y-80839888D01*
X147856638Y-80650041D01*
X147716250Y-80557020D01*
X147527402Y-80462687D01*
X125659953Y-80472601D01*
X103792503Y-80482515D01*
X103662126Y-80569364D01*
X103536073Y-80669693D01*
X103434408Y-80772533D01*
X103337067Y-80888854D01*
X103323608Y-89994806D01*
X103322446Y-90866387D01*
X103321563Y-91716550D01*
X103320951Y-92541380D01*
X103320606Y-93336966D01*
X103320520Y-94099393D01*
X102959372Y-94099393D01*
X102959372Y-80901497D01*
X103079980Y-80692395D01*
X103262267Y-80463079D01*
X103505704Y-80288022D01*
X103791456Y-80180125D01*
X103843608Y-80169258D01*
X103897131Y-80165325D01*
X104014580Y-80161623D01*
X104197267Y-80158149D01*
X104446506Y-80154901D01*
X104763610Y-80151878D01*
X105149892Y-80149077D01*
X105606667Y-80146496D01*
X106135246Y-80144133D01*
X106736943Y-80141986D01*
X107413072Y-80140053D01*
X108164945Y-80138332D01*
X108993876Y-80136820D01*
X109901179Y-80135516D01*
X110888165Y-80134417D01*
X111956150Y-80133522D01*
X113106445Y-80132829D01*
X114340365Y-80132335D01*
X115659221Y-80132038D01*
X117064329Y-80131936D01*
X118557000Y-80132027D01*
G37*
X118557000Y-80132027D02*
X120138549Y-80132310D01*
X121810288Y-80132781D01*
X123573530Y-80133440D01*
X125429590Y-80134283D01*
X125857142Y-80134496D01*
X147621826Y-80145534D01*
X147881491Y-80276370D01*
X148118255Y-80428887D01*
X148282792Y-80610045D01*
X148424428Y-80812884D01*
X148438280Y-90041066D01*
X148439880Y-91255254D01*
X148440908Y-92385218D01*
X148441364Y-93430975D01*
X148441249Y-94392545D01*
X148440561Y-95269948D01*
X148439302Y-96063201D01*
X148437470Y-96772325D01*
X148435067Y-97397337D01*
X148432091Y-97938258D01*
X148428543Y-98395106D01*
X148424422Y-98767900D01*
X148419729Y-99056658D01*
X148414463Y-99261401D01*
X148408625Y-99382147D01*
X148404206Y-99416678D01*
X148298031Y-99613881D01*
X148122763Y-99799058D01*
X147902815Y-99948478D01*
X147814019Y-99990357D01*
X147574614Y-100089819D01*
X125715506Y-100087025D01*
X123925560Y-100086752D01*
X122227959Y-100086399D01*
X120620626Y-100085960D01*
X119101483Y-100085430D01*
X117668451Y-100084805D01*
X116319453Y-100084079D01*
X115052410Y-100083247D01*
X113865245Y-100082304D01*
X112755878Y-100081245D01*
X111722233Y-100080064D01*
X110762232Y-100078758D01*
X109873795Y-100077320D01*
X109054845Y-100075746D01*
X108303304Y-100074030D01*
X107617095Y-100072167D01*
X106994138Y-100070152D01*
X106432356Y-100067981D01*
X105929670Y-100065648D01*
X105484004Y-100063147D01*
X105093278Y-100060474D01*
X104755414Y-100057624D01*
X104468336Y-100054592D01*
X104229963Y-100051372D01*
X104038219Y-100047959D01*
X103891026Y-100044349D01*
X103786304Y-100040536D01*
X103721977Y-100036515D01*
X103697628Y-100032969D01*
X103486815Y-99932336D01*
X103280190Y-99778561D01*
X103111522Y-99598508D01*
X103064899Y-99529612D01*
X102959372Y-99353494D01*
X102959372Y-94099393D01*
X103320520Y-94099393D01*
X103320689Y-94824749D01*
X103321105Y-95509119D01*
X103321764Y-96148591D01*
X103322658Y-96739251D01*
X103323783Y-97277185D01*
X103325132Y-97758482D01*
X103326698Y-98179226D01*
X103328477Y-98535505D01*
X103330462Y-98823406D01*
X103332647Y-99039015D01*
X103335026Y-99178419D01*
X103337594Y-99237705D01*
X103337739Y-99238557D01*
X103394581Y-99368255D01*
X103501711Y-99510952D01*
X103631903Y-99635995D01*
X103757934Y-99712735D01*
X103759393Y-99713268D01*
X103812517Y-99715570D01*
X103957110Y-99717845D01*
X104190218Y-99720088D01*
X104508886Y-99722294D01*
X104910159Y-99724457D01*
X105391083Y-99726572D01*
X105948704Y-99728635D01*
X106580066Y-99730640D01*
X107282215Y-99732583D01*
X108052197Y-99734458D01*
X108887056Y-99736260D01*
X109783839Y-99737984D01*
X110739591Y-99739624D01*
X111751356Y-99741177D01*
X112816182Y-99742637D01*
X113931112Y-99743998D01*
X115093193Y-99745256D01*
X116299469Y-99746406D01*
X117546987Y-99747442D01*
X118832791Y-99748359D01*
X120153928Y-99749153D01*
X121507441Y-99749819D01*
X122890378Y-99750350D01*
X124299783Y-99750743D01*
X125720327Y-99750990D01*
X147584256Y-99753660D01*
X147740336Y-99658884D01*
X147872851Y-99562621D01*
X147986885Y-99454882D01*
X147995180Y-99445185D01*
X148093945Y-99326262D01*
X148106168Y-90177342D01*
X148118392Y-81028423D01*
X148011745Y-80839888D01*
X147856638Y-80650041D01*
X147716250Y-80557020D01*
X147527402Y-80462687D01*
X125659953Y-80472601D01*
X103792503Y-80482515D01*
X103662126Y-80569364D01*
X103536073Y-80669693D01*
X103434408Y-80772533D01*
X103337067Y-80888854D01*
X103323608Y-89994806D01*
X103322446Y-90866387D01*
X103321563Y-91716550D01*
X103320951Y-92541380D01*
X103320606Y-93336966D01*
X103320520Y-94099393D01*
X102959372Y-94099393D01*
X102959372Y-80901497D01*
X103079980Y-80692395D01*
X103262267Y-80463079D01*
X103505704Y-80288022D01*
X103791456Y-80180125D01*
X103843608Y-80169258D01*
X103897131Y-80165325D01*
X104014580Y-80161623D01*
X104197267Y-80158149D01*
X104446506Y-80154901D01*
X104763610Y-80151878D01*
X105149892Y-80149077D01*
X105606667Y-80146496D01*
X106135246Y-80144133D01*
X106736943Y-80141986D01*
X107413072Y-80140053D01*
X108164945Y-80138332D01*
X108993876Y-80136820D01*
X109901179Y-80135516D01*
X110888165Y-80134417D01*
X111956150Y-80133522D01*
X113106445Y-80132829D01*
X114340365Y-80132335D01*
X115659221Y-80132038D01*
X117064329Y-80131936D01*
X118557000Y-80132027D01*
M02*
