G04 #@! TF.GenerationSoftware,KiCad,Pcbnew,(5.1.5-0-10_14)*
G04 #@! TF.CreationDate,2021-09-19T20:31:28-06:00*
G04 #@! TF.ProjectId,2021DC435,32303231-4443-4343-9335-2e6b69636164,rev?*
G04 #@! TF.SameCoordinates,Original*
G04 #@! TF.FileFunction,Soldermask,Bot*
G04 #@! TF.FilePolarity,Negative*
%FSLAX46Y46*%
G04 Gerber Fmt 4.6, Leading zero omitted, Abs format (unit mm)*
G04 Created by KiCad (PCBNEW (5.1.5-0-10_14)) date 2021-09-19 20:31:28*
%MOMM*%
%LPD*%
G04 APERTURE LIST*
%ADD10C,0.010000*%
%ADD11C,0.100000*%
G04 APERTURE END LIST*
D10*
G36*
X109443411Y-96326278D02*
G01*
X109592507Y-96394554D01*
X109695573Y-96506315D01*
X109751413Y-96622094D01*
X109791598Y-96800198D01*
X109764047Y-96965112D01*
X109662748Y-97137362D01*
X109567889Y-97248658D01*
X109329220Y-97536000D01*
X109153821Y-97821290D01*
X109052407Y-98049673D01*
X108984874Y-98231236D01*
X108958567Y-98347521D01*
X108984512Y-98413070D01*
X109073737Y-98442425D01*
X109237270Y-98450131D01*
X109356278Y-98450409D01*
X109553702Y-98455526D01*
X109701709Y-98469465D01*
X109780047Y-98490113D01*
X109785865Y-98495265D01*
X109798706Y-98564024D01*
X109788901Y-98672590D01*
X109786121Y-98686676D01*
X109755305Y-98833231D01*
X109164589Y-98826845D01*
X108919714Y-98823681D01*
X108752639Y-98818460D01*
X108646747Y-98808206D01*
X108585421Y-98789942D01*
X108552043Y-98760694D01*
X108529996Y-98717485D01*
X108528014Y-98712845D01*
X108504527Y-98576568D01*
X108517694Y-98385362D01*
X108562697Y-98159985D01*
X108634717Y-97921194D01*
X108728935Y-97689743D01*
X108795543Y-97560512D01*
X108884041Y-97426895D01*
X109009100Y-97265000D01*
X109144132Y-97109184D01*
X109148247Y-97104760D01*
X109281940Y-96950556D01*
X109350667Y-96842125D01*
X109360508Y-96769751D01*
X109359624Y-96767075D01*
X109291237Y-96685414D01*
X109183418Y-96660357D01*
X109063905Y-96689297D01*
X108960436Y-96769625D01*
X108934494Y-96807042D01*
X108859541Y-96892790D01*
X108749550Y-96917288D01*
X108721753Y-96916867D01*
X108588865Y-96890928D01*
X108526015Y-96818763D01*
X108526455Y-96690484D01*
X108536438Y-96645385D01*
X108613482Y-96489373D01*
X108743930Y-96367593D01*
X108902008Y-96301865D01*
X108948593Y-96296437D01*
X109233650Y-96295551D01*
X109443411Y-96326278D01*
G37*
X109443411Y-96326278D02*
X109592507Y-96394554D01*
X109695573Y-96506315D01*
X109751413Y-96622094D01*
X109791598Y-96800198D01*
X109764047Y-96965112D01*
X109662748Y-97137362D01*
X109567889Y-97248658D01*
X109329220Y-97536000D01*
X109153821Y-97821290D01*
X109052407Y-98049673D01*
X108984874Y-98231236D01*
X108958567Y-98347521D01*
X108984512Y-98413070D01*
X109073737Y-98442425D01*
X109237270Y-98450131D01*
X109356278Y-98450409D01*
X109553702Y-98455526D01*
X109701709Y-98469465D01*
X109780047Y-98490113D01*
X109785865Y-98495265D01*
X109798706Y-98564024D01*
X109788901Y-98672590D01*
X109786121Y-98686676D01*
X109755305Y-98833231D01*
X109164589Y-98826845D01*
X108919714Y-98823681D01*
X108752639Y-98818460D01*
X108646747Y-98808206D01*
X108585421Y-98789942D01*
X108552043Y-98760694D01*
X108529996Y-98717485D01*
X108528014Y-98712845D01*
X108504527Y-98576568D01*
X108517694Y-98385362D01*
X108562697Y-98159985D01*
X108634717Y-97921194D01*
X108728935Y-97689743D01*
X108795543Y-97560512D01*
X108884041Y-97426895D01*
X109009100Y-97265000D01*
X109144132Y-97109184D01*
X109148247Y-97104760D01*
X109281940Y-96950556D01*
X109350667Y-96842125D01*
X109360508Y-96769751D01*
X109359624Y-96767075D01*
X109291237Y-96685414D01*
X109183418Y-96660357D01*
X109063905Y-96689297D01*
X108960436Y-96769625D01*
X108934494Y-96807042D01*
X108859541Y-96892790D01*
X108749550Y-96917288D01*
X108721753Y-96916867D01*
X108588865Y-96890928D01*
X108526015Y-96818763D01*
X108526455Y-96690484D01*
X108536438Y-96645385D01*
X108613482Y-96489373D01*
X108743930Y-96367593D01*
X108902008Y-96301865D01*
X108948593Y-96296437D01*
X109233650Y-96295551D01*
X109443411Y-96326278D01*
G36*
X108631180Y-95710263D02*
G01*
X109280203Y-95711449D01*
X109842532Y-95713486D01*
X110322033Y-95716422D01*
X110722567Y-95720308D01*
X111047999Y-95725193D01*
X111302192Y-95731125D01*
X111489010Y-95738154D01*
X111612315Y-95746329D01*
X111675973Y-95755699D01*
X111682919Y-95758186D01*
X111749820Y-95790476D01*
X111804509Y-95822757D01*
X111848226Y-95863315D01*
X111882209Y-95920437D01*
X111907697Y-96002408D01*
X111925928Y-96117515D01*
X111938142Y-96274045D01*
X111945577Y-96480284D01*
X111949472Y-96744517D01*
X111951065Y-97075032D01*
X111951595Y-97480115D01*
X111951668Y-97555988D01*
X111953238Y-99128299D01*
X111677230Y-99374555D01*
X104108800Y-99374555D01*
X103832792Y-99128299D01*
X103832792Y-97589562D01*
X103832919Y-97548798D01*
X104021640Y-97548798D01*
X104021640Y-98999280D01*
X104137524Y-99102672D01*
X104253407Y-99206064D01*
X111545852Y-99206064D01*
X111655121Y-99114476D01*
X111764391Y-99022888D01*
X111764391Y-97560602D01*
X111764133Y-97169591D01*
X111763021Y-96854004D01*
X111760545Y-96605021D01*
X111756195Y-96413821D01*
X111749460Y-96271583D01*
X111739832Y-96169488D01*
X111726801Y-96098714D01*
X111709857Y-96050441D01*
X111688490Y-96015849D01*
X111674138Y-95998874D01*
X111583886Y-95899431D01*
X104202145Y-95899431D01*
X104111892Y-95998874D01*
X104087687Y-96029738D01*
X104068232Y-96069288D01*
X104053011Y-96126384D01*
X104041508Y-96209887D01*
X104033206Y-96328659D01*
X104027591Y-96491559D01*
X104024146Y-96707451D01*
X104022354Y-96985194D01*
X104021701Y-97333649D01*
X104021640Y-97548798D01*
X103832919Y-97548798D01*
X103834282Y-97113024D01*
X103838734Y-96716511D01*
X103846120Y-96400875D01*
X103856416Y-96166968D01*
X103869593Y-96015642D01*
X103884027Y-95950497D01*
X103961881Y-95856671D01*
X104068356Y-95780024D01*
X104099155Y-95767069D01*
X104143254Y-95755799D01*
X104206971Y-95746099D01*
X104296624Y-95737854D01*
X104418532Y-95730947D01*
X104579012Y-95725262D01*
X104784384Y-95720684D01*
X105040966Y-95717097D01*
X105355076Y-95714384D01*
X105733032Y-95712429D01*
X106181152Y-95711118D01*
X106705755Y-95710333D01*
X107313160Y-95709960D01*
X107891601Y-95709879D01*
X108631180Y-95710263D01*
G37*
X108631180Y-95710263D02*
X109280203Y-95711449D01*
X109842532Y-95713486D01*
X110322033Y-95716422D01*
X110722567Y-95720308D01*
X111047999Y-95725193D01*
X111302192Y-95731125D01*
X111489010Y-95738154D01*
X111612315Y-95746329D01*
X111675973Y-95755699D01*
X111682919Y-95758186D01*
X111749820Y-95790476D01*
X111804509Y-95822757D01*
X111848226Y-95863315D01*
X111882209Y-95920437D01*
X111907697Y-96002408D01*
X111925928Y-96117515D01*
X111938142Y-96274045D01*
X111945577Y-96480284D01*
X111949472Y-96744517D01*
X111951065Y-97075032D01*
X111951595Y-97480115D01*
X111951668Y-97555988D01*
X111953238Y-99128299D01*
X111677230Y-99374555D01*
X104108800Y-99374555D01*
X103832792Y-99128299D01*
X103832792Y-97589562D01*
X103832919Y-97548798D01*
X104021640Y-97548798D01*
X104021640Y-98999280D01*
X104137524Y-99102672D01*
X104253407Y-99206064D01*
X111545852Y-99206064D01*
X111655121Y-99114476D01*
X111764391Y-99022888D01*
X111764391Y-97560602D01*
X111764133Y-97169591D01*
X111763021Y-96854004D01*
X111760545Y-96605021D01*
X111756195Y-96413821D01*
X111749460Y-96271583D01*
X111739832Y-96169488D01*
X111726801Y-96098714D01*
X111709857Y-96050441D01*
X111688490Y-96015849D01*
X111674138Y-95998874D01*
X111583886Y-95899431D01*
X104202145Y-95899431D01*
X104111892Y-95998874D01*
X104087687Y-96029738D01*
X104068232Y-96069288D01*
X104053011Y-96126384D01*
X104041508Y-96209887D01*
X104033206Y-96328659D01*
X104027591Y-96491559D01*
X104024146Y-96707451D01*
X104022354Y-96985194D01*
X104021701Y-97333649D01*
X104021640Y-97548798D01*
X103832919Y-97548798D01*
X103834282Y-97113024D01*
X103838734Y-96716511D01*
X103846120Y-96400875D01*
X103856416Y-96166968D01*
X103869593Y-96015642D01*
X103884027Y-95950497D01*
X103961881Y-95856671D01*
X104068356Y-95780024D01*
X104099155Y-95767069D01*
X104143254Y-95755799D01*
X104206971Y-95746099D01*
X104296624Y-95737854D01*
X104418532Y-95730947D01*
X104579012Y-95725262D01*
X104784384Y-95720684D01*
X105040966Y-95717097D01*
X105355076Y-95714384D01*
X105733032Y-95712429D01*
X106181152Y-95711118D01*
X106705755Y-95710333D01*
X107313160Y-95709960D01*
X107891601Y-95709879D01*
X108631180Y-95710263D01*
G36*
X121152651Y-95093947D02*
G01*
X121210356Y-95120475D01*
X121253583Y-95173520D01*
X121284405Y-95260640D01*
X121304894Y-95389392D01*
X121317124Y-95567336D01*
X121323167Y-95802028D01*
X121325096Y-96101027D01*
X121324985Y-96471890D01*
X121324800Y-96749062D01*
X121324449Y-97156256D01*
X121323114Y-97487872D01*
X121320371Y-97752572D01*
X121315795Y-97959023D01*
X121308961Y-98115888D01*
X121299447Y-98231832D01*
X121286826Y-98315519D01*
X121270675Y-98375615D01*
X121250570Y-98420784D01*
X121242229Y-98435147D01*
X121078641Y-98616593D01*
X120837472Y-98760452D01*
X120596249Y-98843966D01*
X120397004Y-98878751D01*
X120136007Y-98900177D01*
X119844775Y-98908037D01*
X119554822Y-98902121D01*
X119297663Y-98882219D01*
X119126587Y-98853716D01*
X118817478Y-98750516D01*
X118589238Y-98607529D01*
X118437568Y-98421341D01*
X118372433Y-98255043D01*
X118362593Y-98174143D01*
X118354162Y-98020177D01*
X118347366Y-97804316D01*
X118342428Y-97537734D01*
X118339574Y-97231601D01*
X118339028Y-96897092D01*
X118340159Y-96649197D01*
X118343867Y-96240696D01*
X118348797Y-95909401D01*
X118355285Y-95648280D01*
X118363668Y-95450298D01*
X118374282Y-95308419D01*
X118387467Y-95215611D01*
X118403557Y-95164839D01*
X118411826Y-95153841D01*
X118500519Y-95120858D01*
X118668359Y-95102391D01*
X118805130Y-95099099D01*
X118989824Y-95103207D01*
X119104642Y-95118844D01*
X119173849Y-95150985D01*
X119204070Y-95180865D01*
X119222493Y-95216810D01*
X119237357Y-95280381D01*
X119249004Y-95379553D01*
X119257782Y-95522304D01*
X119264033Y-95716610D01*
X119268102Y-95970449D01*
X119270336Y-96291796D01*
X119271077Y-96688629D01*
X119271082Y-96731644D01*
X119272405Y-97122721D01*
X119276229Y-97469157D01*
X119282333Y-97763630D01*
X119290501Y-97998816D01*
X119300511Y-98167391D01*
X119312147Y-98262034D01*
X119317298Y-98277703D01*
X119419874Y-98368554D01*
X119581031Y-98424069D01*
X119777214Y-98445954D01*
X119984871Y-98435916D01*
X120180447Y-98395661D01*
X120340390Y-98326896D01*
X120441147Y-98231328D01*
X120457116Y-98195119D01*
X120464798Y-98129153D01*
X120472090Y-97989458D01*
X120478748Y-97786551D01*
X120484523Y-97530947D01*
X120489169Y-97233163D01*
X120492439Y-96903715D01*
X120493885Y-96628534D01*
X120496725Y-96185914D01*
X120502111Y-95818766D01*
X120509980Y-95528852D01*
X120520269Y-95317936D01*
X120532915Y-95187780D01*
X120547279Y-95140408D01*
X120618178Y-95123312D01*
X120750805Y-95107034D01*
X120871937Y-95097887D01*
X120985514Y-95090211D01*
X121078395Y-95086379D01*
X121152651Y-95093947D01*
G37*
X121152651Y-95093947D02*
X121210356Y-95120475D01*
X121253583Y-95173520D01*
X121284405Y-95260640D01*
X121304894Y-95389392D01*
X121317124Y-95567336D01*
X121323167Y-95802028D01*
X121325096Y-96101027D01*
X121324985Y-96471890D01*
X121324800Y-96749062D01*
X121324449Y-97156256D01*
X121323114Y-97487872D01*
X121320371Y-97752572D01*
X121315795Y-97959023D01*
X121308961Y-98115888D01*
X121299447Y-98231832D01*
X121286826Y-98315519D01*
X121270675Y-98375615D01*
X121250570Y-98420784D01*
X121242229Y-98435147D01*
X121078641Y-98616593D01*
X120837472Y-98760452D01*
X120596249Y-98843966D01*
X120397004Y-98878751D01*
X120136007Y-98900177D01*
X119844775Y-98908037D01*
X119554822Y-98902121D01*
X119297663Y-98882219D01*
X119126587Y-98853716D01*
X118817478Y-98750516D01*
X118589238Y-98607529D01*
X118437568Y-98421341D01*
X118372433Y-98255043D01*
X118362593Y-98174143D01*
X118354162Y-98020177D01*
X118347366Y-97804316D01*
X118342428Y-97537734D01*
X118339574Y-97231601D01*
X118339028Y-96897092D01*
X118340159Y-96649197D01*
X118343867Y-96240696D01*
X118348797Y-95909401D01*
X118355285Y-95648280D01*
X118363668Y-95450298D01*
X118374282Y-95308419D01*
X118387467Y-95215611D01*
X118403557Y-95164839D01*
X118411826Y-95153841D01*
X118500519Y-95120858D01*
X118668359Y-95102391D01*
X118805130Y-95099099D01*
X118989824Y-95103207D01*
X119104642Y-95118844D01*
X119173849Y-95150985D01*
X119204070Y-95180865D01*
X119222493Y-95216810D01*
X119237357Y-95280381D01*
X119249004Y-95379553D01*
X119257782Y-95522304D01*
X119264033Y-95716610D01*
X119268102Y-95970449D01*
X119270336Y-96291796D01*
X119271077Y-96688629D01*
X119271082Y-96731644D01*
X119272405Y-97122721D01*
X119276229Y-97469157D01*
X119282333Y-97763630D01*
X119290501Y-97998816D01*
X119300511Y-98167391D01*
X119312147Y-98262034D01*
X119317298Y-98277703D01*
X119419874Y-98368554D01*
X119581031Y-98424069D01*
X119777214Y-98445954D01*
X119984871Y-98435916D01*
X120180447Y-98395661D01*
X120340390Y-98326896D01*
X120441147Y-98231328D01*
X120457116Y-98195119D01*
X120464798Y-98129153D01*
X120472090Y-97989458D01*
X120478748Y-97786551D01*
X120484523Y-97530947D01*
X120489169Y-97233163D01*
X120492439Y-96903715D01*
X120493885Y-96628534D01*
X120496725Y-96185914D01*
X120502111Y-95818766D01*
X120509980Y-95528852D01*
X120520269Y-95317936D01*
X120532915Y-95187780D01*
X120547279Y-95140408D01*
X120618178Y-95123312D01*
X120750805Y-95107034D01*
X120871937Y-95097887D01*
X120985514Y-95090211D01*
X121078395Y-95086379D01*
X121152651Y-95093947D01*
G36*
X124392350Y-95083160D02*
G01*
X124676355Y-95085580D01*
X124916590Y-95089639D01*
X125097702Y-95095399D01*
X125204335Y-95102919D01*
X125213880Y-95104365D01*
X125296256Y-95123121D01*
X125340309Y-95156560D01*
X125358029Y-95226933D01*
X125361406Y-95356489D01*
X125361417Y-95378162D01*
X125359584Y-95511020D01*
X125354833Y-95602958D01*
X125349614Y-95630992D01*
X125300675Y-95635381D01*
X125177047Y-95643174D01*
X124998327Y-95653206D01*
X124818480Y-95662584D01*
X124299149Y-95688817D01*
X124274421Y-98911205D01*
X123834338Y-98911205D01*
X123639024Y-98908370D01*
X123480886Y-98900766D01*
X123382644Y-98889746D01*
X123362780Y-98883124D01*
X123355715Y-98836069D01*
X123349203Y-98714155D01*
X123343427Y-98526766D01*
X123338568Y-98283287D01*
X123334810Y-97993104D01*
X123332333Y-97665601D01*
X123331320Y-97310163D01*
X123331305Y-97261399D01*
X123331305Y-95667756D01*
X122909472Y-95667756D01*
X122703708Y-95663127D01*
X122521033Y-95650787D01*
X122391675Y-95633062D01*
X122364060Y-95625836D01*
X122291919Y-95593927D01*
X122257537Y-95545345D01*
X122250248Y-95454562D01*
X122254760Y-95364281D01*
X122268761Y-95232482D01*
X122297204Y-95160862D01*
X122352883Y-95125365D01*
X122387067Y-95115541D01*
X122468489Y-95107029D01*
X122628973Y-95099672D01*
X122853164Y-95093530D01*
X123125709Y-95088662D01*
X123431255Y-95085131D01*
X123754446Y-95082996D01*
X124079929Y-95082319D01*
X124392350Y-95083160D01*
G37*
X124392350Y-95083160D02*
X124676355Y-95085580D01*
X124916590Y-95089639D01*
X125097702Y-95095399D01*
X125204335Y-95102919D01*
X125213880Y-95104365D01*
X125296256Y-95123121D01*
X125340309Y-95156560D01*
X125358029Y-95226933D01*
X125361406Y-95356489D01*
X125361417Y-95378162D01*
X125359584Y-95511020D01*
X125354833Y-95602958D01*
X125349614Y-95630992D01*
X125300675Y-95635381D01*
X125177047Y-95643174D01*
X124998327Y-95653206D01*
X124818480Y-95662584D01*
X124299149Y-95688817D01*
X124274421Y-98911205D01*
X123834338Y-98911205D01*
X123639024Y-98908370D01*
X123480886Y-98900766D01*
X123382644Y-98889746D01*
X123362780Y-98883124D01*
X123355715Y-98836069D01*
X123349203Y-98714155D01*
X123343427Y-98526766D01*
X123338568Y-98283287D01*
X123334810Y-97993104D01*
X123332333Y-97665601D01*
X123331320Y-97310163D01*
X123331305Y-97261399D01*
X123331305Y-95667756D01*
X122909472Y-95667756D01*
X122703708Y-95663127D01*
X122521033Y-95650787D01*
X122391675Y-95633062D01*
X122364060Y-95625836D01*
X122291919Y-95593927D01*
X122257537Y-95545345D01*
X122250248Y-95454562D01*
X122254760Y-95364281D01*
X122268761Y-95232482D01*
X122297204Y-95160862D01*
X122352883Y-95125365D01*
X122387067Y-95115541D01*
X122468489Y-95107029D01*
X122628973Y-95099672D01*
X122853164Y-95093530D01*
X123125709Y-95088662D01*
X123431255Y-95085131D01*
X123754446Y-95082996D01*
X124079929Y-95082319D01*
X124392350Y-95083160D01*
G36*
X127744175Y-95089948D02*
G01*
X127911585Y-95118528D01*
X128024281Y-95162547D01*
X128035693Y-95171363D01*
X128057310Y-95219351D01*
X128099942Y-95338544D01*
X128160436Y-95518710D01*
X128235638Y-95749615D01*
X128322395Y-96021025D01*
X128417553Y-96322707D01*
X128517960Y-96644428D01*
X128620461Y-96975954D01*
X128721903Y-97307053D01*
X128819132Y-97627489D01*
X128908996Y-97927032D01*
X128988340Y-98195445D01*
X129054012Y-98422498D01*
X129102858Y-98597955D01*
X129131724Y-98711584D01*
X129138369Y-98749704D01*
X129108692Y-98799435D01*
X129064178Y-98845013D01*
X128986852Y-98883636D01*
X128851336Y-98904781D01*
X128640360Y-98911205D01*
X128428415Y-98903168D01*
X128289780Y-98869949D01*
X128204228Y-98797887D01*
X128151531Y-98673322D01*
X128126580Y-98564205D01*
X128084782Y-98444716D01*
X128004558Y-98370497D01*
X127868098Y-98332453D01*
X127657593Y-98321493D01*
X127651194Y-98321487D01*
X127438599Y-98331884D01*
X127300496Y-98369135D01*
X127219076Y-98442334D01*
X127176531Y-98560574D01*
X127175807Y-98564205D01*
X127134610Y-98725182D01*
X127074301Y-98827392D01*
X126975045Y-98883789D01*
X126817011Y-98907325D01*
X126644492Y-98911205D01*
X126437705Y-98904516D01*
X126289232Y-98885937D01*
X126220673Y-98860658D01*
X126172139Y-98777399D01*
X126164019Y-98727851D01*
X126175542Y-98668742D01*
X126208089Y-98538777D01*
X126258624Y-98348564D01*
X126324114Y-98108709D01*
X126401522Y-97829823D01*
X126405399Y-97816015D01*
X127331164Y-97816015D01*
X127621012Y-97816015D01*
X127780464Y-97813669D01*
X127867364Y-97801695D01*
X127903549Y-97772689D01*
X127910858Y-97719245D01*
X127910859Y-97717733D01*
X127899139Y-97586707D01*
X127868886Y-97432052D01*
X127827465Y-97280759D01*
X127782240Y-97159817D01*
X127741455Y-97096846D01*
X127649066Y-97070683D01*
X127584111Y-97077809D01*
X127499034Y-97144514D01*
X127429261Y-97292584D01*
X127374456Y-97522827D01*
X127359746Y-97615932D01*
X127331164Y-97816015D01*
X126405399Y-97816015D01*
X126487816Y-97522512D01*
X126579960Y-97197386D01*
X126674919Y-96865052D01*
X126769660Y-96536118D01*
X126861146Y-96221194D01*
X126946344Y-95930886D01*
X127022220Y-95675803D01*
X127085737Y-95466554D01*
X127133863Y-95313746D01*
X127163561Y-95227989D01*
X127168306Y-95217151D01*
X127262141Y-95130778D01*
X127378093Y-95094618D01*
X127555271Y-95080686D01*
X127744175Y-95089948D01*
G37*
X127744175Y-95089948D02*
X127911585Y-95118528D01*
X128024281Y-95162547D01*
X128035693Y-95171363D01*
X128057310Y-95219351D01*
X128099942Y-95338544D01*
X128160436Y-95518710D01*
X128235638Y-95749615D01*
X128322395Y-96021025D01*
X128417553Y-96322707D01*
X128517960Y-96644428D01*
X128620461Y-96975954D01*
X128721903Y-97307053D01*
X128819132Y-97627489D01*
X128908996Y-97927032D01*
X128988340Y-98195445D01*
X129054012Y-98422498D01*
X129102858Y-98597955D01*
X129131724Y-98711584D01*
X129138369Y-98749704D01*
X129108692Y-98799435D01*
X129064178Y-98845013D01*
X128986852Y-98883636D01*
X128851336Y-98904781D01*
X128640360Y-98911205D01*
X128428415Y-98903168D01*
X128289780Y-98869949D01*
X128204228Y-98797887D01*
X128151531Y-98673322D01*
X128126580Y-98564205D01*
X128084782Y-98444716D01*
X128004558Y-98370497D01*
X127868098Y-98332453D01*
X127657593Y-98321493D01*
X127651194Y-98321487D01*
X127438599Y-98331884D01*
X127300496Y-98369135D01*
X127219076Y-98442334D01*
X127176531Y-98560574D01*
X127175807Y-98564205D01*
X127134610Y-98725182D01*
X127074301Y-98827392D01*
X126975045Y-98883789D01*
X126817011Y-98907325D01*
X126644492Y-98911205D01*
X126437705Y-98904516D01*
X126289232Y-98885937D01*
X126220673Y-98860658D01*
X126172139Y-98777399D01*
X126164019Y-98727851D01*
X126175542Y-98668742D01*
X126208089Y-98538777D01*
X126258624Y-98348564D01*
X126324114Y-98108709D01*
X126401522Y-97829823D01*
X126405399Y-97816015D01*
X127331164Y-97816015D01*
X127621012Y-97816015D01*
X127780464Y-97813669D01*
X127867364Y-97801695D01*
X127903549Y-97772689D01*
X127910858Y-97719245D01*
X127910859Y-97717733D01*
X127899139Y-97586707D01*
X127868886Y-97432052D01*
X127827465Y-97280759D01*
X127782240Y-97159817D01*
X127741455Y-97096846D01*
X127649066Y-97070683D01*
X127584111Y-97077809D01*
X127499034Y-97144514D01*
X127429261Y-97292584D01*
X127374456Y-97522827D01*
X127359746Y-97615932D01*
X127331164Y-97816015D01*
X126405399Y-97816015D01*
X126487816Y-97522512D01*
X126579960Y-97197386D01*
X126674919Y-96865052D01*
X126769660Y-96536118D01*
X126861146Y-96221194D01*
X126946344Y-95930886D01*
X127022220Y-95675803D01*
X127085737Y-95466554D01*
X127133863Y-95313746D01*
X127163561Y-95227989D01*
X127168306Y-95217151D01*
X127262141Y-95130778D01*
X127378093Y-95094618D01*
X127555271Y-95080686D01*
X127744175Y-95089948D01*
G36*
X130656034Y-95088529D02*
G01*
X130782264Y-95101592D01*
X130870481Y-95137517D01*
X130927493Y-95207383D01*
X130960113Y-95322269D01*
X130975149Y-95493254D01*
X130979412Y-95731418D01*
X130979632Y-95891977D01*
X130982558Y-96187513D01*
X130991594Y-96403996D01*
X131007128Y-96546464D01*
X131029547Y-96619956D01*
X131036287Y-96628154D01*
X131107240Y-96650591D01*
X131244810Y-96666802D01*
X131421405Y-96676281D01*
X131609437Y-96678522D01*
X131781314Y-96673019D01*
X131909448Y-96659269D01*
X131957376Y-96645028D01*
X131981105Y-96600694D01*
X131998846Y-96494061D01*
X132011130Y-96318917D01*
X132018489Y-96069056D01*
X132020550Y-95907065D01*
X132023663Y-95623544D01*
X132032544Y-95413468D01*
X132054854Y-95266053D01*
X132098253Y-95170515D01*
X132170403Y-95116070D01*
X132278963Y-95091935D01*
X132431595Y-95087325D01*
X132600498Y-95090676D01*
X132797147Y-95098758D01*
X132921892Y-95115155D01*
X132997164Y-95144499D01*
X133037208Y-95180865D01*
X133053661Y-95242123D01*
X133068084Y-95376088D01*
X133080449Y-95571999D01*
X133090723Y-95819095D01*
X133098878Y-96106614D01*
X133104883Y-96423797D01*
X133108707Y-96759881D01*
X133110322Y-97104106D01*
X133109696Y-97445711D01*
X133106800Y-97773935D01*
X133101603Y-98078016D01*
X133094075Y-98347194D01*
X133084187Y-98570708D01*
X133071907Y-98737797D01*
X133057206Y-98837699D01*
X133047514Y-98860658D01*
X132972970Y-98886322D01*
X132833941Y-98903356D01*
X132656469Y-98911817D01*
X132466595Y-98911763D01*
X132290359Y-98903249D01*
X132153803Y-98886333D01*
X132082967Y-98861072D01*
X132080818Y-98858552D01*
X132062885Y-98832998D01*
X132049731Y-98805928D01*
X132040484Y-98764827D01*
X132034269Y-98697183D01*
X132030213Y-98590481D01*
X132027443Y-98432208D01*
X132025085Y-98209852D01*
X132023473Y-98037159D01*
X132018724Y-97798238D01*
X132009802Y-97586278D01*
X131997726Y-97416724D01*
X131983519Y-97305025D01*
X131972722Y-97269344D01*
X131902595Y-97234174D01*
X131766071Y-97207861D01*
X131590818Y-97191934D01*
X131404503Y-97187920D01*
X131234797Y-97197344D01*
X131109465Y-97221701D01*
X130979632Y-97266334D01*
X130979632Y-98038223D01*
X130977236Y-98349146D01*
X130969784Y-98581620D01*
X130956886Y-98741336D01*
X130938149Y-98833987D01*
X130922978Y-98860658D01*
X130848910Y-98885108D01*
X130709262Y-98901522D01*
X130532479Y-98909599D01*
X130347005Y-98909041D01*
X130181286Y-98899548D01*
X130063766Y-98880820D01*
X130035395Y-98870001D01*
X130017380Y-98850146D01*
X130002390Y-98807752D01*
X129990061Y-98735346D01*
X129980026Y-98625458D01*
X129971921Y-98470617D01*
X129965380Y-98263350D01*
X129960038Y-97996188D01*
X129955530Y-97661659D01*
X129951490Y-97252292D01*
X129950475Y-97133084D01*
X129948035Y-96757995D01*
X129947033Y-96405181D01*
X129947402Y-96084460D01*
X129949074Y-95805648D01*
X129951982Y-95578563D01*
X129956058Y-95413023D01*
X129961235Y-95318846D01*
X129963063Y-95305624D01*
X130008309Y-95201356D01*
X130102617Y-95134240D01*
X130260476Y-95098212D01*
X130484980Y-95087247D01*
X130656034Y-95088529D01*
G37*
X130656034Y-95088529D02*
X130782264Y-95101592D01*
X130870481Y-95137517D01*
X130927493Y-95207383D01*
X130960113Y-95322269D01*
X130975149Y-95493254D01*
X130979412Y-95731418D01*
X130979632Y-95891977D01*
X130982558Y-96187513D01*
X130991594Y-96403996D01*
X131007128Y-96546464D01*
X131029547Y-96619956D01*
X131036287Y-96628154D01*
X131107240Y-96650591D01*
X131244810Y-96666802D01*
X131421405Y-96676281D01*
X131609437Y-96678522D01*
X131781314Y-96673019D01*
X131909448Y-96659269D01*
X131957376Y-96645028D01*
X131981105Y-96600694D01*
X131998846Y-96494061D01*
X132011130Y-96318917D01*
X132018489Y-96069056D01*
X132020550Y-95907065D01*
X132023663Y-95623544D01*
X132032544Y-95413468D01*
X132054854Y-95266053D01*
X132098253Y-95170515D01*
X132170403Y-95116070D01*
X132278963Y-95091935D01*
X132431595Y-95087325D01*
X132600498Y-95090676D01*
X132797147Y-95098758D01*
X132921892Y-95115155D01*
X132997164Y-95144499D01*
X133037208Y-95180865D01*
X133053661Y-95242123D01*
X133068084Y-95376088D01*
X133080449Y-95571999D01*
X133090723Y-95819095D01*
X133098878Y-96106614D01*
X133104883Y-96423797D01*
X133108707Y-96759881D01*
X133110322Y-97104106D01*
X133109696Y-97445711D01*
X133106800Y-97773935D01*
X133101603Y-98078016D01*
X133094075Y-98347194D01*
X133084187Y-98570708D01*
X133071907Y-98737797D01*
X133057206Y-98837699D01*
X133047514Y-98860658D01*
X132972970Y-98886322D01*
X132833941Y-98903356D01*
X132656469Y-98911817D01*
X132466595Y-98911763D01*
X132290359Y-98903249D01*
X132153803Y-98886333D01*
X132082967Y-98861072D01*
X132080818Y-98858552D01*
X132062885Y-98832998D01*
X132049731Y-98805928D01*
X132040484Y-98764827D01*
X132034269Y-98697183D01*
X132030213Y-98590481D01*
X132027443Y-98432208D01*
X132025085Y-98209852D01*
X132023473Y-98037159D01*
X132018724Y-97798238D01*
X132009802Y-97586278D01*
X131997726Y-97416724D01*
X131983519Y-97305025D01*
X131972722Y-97269344D01*
X131902595Y-97234174D01*
X131766071Y-97207861D01*
X131590818Y-97191934D01*
X131404503Y-97187920D01*
X131234797Y-97197344D01*
X131109465Y-97221701D01*
X130979632Y-97266334D01*
X130979632Y-98038223D01*
X130977236Y-98349146D01*
X130969784Y-98581620D01*
X130956886Y-98741336D01*
X130938149Y-98833987D01*
X130922978Y-98860658D01*
X130848910Y-98885108D01*
X130709262Y-98901522D01*
X130532479Y-98909599D01*
X130347005Y-98909041D01*
X130181286Y-98899548D01*
X130063766Y-98880820D01*
X130035395Y-98870001D01*
X130017380Y-98850146D01*
X130002390Y-98807752D01*
X129990061Y-98735346D01*
X129980026Y-98625458D01*
X129971921Y-98470617D01*
X129965380Y-98263350D01*
X129960038Y-97996188D01*
X129955530Y-97661659D01*
X129951490Y-97252292D01*
X129950475Y-97133084D01*
X129948035Y-96757995D01*
X129947033Y-96405181D01*
X129947402Y-96084460D01*
X129949074Y-95805648D01*
X129951982Y-95578563D01*
X129956058Y-95413023D01*
X129961235Y-95318846D01*
X129963063Y-95305624D01*
X130008309Y-95201356D01*
X130102617Y-95134240D01*
X130260476Y-95098212D01*
X130484980Y-95087247D01*
X130656034Y-95088529D01*
G36*
X108991813Y-83347108D02*
G01*
X109339165Y-83348231D01*
X109615311Y-83350805D01*
X109831860Y-83355402D01*
X110000419Y-83362596D01*
X110132597Y-83372959D01*
X110240003Y-83387067D01*
X110334246Y-83405491D01*
X110426933Y-83428805D01*
X110471812Y-83441208D01*
X110874959Y-83592650D01*
X111212291Y-83800766D01*
X111479584Y-84062135D01*
X111672613Y-84373332D01*
X111699965Y-84436386D01*
X111715024Y-84476829D01*
X111728298Y-84523143D01*
X111739917Y-84580696D01*
X111750013Y-84654856D01*
X111758715Y-84750991D01*
X111766154Y-84874471D01*
X111772462Y-85030663D01*
X111777769Y-85224935D01*
X111782205Y-85462656D01*
X111785901Y-85749195D01*
X111788988Y-86089919D01*
X111791596Y-86490197D01*
X111793857Y-86955398D01*
X111795900Y-87490889D01*
X111797857Y-88102039D01*
X111799043Y-88506894D01*
X111800762Y-89195208D01*
X111801697Y-89804017D01*
X111801788Y-90338054D01*
X111800978Y-90802058D01*
X111799205Y-91200763D01*
X111796412Y-91538907D01*
X111792539Y-91821225D01*
X111787527Y-92052453D01*
X111781316Y-92237329D01*
X111773848Y-92380587D01*
X111765063Y-92486965D01*
X111754902Y-92561198D01*
X111747982Y-92592797D01*
X111607246Y-92955542D01*
X111394408Y-93263990D01*
X111110120Y-93517549D01*
X110755036Y-93715624D01*
X110371640Y-93846967D01*
X110270474Y-93866670D01*
X110124991Y-93883046D01*
X109926015Y-93896532D01*
X109664372Y-93907567D01*
X109330887Y-93916588D01*
X108916385Y-93924036D01*
X108695618Y-93927058D01*
X108284930Y-93931902D01*
X107957625Y-93934636D01*
X107702681Y-93934864D01*
X107509076Y-93932187D01*
X107365788Y-93926210D01*
X107261797Y-93916534D01*
X107186080Y-93902763D01*
X107127615Y-93884500D01*
X107092019Y-93869280D01*
X106956634Y-93779435D01*
X106842371Y-93660431D01*
X106832354Y-93645865D01*
X106817616Y-93621948D01*
X106804453Y-93594846D01*
X106792762Y-93559869D01*
X106782442Y-93512327D01*
X106773388Y-93447531D01*
X106765499Y-93360792D01*
X106758672Y-93247419D01*
X106752804Y-93102722D01*
X106747793Y-92922013D01*
X106743536Y-92700601D01*
X106739931Y-92433796D01*
X106736874Y-92116909D01*
X106734263Y-91745251D01*
X106731996Y-91314131D01*
X106729970Y-90818859D01*
X106728082Y-90254747D01*
X106726230Y-89617104D01*
X106725403Y-89308438D01*
X108413031Y-89308438D01*
X108413344Y-89855122D01*
X108414100Y-90328357D01*
X108415416Y-90733541D01*
X108417411Y-91076073D01*
X108420205Y-91361350D01*
X108423915Y-91594771D01*
X108428661Y-91781734D01*
X108434560Y-91927637D01*
X108441731Y-92037878D01*
X108450294Y-92117856D01*
X108460365Y-92172968D01*
X108472065Y-92208612D01*
X108485511Y-92230188D01*
X108491074Y-92235794D01*
X108578277Y-92269092D01*
X108736173Y-92290316D01*
X108942102Y-92300046D01*
X109173404Y-92298863D01*
X109407419Y-92287347D01*
X109621488Y-92266078D01*
X109792950Y-92235635D01*
X109893823Y-92199886D01*
X109941633Y-92171948D01*
X109983328Y-92144054D01*
X110019326Y-92110575D01*
X110050042Y-92065880D01*
X110075892Y-92004339D01*
X110097293Y-91920323D01*
X110114661Y-91808202D01*
X110128411Y-91662345D01*
X110138961Y-91477123D01*
X110146726Y-91246906D01*
X110152123Y-90966063D01*
X110155567Y-90628965D01*
X110157475Y-90229982D01*
X110158263Y-89763484D01*
X110158347Y-89223841D01*
X110158149Y-88624084D01*
X110157860Y-88025866D01*
X110157302Y-87506031D01*
X110156323Y-87058714D01*
X110154769Y-86678054D01*
X110152488Y-86358186D01*
X110149325Y-86093248D01*
X110145128Y-85877376D01*
X110139743Y-85704707D01*
X110133018Y-85569378D01*
X110124799Y-85465525D01*
X110114933Y-85387287D01*
X110103266Y-85328799D01*
X110089647Y-85284198D01*
X110073920Y-85247621D01*
X110069708Y-85239173D01*
X110006442Y-85136104D01*
X109927708Y-85062467D01*
X109818057Y-85014010D01*
X109662040Y-84986479D01*
X109444207Y-84975620D01*
X109149112Y-84977181D01*
X109120153Y-84977747D01*
X108875693Y-84983372D01*
X108708568Y-84990605D01*
X108601704Y-85002539D01*
X108538026Y-85022268D01*
X108500460Y-85052886D01*
X108473365Y-85094953D01*
X108462177Y-85132034D01*
X108452364Y-85204283D01*
X108443851Y-85316268D01*
X108436561Y-85472561D01*
X108430416Y-85677728D01*
X108425339Y-85936341D01*
X108421255Y-86252968D01*
X108418086Y-86632179D01*
X108415755Y-87078543D01*
X108414186Y-87596629D01*
X108413301Y-88191007D01*
X108413042Y-88682906D01*
X108413031Y-89308438D01*
X106725403Y-89308438D01*
X106724311Y-88901240D01*
X106723738Y-88682481D01*
X106721903Y-87810872D01*
X106721173Y-87022772D01*
X106721547Y-86318257D01*
X106723025Y-85697403D01*
X106725605Y-85160288D01*
X106729288Y-84706989D01*
X106734072Y-84337581D01*
X106739958Y-84052142D01*
X106746945Y-83850749D01*
X106755031Y-83733477D01*
X106759763Y-83705457D01*
X106815905Y-83571309D01*
X106888933Y-83456185D01*
X106898043Y-83445624D01*
X106987713Y-83346860D01*
X108561646Y-83346860D01*
X108991813Y-83347108D01*
G37*
X108991813Y-83347108D02*
X109339165Y-83348231D01*
X109615311Y-83350805D01*
X109831860Y-83355402D01*
X110000419Y-83362596D01*
X110132597Y-83372959D01*
X110240003Y-83387067D01*
X110334246Y-83405491D01*
X110426933Y-83428805D01*
X110471812Y-83441208D01*
X110874959Y-83592650D01*
X111212291Y-83800766D01*
X111479584Y-84062135D01*
X111672613Y-84373332D01*
X111699965Y-84436386D01*
X111715024Y-84476829D01*
X111728298Y-84523143D01*
X111739917Y-84580696D01*
X111750013Y-84654856D01*
X111758715Y-84750991D01*
X111766154Y-84874471D01*
X111772462Y-85030663D01*
X111777769Y-85224935D01*
X111782205Y-85462656D01*
X111785901Y-85749195D01*
X111788988Y-86089919D01*
X111791596Y-86490197D01*
X111793857Y-86955398D01*
X111795900Y-87490889D01*
X111797857Y-88102039D01*
X111799043Y-88506894D01*
X111800762Y-89195208D01*
X111801697Y-89804017D01*
X111801788Y-90338054D01*
X111800978Y-90802058D01*
X111799205Y-91200763D01*
X111796412Y-91538907D01*
X111792539Y-91821225D01*
X111787527Y-92052453D01*
X111781316Y-92237329D01*
X111773848Y-92380587D01*
X111765063Y-92486965D01*
X111754902Y-92561198D01*
X111747982Y-92592797D01*
X111607246Y-92955542D01*
X111394408Y-93263990D01*
X111110120Y-93517549D01*
X110755036Y-93715624D01*
X110371640Y-93846967D01*
X110270474Y-93866670D01*
X110124991Y-93883046D01*
X109926015Y-93896532D01*
X109664372Y-93907567D01*
X109330887Y-93916588D01*
X108916385Y-93924036D01*
X108695618Y-93927058D01*
X108284930Y-93931902D01*
X107957625Y-93934636D01*
X107702681Y-93934864D01*
X107509076Y-93932187D01*
X107365788Y-93926210D01*
X107261797Y-93916534D01*
X107186080Y-93902763D01*
X107127615Y-93884500D01*
X107092019Y-93869280D01*
X106956634Y-93779435D01*
X106842371Y-93660431D01*
X106832354Y-93645865D01*
X106817616Y-93621948D01*
X106804453Y-93594846D01*
X106792762Y-93559869D01*
X106782442Y-93512327D01*
X106773388Y-93447531D01*
X106765499Y-93360792D01*
X106758672Y-93247419D01*
X106752804Y-93102722D01*
X106747793Y-92922013D01*
X106743536Y-92700601D01*
X106739931Y-92433796D01*
X106736874Y-92116909D01*
X106734263Y-91745251D01*
X106731996Y-91314131D01*
X106729970Y-90818859D01*
X106728082Y-90254747D01*
X106726230Y-89617104D01*
X106725403Y-89308438D01*
X108413031Y-89308438D01*
X108413344Y-89855122D01*
X108414100Y-90328357D01*
X108415416Y-90733541D01*
X108417411Y-91076073D01*
X108420205Y-91361350D01*
X108423915Y-91594771D01*
X108428661Y-91781734D01*
X108434560Y-91927637D01*
X108441731Y-92037878D01*
X108450294Y-92117856D01*
X108460365Y-92172968D01*
X108472065Y-92208612D01*
X108485511Y-92230188D01*
X108491074Y-92235794D01*
X108578277Y-92269092D01*
X108736173Y-92290316D01*
X108942102Y-92300046D01*
X109173404Y-92298863D01*
X109407419Y-92287347D01*
X109621488Y-92266078D01*
X109792950Y-92235635D01*
X109893823Y-92199886D01*
X109941633Y-92171948D01*
X109983328Y-92144054D01*
X110019326Y-92110575D01*
X110050042Y-92065880D01*
X110075892Y-92004339D01*
X110097293Y-91920323D01*
X110114661Y-91808202D01*
X110128411Y-91662345D01*
X110138961Y-91477123D01*
X110146726Y-91246906D01*
X110152123Y-90966063D01*
X110155567Y-90628965D01*
X110157475Y-90229982D01*
X110158263Y-89763484D01*
X110158347Y-89223841D01*
X110158149Y-88624084D01*
X110157860Y-88025866D01*
X110157302Y-87506031D01*
X110156323Y-87058714D01*
X110154769Y-86678054D01*
X110152488Y-86358186D01*
X110149325Y-86093248D01*
X110145128Y-85877376D01*
X110139743Y-85704707D01*
X110133018Y-85569378D01*
X110124799Y-85465525D01*
X110114933Y-85387287D01*
X110103266Y-85328799D01*
X110089647Y-85284198D01*
X110073920Y-85247621D01*
X110069708Y-85239173D01*
X110006442Y-85136104D01*
X109927708Y-85062467D01*
X109818057Y-85014010D01*
X109662040Y-84986479D01*
X109444207Y-84975620D01*
X109149112Y-84977181D01*
X109120153Y-84977747D01*
X108875693Y-84983372D01*
X108708568Y-84990605D01*
X108601704Y-85002539D01*
X108538026Y-85022268D01*
X108500460Y-85052886D01*
X108473365Y-85094953D01*
X108462177Y-85132034D01*
X108452364Y-85204283D01*
X108443851Y-85316268D01*
X108436561Y-85472561D01*
X108430416Y-85677728D01*
X108425339Y-85936341D01*
X108421255Y-86252968D01*
X108418086Y-86632179D01*
X108415755Y-87078543D01*
X108414186Y-87596629D01*
X108413301Y-88191007D01*
X108413042Y-88682906D01*
X108413031Y-89308438D01*
X106725403Y-89308438D01*
X106724311Y-88901240D01*
X106723738Y-88682481D01*
X106721903Y-87810872D01*
X106721173Y-87022772D01*
X106721547Y-86318257D01*
X106723025Y-85697403D01*
X106725605Y-85160288D01*
X106729288Y-84706989D01*
X106734072Y-84337581D01*
X106739958Y-84052142D01*
X106746945Y-83850749D01*
X106755031Y-83733477D01*
X106759763Y-83705457D01*
X106815905Y-83571309D01*
X106888933Y-83456185D01*
X106898043Y-83445624D01*
X106987713Y-83346860D01*
X108561646Y-83346860D01*
X108991813Y-83347108D01*
G36*
X116378659Y-83345566D02*
G01*
X116692193Y-83381484D01*
X116827591Y-83407288D01*
X117280378Y-83541511D01*
X117655475Y-83721349D01*
X117956773Y-83949999D01*
X118188161Y-84230660D01*
X118353530Y-84566528D01*
X118396109Y-84696260D01*
X118434144Y-84869453D01*
X118458711Y-85067414D01*
X118468417Y-85263017D01*
X118461871Y-85429137D01*
X118439153Y-85535355D01*
X118378574Y-85613106D01*
X118266615Y-85668578D01*
X118092168Y-85704287D01*
X117844121Y-85722749D01*
X117593773Y-85726794D01*
X117358460Y-85726092D01*
X117197493Y-85721588D01*
X117090795Y-85709682D01*
X117018289Y-85686777D01*
X116959896Y-85649272D01*
X116906856Y-85603666D01*
X116806636Y-85483563D01*
X116768852Y-85369222D01*
X116740717Y-85221001D01*
X116646668Y-85114263D01*
X116486002Y-85036835D01*
X116283340Y-84990477D01*
X116029678Y-84969157D01*
X115760565Y-84972462D01*
X115511545Y-84999975D01*
X115320217Y-85050446D01*
X115257779Y-85074453D01*
X115203334Y-85096235D01*
X115156337Y-85121387D01*
X115116242Y-85155502D01*
X115082503Y-85204177D01*
X115054575Y-85273005D01*
X115031911Y-85367582D01*
X115013965Y-85493501D01*
X115000192Y-85656358D01*
X114990046Y-85861747D01*
X114982980Y-86115264D01*
X114978450Y-86422502D01*
X114975909Y-86789056D01*
X114974811Y-87220522D01*
X114974611Y-87722494D01*
X114974762Y-88300566D01*
X114974800Y-88590725D01*
X114974876Y-89187176D01*
X114975212Y-89705237D01*
X114975965Y-90150764D01*
X114977293Y-90529614D01*
X114979356Y-90847641D01*
X114982310Y-91110703D01*
X114986314Y-91324654D01*
X114991527Y-91495350D01*
X114998107Y-91628648D01*
X115006211Y-91730403D01*
X115015999Y-91806470D01*
X115027629Y-91862707D01*
X115041258Y-91904968D01*
X115057046Y-91939110D01*
X115065719Y-91954827D01*
X115199528Y-92108193D01*
X115399066Y-92210584D01*
X115669421Y-92263964D01*
X115890994Y-92273295D01*
X116226631Y-92250342D01*
X116482259Y-92184452D01*
X116657362Y-92075901D01*
X116751419Y-91924967D01*
X116768852Y-91803685D01*
X116793706Y-91677805D01*
X116881299Y-91565733D01*
X116919309Y-91532377D01*
X117069767Y-91406979D01*
X117678979Y-91420701D01*
X117930409Y-91427268D01*
X118104991Y-91435544D01*
X118220291Y-91448371D01*
X118293874Y-91468592D01*
X118343308Y-91499048D01*
X118378335Y-91533865D01*
X118441038Y-91658894D01*
X118468524Y-91842721D01*
X118463172Y-92066865D01*
X118427362Y-92312845D01*
X118363472Y-92562179D01*
X118273881Y-92796386D01*
X118197161Y-92941414D01*
X117958316Y-93246391D01*
X117647788Y-93498301D01*
X117269419Y-93694634D01*
X116833321Y-93831439D01*
X116642277Y-93863835D01*
X116388605Y-93890877D01*
X116104019Y-93910782D01*
X115820229Y-93921768D01*
X115568949Y-93922053D01*
X115399707Y-93912015D01*
X114888136Y-93822472D01*
X114444644Y-93674928D01*
X114067617Y-93468221D01*
X113755441Y-93201190D01*
X113506499Y-92872672D01*
X113319177Y-92481508D01*
X113288084Y-92393005D01*
X113273317Y-92342273D01*
X113260370Y-92281015D01*
X113249091Y-92203469D01*
X113239327Y-92103869D01*
X113230925Y-91976453D01*
X113223733Y-91815454D01*
X113217599Y-91615109D01*
X113212369Y-91369654D01*
X113207891Y-91073325D01*
X113204012Y-90720356D01*
X113200579Y-90304984D01*
X113197440Y-89821445D01*
X113194443Y-89263974D01*
X113192076Y-88768025D01*
X113189210Y-88110118D01*
X113187270Y-87530649D01*
X113186616Y-87023814D01*
X113187606Y-86583806D01*
X113190602Y-86204821D01*
X113195961Y-85881054D01*
X113204045Y-85606698D01*
X113215212Y-85375950D01*
X113229823Y-85183002D01*
X113248236Y-85022051D01*
X113270812Y-84887291D01*
X113297910Y-84772916D01*
X113329890Y-84673121D01*
X113367111Y-84582101D01*
X113409933Y-84494051D01*
X113458715Y-84403164D01*
X113462938Y-84395504D01*
X113687409Y-84082140D01*
X113985336Y-83815198D01*
X114347208Y-83600871D01*
X114763516Y-83445353D01*
X115010411Y-83387477D01*
X115305396Y-83348462D01*
X115653164Y-83328705D01*
X116021617Y-83327856D01*
X116378659Y-83345566D01*
G37*
X116378659Y-83345566D02*
X116692193Y-83381484D01*
X116827591Y-83407288D01*
X117280378Y-83541511D01*
X117655475Y-83721349D01*
X117956773Y-83949999D01*
X118188161Y-84230660D01*
X118353530Y-84566528D01*
X118396109Y-84696260D01*
X118434144Y-84869453D01*
X118458711Y-85067414D01*
X118468417Y-85263017D01*
X118461871Y-85429137D01*
X118439153Y-85535355D01*
X118378574Y-85613106D01*
X118266615Y-85668578D01*
X118092168Y-85704287D01*
X117844121Y-85722749D01*
X117593773Y-85726794D01*
X117358460Y-85726092D01*
X117197493Y-85721588D01*
X117090795Y-85709682D01*
X117018289Y-85686777D01*
X116959896Y-85649272D01*
X116906856Y-85603666D01*
X116806636Y-85483563D01*
X116768852Y-85369222D01*
X116740717Y-85221001D01*
X116646668Y-85114263D01*
X116486002Y-85036835D01*
X116283340Y-84990477D01*
X116029678Y-84969157D01*
X115760565Y-84972462D01*
X115511545Y-84999975D01*
X115320217Y-85050446D01*
X115257779Y-85074453D01*
X115203334Y-85096235D01*
X115156337Y-85121387D01*
X115116242Y-85155502D01*
X115082503Y-85204177D01*
X115054575Y-85273005D01*
X115031911Y-85367582D01*
X115013965Y-85493501D01*
X115000192Y-85656358D01*
X114990046Y-85861747D01*
X114982980Y-86115264D01*
X114978450Y-86422502D01*
X114975909Y-86789056D01*
X114974811Y-87220522D01*
X114974611Y-87722494D01*
X114974762Y-88300566D01*
X114974800Y-88590725D01*
X114974876Y-89187176D01*
X114975212Y-89705237D01*
X114975965Y-90150764D01*
X114977293Y-90529614D01*
X114979356Y-90847641D01*
X114982310Y-91110703D01*
X114986314Y-91324654D01*
X114991527Y-91495350D01*
X114998107Y-91628648D01*
X115006211Y-91730403D01*
X115015999Y-91806470D01*
X115027629Y-91862707D01*
X115041258Y-91904968D01*
X115057046Y-91939110D01*
X115065719Y-91954827D01*
X115199528Y-92108193D01*
X115399066Y-92210584D01*
X115669421Y-92263964D01*
X115890994Y-92273295D01*
X116226631Y-92250342D01*
X116482259Y-92184452D01*
X116657362Y-92075901D01*
X116751419Y-91924967D01*
X116768852Y-91803685D01*
X116793706Y-91677805D01*
X116881299Y-91565733D01*
X116919309Y-91532377D01*
X117069767Y-91406979D01*
X117678979Y-91420701D01*
X117930409Y-91427268D01*
X118104991Y-91435544D01*
X118220291Y-91448371D01*
X118293874Y-91468592D01*
X118343308Y-91499048D01*
X118378335Y-91533865D01*
X118441038Y-91658894D01*
X118468524Y-91842721D01*
X118463172Y-92066865D01*
X118427362Y-92312845D01*
X118363472Y-92562179D01*
X118273881Y-92796386D01*
X118197161Y-92941414D01*
X117958316Y-93246391D01*
X117647788Y-93498301D01*
X117269419Y-93694634D01*
X116833321Y-93831439D01*
X116642277Y-93863835D01*
X116388605Y-93890877D01*
X116104019Y-93910782D01*
X115820229Y-93921768D01*
X115568949Y-93922053D01*
X115399707Y-93912015D01*
X114888136Y-93822472D01*
X114444644Y-93674928D01*
X114067617Y-93468221D01*
X113755441Y-93201190D01*
X113506499Y-92872672D01*
X113319177Y-92481508D01*
X113288084Y-92393005D01*
X113273317Y-92342273D01*
X113260370Y-92281015D01*
X113249091Y-92203469D01*
X113239327Y-92103869D01*
X113230925Y-91976453D01*
X113223733Y-91815454D01*
X113217599Y-91615109D01*
X113212369Y-91369654D01*
X113207891Y-91073325D01*
X113204012Y-90720356D01*
X113200579Y-90304984D01*
X113197440Y-89821445D01*
X113194443Y-89263974D01*
X113192076Y-88768025D01*
X113189210Y-88110118D01*
X113187270Y-87530649D01*
X113186616Y-87023814D01*
X113187606Y-86583806D01*
X113190602Y-86204821D01*
X113195961Y-85881054D01*
X113204045Y-85606698D01*
X113215212Y-85375950D01*
X113229823Y-85183002D01*
X113248236Y-85022051D01*
X113270812Y-84887291D01*
X113297910Y-84772916D01*
X113329890Y-84673121D01*
X113367111Y-84582101D01*
X113409933Y-84494051D01*
X113458715Y-84403164D01*
X113462938Y-84395504D01*
X113687409Y-84082140D01*
X113985336Y-83815198D01*
X114347208Y-83600871D01*
X114763516Y-83445353D01*
X115010411Y-83387477D01*
X115305396Y-83348462D01*
X115653164Y-83328705D01*
X116021617Y-83327856D01*
X116378659Y-83345566D01*
G36*
X130531174Y-83329303D02*
G01*
X130801624Y-83340386D01*
X131001615Y-83363599D01*
X131142950Y-83401342D01*
X131237434Y-83456015D01*
X131296870Y-83530021D01*
X131310416Y-83558179D01*
X131319475Y-83622132D01*
X131327651Y-83767705D01*
X131334909Y-83992279D01*
X131341214Y-84293231D01*
X131346532Y-84667941D01*
X131350828Y-85113787D01*
X131354068Y-85628149D01*
X131356217Y-86208404D01*
X131357241Y-86851933D01*
X131357328Y-87116239D01*
X131357328Y-90564213D01*
X131493034Y-90590806D01*
X131622071Y-90640994D01*
X131740897Y-90723860D01*
X131797232Y-90787987D01*
X131832889Y-90864754D01*
X131853843Y-90976272D01*
X131866067Y-91144650D01*
X131868348Y-91195555D01*
X131868736Y-91464137D01*
X131840459Y-91665409D01*
X131777934Y-91813751D01*
X131675578Y-91923545D01*
X131557978Y-91994912D01*
X131357328Y-92093637D01*
X131357328Y-92789670D01*
X131352653Y-93125419D01*
X131334127Y-93386357D01*
X131295000Y-93581682D01*
X131228521Y-93720590D01*
X131127939Y-93812277D01*
X130986502Y-93865942D01*
X130797461Y-93890779D01*
X130554063Y-93895987D01*
X130545267Y-93895932D01*
X130348734Y-93890197D01*
X130177947Y-93877372D01*
X130063484Y-93859956D01*
X130047496Y-93855265D01*
X129952632Y-93794465D01*
X129858607Y-93695090D01*
X129847022Y-93678913D01*
X129811132Y-93618330D01*
X129785562Y-93548535D01*
X129768604Y-93454743D01*
X129758549Y-93322170D01*
X129753687Y-93136032D01*
X129752310Y-92881544D01*
X129752300Y-92859510D01*
X129750530Y-92624336D01*
X129745755Y-92415787D01*
X129738588Y-92249775D01*
X129729645Y-92142211D01*
X129723466Y-92111831D01*
X129705053Y-92091275D01*
X129662542Y-92075357D01*
X129585259Y-92063500D01*
X129462533Y-92055131D01*
X129283690Y-92049671D01*
X129038059Y-92046547D01*
X128714966Y-92045181D01*
X128484154Y-92044967D01*
X128131448Y-92043207D01*
X127807980Y-92038360D01*
X127527741Y-92030866D01*
X127304722Y-92021165D01*
X127152914Y-92009698D01*
X127098602Y-92001394D01*
X126962415Y-91958298D01*
X126864055Y-91898154D01*
X126797644Y-91807920D01*
X126757303Y-91674553D01*
X126737152Y-91485011D01*
X126731313Y-91226253D01*
X126731299Y-91186536D01*
X126737374Y-90921824D01*
X126753619Y-90681844D01*
X126768900Y-90561782D01*
X128432345Y-90561782D01*
X128433454Y-90609411D01*
X128440616Y-90620373D01*
X128509382Y-90633159D01*
X128651567Y-90641995D01*
X128846231Y-90646067D01*
X129066243Y-90644680D01*
X129305401Y-90639469D01*
X129467619Y-90632297D01*
X129570367Y-90619922D01*
X129631118Y-90599105D01*
X129667344Y-90566605D01*
X129691104Y-90528784D01*
X129706515Y-90480487D01*
X129719297Y-90390859D01*
X129729640Y-90253845D01*
X129737734Y-90063391D01*
X129743768Y-89813443D01*
X129747931Y-89497948D01*
X129750414Y-89110852D01*
X129751405Y-88646100D01*
X129751427Y-88601670D01*
X129751251Y-88156645D01*
X129750174Y-87788822D01*
X129747932Y-87491160D01*
X129744260Y-87256617D01*
X129738894Y-87078151D01*
X129731568Y-86948720D01*
X129722020Y-86861284D01*
X129709983Y-86808800D01*
X129695193Y-86784227D01*
X129682966Y-86779862D01*
X129605847Y-86813157D01*
X129568272Y-86855778D01*
X129546463Y-86911096D01*
X129502256Y-87039053D01*
X129438425Y-87231091D01*
X129357743Y-87478654D01*
X129262984Y-87773183D01*
X129156923Y-88106121D01*
X129042333Y-88468910D01*
X128951479Y-88758586D01*
X128809976Y-89213343D01*
X128693512Y-89592933D01*
X128600532Y-89903025D01*
X128529480Y-90149288D01*
X128478802Y-90337390D01*
X128446942Y-90472998D01*
X128432345Y-90561782D01*
X126768900Y-90561782D01*
X126778141Y-90489187D01*
X126796951Y-90402416D01*
X126841348Y-90250841D01*
X126907175Y-90035687D01*
X126992036Y-89764253D01*
X127093531Y-89443842D01*
X127209263Y-89081754D01*
X127336832Y-88685290D01*
X127473841Y-88261750D01*
X127617891Y-87818435D01*
X127766584Y-87362646D01*
X127917522Y-86901684D01*
X128068306Y-86442849D01*
X128216537Y-85993443D01*
X128359818Y-85560766D01*
X128495751Y-85152119D01*
X128621936Y-84774802D01*
X128735976Y-84436117D01*
X128835471Y-84143364D01*
X128918025Y-83903844D01*
X128981238Y-83724858D01*
X129022713Y-83613707D01*
X129038626Y-83578535D01*
X129117667Y-83492969D01*
X129211003Y-83429342D01*
X129333350Y-83384420D01*
X129499421Y-83354969D01*
X129723929Y-83337753D01*
X130021589Y-83329538D01*
X130178462Y-83327948D01*
X130531174Y-83329303D01*
G37*
X130531174Y-83329303D02*
X130801624Y-83340386D01*
X131001615Y-83363599D01*
X131142950Y-83401342D01*
X131237434Y-83456015D01*
X131296870Y-83530021D01*
X131310416Y-83558179D01*
X131319475Y-83622132D01*
X131327651Y-83767705D01*
X131334909Y-83992279D01*
X131341214Y-84293231D01*
X131346532Y-84667941D01*
X131350828Y-85113787D01*
X131354068Y-85628149D01*
X131356217Y-86208404D01*
X131357241Y-86851933D01*
X131357328Y-87116239D01*
X131357328Y-90564213D01*
X131493034Y-90590806D01*
X131622071Y-90640994D01*
X131740897Y-90723860D01*
X131797232Y-90787987D01*
X131832889Y-90864754D01*
X131853843Y-90976272D01*
X131866067Y-91144650D01*
X131868348Y-91195555D01*
X131868736Y-91464137D01*
X131840459Y-91665409D01*
X131777934Y-91813751D01*
X131675578Y-91923545D01*
X131557978Y-91994912D01*
X131357328Y-92093637D01*
X131357328Y-92789670D01*
X131352653Y-93125419D01*
X131334127Y-93386357D01*
X131295000Y-93581682D01*
X131228521Y-93720590D01*
X131127939Y-93812277D01*
X130986502Y-93865942D01*
X130797461Y-93890779D01*
X130554063Y-93895987D01*
X130545267Y-93895932D01*
X130348734Y-93890197D01*
X130177947Y-93877372D01*
X130063484Y-93859956D01*
X130047496Y-93855265D01*
X129952632Y-93794465D01*
X129858607Y-93695090D01*
X129847022Y-93678913D01*
X129811132Y-93618330D01*
X129785562Y-93548535D01*
X129768604Y-93454743D01*
X129758549Y-93322170D01*
X129753687Y-93136032D01*
X129752310Y-92881544D01*
X129752300Y-92859510D01*
X129750530Y-92624336D01*
X129745755Y-92415787D01*
X129738588Y-92249775D01*
X129729645Y-92142211D01*
X129723466Y-92111831D01*
X129705053Y-92091275D01*
X129662542Y-92075357D01*
X129585259Y-92063500D01*
X129462533Y-92055131D01*
X129283690Y-92049671D01*
X129038059Y-92046547D01*
X128714966Y-92045181D01*
X128484154Y-92044967D01*
X128131448Y-92043207D01*
X127807980Y-92038360D01*
X127527741Y-92030866D01*
X127304722Y-92021165D01*
X127152914Y-92009698D01*
X127098602Y-92001394D01*
X126962415Y-91958298D01*
X126864055Y-91898154D01*
X126797644Y-91807920D01*
X126757303Y-91674553D01*
X126737152Y-91485011D01*
X126731313Y-91226253D01*
X126731299Y-91186536D01*
X126737374Y-90921824D01*
X126753619Y-90681844D01*
X126768900Y-90561782D01*
X128432345Y-90561782D01*
X128433454Y-90609411D01*
X128440616Y-90620373D01*
X128509382Y-90633159D01*
X128651567Y-90641995D01*
X128846231Y-90646067D01*
X129066243Y-90644680D01*
X129305401Y-90639469D01*
X129467619Y-90632297D01*
X129570367Y-90619922D01*
X129631118Y-90599105D01*
X129667344Y-90566605D01*
X129691104Y-90528784D01*
X129706515Y-90480487D01*
X129719297Y-90390859D01*
X129729640Y-90253845D01*
X129737734Y-90063391D01*
X129743768Y-89813443D01*
X129747931Y-89497948D01*
X129750414Y-89110852D01*
X129751405Y-88646100D01*
X129751427Y-88601670D01*
X129751251Y-88156645D01*
X129750174Y-87788822D01*
X129747932Y-87491160D01*
X129744260Y-87256617D01*
X129738894Y-87078151D01*
X129731568Y-86948720D01*
X129722020Y-86861284D01*
X129709983Y-86808800D01*
X129695193Y-86784227D01*
X129682966Y-86779862D01*
X129605847Y-86813157D01*
X129568272Y-86855778D01*
X129546463Y-86911096D01*
X129502256Y-87039053D01*
X129438425Y-87231091D01*
X129357743Y-87478654D01*
X129262984Y-87773183D01*
X129156923Y-88106121D01*
X129042333Y-88468910D01*
X128951479Y-88758586D01*
X128809976Y-89213343D01*
X128693512Y-89592933D01*
X128600532Y-89903025D01*
X128529480Y-90149288D01*
X128478802Y-90337390D01*
X128446942Y-90472998D01*
X128432345Y-90561782D01*
X126768900Y-90561782D01*
X126778141Y-90489187D01*
X126796951Y-90402416D01*
X126841348Y-90250841D01*
X126907175Y-90035687D01*
X126992036Y-89764253D01*
X127093531Y-89443842D01*
X127209263Y-89081754D01*
X127336832Y-88685290D01*
X127473841Y-88261750D01*
X127617891Y-87818435D01*
X127766584Y-87362646D01*
X127917522Y-86901684D01*
X128068306Y-86442849D01*
X128216537Y-85993443D01*
X128359818Y-85560766D01*
X128495751Y-85152119D01*
X128621936Y-84774802D01*
X128735976Y-84436117D01*
X128835471Y-84143364D01*
X128918025Y-83903844D01*
X128981238Y-83724858D01*
X129022713Y-83613707D01*
X129038626Y-83578535D01*
X129117667Y-83492969D01*
X129211003Y-83429342D01*
X129333350Y-83384420D01*
X129499421Y-83354969D01*
X129723929Y-83337753D01*
X130021589Y-83329538D01*
X130178462Y-83327948D01*
X130531174Y-83329303D01*
G36*
X136097196Y-83341632D02*
G01*
X136611371Y-83397966D01*
X137055974Y-83509425D01*
X137432478Y-83676593D01*
X137742356Y-83900058D01*
X137987083Y-84180405D01*
X138099451Y-84368713D01*
X138169228Y-84515937D01*
X138224738Y-84664425D01*
X138267519Y-84825999D01*
X138299110Y-85012480D01*
X138321048Y-85235689D01*
X138334871Y-85507446D01*
X138342119Y-85839573D01*
X138344329Y-86243890D01*
X138344332Y-86250565D01*
X138342363Y-86645174D01*
X138334817Y-86965915D01*
X138319674Y-87223104D01*
X138294915Y-87427059D01*
X138258524Y-87588095D01*
X138208480Y-87716531D01*
X138142765Y-87822683D01*
X138059362Y-87916867D01*
X138009131Y-87963825D01*
X137858648Y-88107159D01*
X137773454Y-88223399D01*
X137752541Y-88332961D01*
X137794905Y-88456260D01*
X137899541Y-88613710D01*
X137972453Y-88708513D01*
X138061986Y-88826394D01*
X138134298Y-88935483D01*
X138191412Y-89046531D01*
X138235353Y-89170291D01*
X138268143Y-89317515D01*
X138291806Y-89498954D01*
X138308365Y-89725361D01*
X138319844Y-90007487D01*
X138328267Y-90356083D01*
X138333084Y-90624774D01*
X138338567Y-91114196D01*
X138337232Y-91521333D01*
X138329039Y-91847927D01*
X138313950Y-92095721D01*
X138297621Y-92233843D01*
X138193767Y-92640118D01*
X138020265Y-92989554D01*
X137776651Y-93282647D01*
X137462461Y-93519896D01*
X137077229Y-93701795D01*
X136857514Y-93772231D01*
X136640780Y-93816236D01*
X136357358Y-93850537D01*
X136034501Y-93873945D01*
X135699460Y-93885269D01*
X135379489Y-93883318D01*
X135101839Y-93866902D01*
X134992644Y-93853692D01*
X134516305Y-93748516D01*
X134102502Y-93586401D01*
X133755092Y-93370155D01*
X133477934Y-93102590D01*
X133274887Y-92786516D01*
X133176985Y-92531294D01*
X133128675Y-92305554D01*
X133105039Y-92062758D01*
X133105630Y-91825703D01*
X133129998Y-91617190D01*
X133177695Y-91460015D01*
X133198790Y-91422842D01*
X133265670Y-91339057D01*
X133344209Y-91280638D01*
X133452310Y-91242776D01*
X133607878Y-91220662D01*
X133828815Y-91209486D01*
X134006204Y-91205945D01*
X134506939Y-91198882D01*
X134654685Y-91349017D01*
X134750862Y-91465395D01*
X134817065Y-91579517D01*
X134828866Y-91614217D01*
X134893766Y-91848255D01*
X134973045Y-92013999D01*
X135082074Y-92127396D01*
X135236226Y-92204391D01*
X135450870Y-92260930D01*
X135452593Y-92261286D01*
X135753723Y-92291500D01*
X136026545Y-92257209D01*
X136256921Y-92162896D01*
X136430717Y-92013043D01*
X136483597Y-91934338D01*
X136512388Y-91875020D01*
X136534765Y-91805661D01*
X136551727Y-91714814D01*
X136564269Y-91591035D01*
X136573389Y-91422878D01*
X136580084Y-91198897D01*
X136585351Y-90907646D01*
X136587679Y-90739398D01*
X136591567Y-90417382D01*
X136593194Y-90167920D01*
X136591655Y-89979331D01*
X136586047Y-89839932D01*
X136575463Y-89738041D01*
X136559000Y-89661976D01*
X136535751Y-89600054D01*
X136504813Y-89540593D01*
X136493256Y-89520375D01*
X136425399Y-89417207D01*
X136347750Y-89344600D01*
X136233370Y-89283703D01*
X136060410Y-89217478D01*
X135765046Y-89091215D01*
X135553793Y-88947139D01*
X135416528Y-88772761D01*
X135343128Y-88555594D01*
X135323303Y-88308164D01*
X135346391Y-88076615D01*
X135422322Y-87888999D01*
X135561573Y-87733469D01*
X135774623Y-87598176D01*
X136059243Y-87475987D01*
X136222998Y-87406399D01*
X136350177Y-87327078D01*
X136445271Y-87226921D01*
X136512773Y-87094828D01*
X136557173Y-86919698D01*
X136582964Y-86690428D01*
X136594638Y-86395917D01*
X136596811Y-86147364D01*
X136596118Y-85864412D01*
X136592344Y-85652200D01*
X136584235Y-85497238D01*
X136570539Y-85386039D01*
X136550002Y-85305112D01*
X136521371Y-85240968D01*
X136510901Y-85222791D01*
X136366630Y-85065629D01*
X136155067Y-84964236D01*
X135873803Y-84917630D01*
X135753517Y-84914073D01*
X135433519Y-84932569D01*
X135191016Y-84991322D01*
X135017802Y-85095232D01*
X134905667Y-85249200D01*
X134846827Y-85455302D01*
X134805676Y-85627128D01*
X134736394Y-85744953D01*
X134686170Y-85793334D01*
X134594139Y-85855791D01*
X134528191Y-85876723D01*
X134521294Y-85874648D01*
X134473152Y-85884934D01*
X134462662Y-85902730D01*
X134407643Y-85931517D01*
X134282317Y-85953644D01*
X134110572Y-85968362D01*
X133916292Y-85974919D01*
X133723364Y-85972564D01*
X133555673Y-85960546D01*
X133437104Y-85938116D01*
X133428771Y-85935235D01*
X133289837Y-85840561D01*
X133188634Y-85682216D01*
X133125591Y-85473922D01*
X133101135Y-85229399D01*
X133115691Y-84962368D01*
X133169687Y-84686550D01*
X133263550Y-84415667D01*
X133374776Y-84199908D01*
X133583104Y-83939063D01*
X133861803Y-83726032D01*
X134213110Y-83559914D01*
X134639264Y-83439809D01*
X135142502Y-83364816D01*
X135511974Y-83339836D01*
X136097196Y-83341632D01*
G37*
X136097196Y-83341632D02*
X136611371Y-83397966D01*
X137055974Y-83509425D01*
X137432478Y-83676593D01*
X137742356Y-83900058D01*
X137987083Y-84180405D01*
X138099451Y-84368713D01*
X138169228Y-84515937D01*
X138224738Y-84664425D01*
X138267519Y-84825999D01*
X138299110Y-85012480D01*
X138321048Y-85235689D01*
X138334871Y-85507446D01*
X138342119Y-85839573D01*
X138344329Y-86243890D01*
X138344332Y-86250565D01*
X138342363Y-86645174D01*
X138334817Y-86965915D01*
X138319674Y-87223104D01*
X138294915Y-87427059D01*
X138258524Y-87588095D01*
X138208480Y-87716531D01*
X138142765Y-87822683D01*
X138059362Y-87916867D01*
X138009131Y-87963825D01*
X137858648Y-88107159D01*
X137773454Y-88223399D01*
X137752541Y-88332961D01*
X137794905Y-88456260D01*
X137899541Y-88613710D01*
X137972453Y-88708513D01*
X138061986Y-88826394D01*
X138134298Y-88935483D01*
X138191412Y-89046531D01*
X138235353Y-89170291D01*
X138268143Y-89317515D01*
X138291806Y-89498954D01*
X138308365Y-89725361D01*
X138319844Y-90007487D01*
X138328267Y-90356083D01*
X138333084Y-90624774D01*
X138338567Y-91114196D01*
X138337232Y-91521333D01*
X138329039Y-91847927D01*
X138313950Y-92095721D01*
X138297621Y-92233843D01*
X138193767Y-92640118D01*
X138020265Y-92989554D01*
X137776651Y-93282647D01*
X137462461Y-93519896D01*
X137077229Y-93701795D01*
X136857514Y-93772231D01*
X136640780Y-93816236D01*
X136357358Y-93850537D01*
X136034501Y-93873945D01*
X135699460Y-93885269D01*
X135379489Y-93883318D01*
X135101839Y-93866902D01*
X134992644Y-93853692D01*
X134516305Y-93748516D01*
X134102502Y-93586401D01*
X133755092Y-93370155D01*
X133477934Y-93102590D01*
X133274887Y-92786516D01*
X133176985Y-92531294D01*
X133128675Y-92305554D01*
X133105039Y-92062758D01*
X133105630Y-91825703D01*
X133129998Y-91617190D01*
X133177695Y-91460015D01*
X133198790Y-91422842D01*
X133265670Y-91339057D01*
X133344209Y-91280638D01*
X133452310Y-91242776D01*
X133607878Y-91220662D01*
X133828815Y-91209486D01*
X134006204Y-91205945D01*
X134506939Y-91198882D01*
X134654685Y-91349017D01*
X134750862Y-91465395D01*
X134817065Y-91579517D01*
X134828866Y-91614217D01*
X134893766Y-91848255D01*
X134973045Y-92013999D01*
X135082074Y-92127396D01*
X135236226Y-92204391D01*
X135450870Y-92260930D01*
X135452593Y-92261286D01*
X135753723Y-92291500D01*
X136026545Y-92257209D01*
X136256921Y-92162896D01*
X136430717Y-92013043D01*
X136483597Y-91934338D01*
X136512388Y-91875020D01*
X136534765Y-91805661D01*
X136551727Y-91714814D01*
X136564269Y-91591035D01*
X136573389Y-91422878D01*
X136580084Y-91198897D01*
X136585351Y-90907646D01*
X136587679Y-90739398D01*
X136591567Y-90417382D01*
X136593194Y-90167920D01*
X136591655Y-89979331D01*
X136586047Y-89839932D01*
X136575463Y-89738041D01*
X136559000Y-89661976D01*
X136535751Y-89600054D01*
X136504813Y-89540593D01*
X136493256Y-89520375D01*
X136425399Y-89417207D01*
X136347750Y-89344600D01*
X136233370Y-89283703D01*
X136060410Y-89217478D01*
X135765046Y-89091215D01*
X135553793Y-88947139D01*
X135416528Y-88772761D01*
X135343128Y-88555594D01*
X135323303Y-88308164D01*
X135346391Y-88076615D01*
X135422322Y-87888999D01*
X135561573Y-87733469D01*
X135774623Y-87598176D01*
X136059243Y-87475987D01*
X136222998Y-87406399D01*
X136350177Y-87327078D01*
X136445271Y-87226921D01*
X136512773Y-87094828D01*
X136557173Y-86919698D01*
X136582964Y-86690428D01*
X136594638Y-86395917D01*
X136596811Y-86147364D01*
X136596118Y-85864412D01*
X136592344Y-85652200D01*
X136584235Y-85497238D01*
X136570539Y-85386039D01*
X136550002Y-85305112D01*
X136521371Y-85240968D01*
X136510901Y-85222791D01*
X136366630Y-85065629D01*
X136155067Y-84964236D01*
X135873803Y-84917630D01*
X135753517Y-84914073D01*
X135433519Y-84932569D01*
X135191016Y-84991322D01*
X135017802Y-85095232D01*
X134905667Y-85249200D01*
X134846827Y-85455302D01*
X134805676Y-85627128D01*
X134736394Y-85744953D01*
X134686170Y-85793334D01*
X134594139Y-85855791D01*
X134528191Y-85876723D01*
X134521294Y-85874648D01*
X134473152Y-85884934D01*
X134462662Y-85902730D01*
X134407643Y-85931517D01*
X134282317Y-85953644D01*
X134110572Y-85968362D01*
X133916292Y-85974919D01*
X133723364Y-85972564D01*
X133555673Y-85960546D01*
X133437104Y-85938116D01*
X133428771Y-85935235D01*
X133289837Y-85840561D01*
X133188634Y-85682216D01*
X133125591Y-85473922D01*
X133101135Y-85229399D01*
X133115691Y-84962368D01*
X133169687Y-84686550D01*
X133263550Y-84415667D01*
X133374776Y-84199908D01*
X133583104Y-83939063D01*
X133861803Y-83726032D01*
X134213110Y-83559914D01*
X134639264Y-83439809D01*
X135142502Y-83364816D01*
X135511974Y-83339836D01*
X136097196Y-83341632D01*
G36*
X143383626Y-83332904D02*
G01*
X143682863Y-83336187D01*
X143921356Y-83342682D01*
X144107525Y-83353032D01*
X144249789Y-83367877D01*
X144356568Y-83387861D01*
X144436281Y-83413627D01*
X144497347Y-83445815D01*
X144548185Y-83485069D01*
X144596303Y-83531115D01*
X144649534Y-83628199D01*
X144688707Y-83783110D01*
X144711570Y-83970091D01*
X144715872Y-84163385D01*
X144699360Y-84337236D01*
X144675012Y-84431427D01*
X144645447Y-84510504D01*
X144614823Y-84574602D01*
X144573546Y-84625432D01*
X144512024Y-84664705D01*
X144420666Y-84694134D01*
X144289877Y-84715430D01*
X144110068Y-84730303D01*
X143871644Y-84740466D01*
X143565013Y-84747629D01*
X143180584Y-84753505D01*
X142844723Y-84757972D01*
X142415784Y-84763914D01*
X142071456Y-84769502D01*
X141801935Y-84775350D01*
X141597413Y-84782068D01*
X141448086Y-84790269D01*
X141344148Y-84800564D01*
X141275793Y-84813566D01*
X141233214Y-84829886D01*
X141206607Y-84850137D01*
X141197148Y-84860799D01*
X141173090Y-84908265D01*
X141155192Y-84990685D01*
X141142706Y-85118414D01*
X141134888Y-85301810D01*
X141130990Y-85551231D01*
X141130190Y-85789978D01*
X141130574Y-86109274D01*
X141134597Y-86353484D01*
X141146564Y-86531768D01*
X141170779Y-86653282D01*
X141211547Y-86727186D01*
X141273174Y-86762637D01*
X141359963Y-86768794D01*
X141476221Y-86754815D01*
X141575915Y-86738209D01*
X142000464Y-86707382D01*
X142440032Y-86748903D01*
X142878934Y-86855795D01*
X143301484Y-87021078D01*
X143691995Y-87237775D01*
X144034780Y-87498907D01*
X144314153Y-87797497D01*
X144461941Y-88022067D01*
X144525096Y-88144611D01*
X144577512Y-88268054D01*
X144620019Y-88401143D01*
X144653445Y-88552622D01*
X144678617Y-88731237D01*
X144696366Y-88945735D01*
X144707518Y-89204861D01*
X144712902Y-89517361D01*
X144713347Y-89891981D01*
X144709680Y-90337466D01*
X144706386Y-90602916D01*
X144700073Y-91029595D01*
X144693326Y-91380938D01*
X144685658Y-91665854D01*
X144676582Y-91893253D01*
X144665611Y-92072045D01*
X144652257Y-92211138D01*
X144636033Y-92319442D01*
X144616451Y-92405867D01*
X144605798Y-92441937D01*
X144442220Y-92825057D01*
X144214500Y-93155459D01*
X143928545Y-93426487D01*
X143590264Y-93631486D01*
X143523466Y-93661200D01*
X143125201Y-93789622D01*
X142674740Y-93866275D01*
X142196202Y-93888998D01*
X141713710Y-93855629D01*
X141578703Y-93835523D01*
X141064410Y-93715289D01*
X140620124Y-93539256D01*
X140246449Y-93307913D01*
X139943992Y-93021749D01*
X139713356Y-92681253D01*
X139555148Y-92286912D01*
X139526760Y-92179030D01*
X139490122Y-91923698D01*
X139517378Y-91718701D01*
X139610905Y-91550463D01*
X139643001Y-91514540D01*
X139712875Y-91451276D01*
X139789727Y-91413118D01*
X139901224Y-91391997D01*
X140075037Y-91379845D01*
X140110575Y-91378189D01*
X140477476Y-91389179D01*
X140777051Y-91458492D01*
X141010455Y-91586452D01*
X141080777Y-91649235D01*
X141167277Y-91747579D01*
X141218555Y-91826062D01*
X141224614Y-91847015D01*
X141262606Y-91926401D01*
X141362092Y-92027069D01*
X141501334Y-92130516D01*
X141658594Y-92218240D01*
X141663261Y-92220389D01*
X141888876Y-92289077D01*
X142149067Y-92314302D01*
X142418611Y-92299126D01*
X142672287Y-92246611D01*
X142884870Y-92159821D01*
X143019550Y-92055694D01*
X143043389Y-92025378D01*
X143062798Y-91988298D01*
X143078230Y-91936078D01*
X143090141Y-91860345D01*
X143098983Y-91752725D01*
X143105212Y-91604844D01*
X143109283Y-91408327D01*
X143111648Y-91154801D01*
X143112763Y-90835892D01*
X143113081Y-90443225D01*
X143113090Y-90331459D01*
X143113087Y-89903683D01*
X143112151Y-89551526D01*
X143108888Y-89266363D01*
X143101904Y-89039569D01*
X143089804Y-88862518D01*
X143071197Y-88726586D01*
X143044688Y-88623147D01*
X143008883Y-88543575D01*
X142962389Y-88479246D01*
X142903811Y-88421534D01*
X142831758Y-88361815D01*
X142789339Y-88327779D01*
X142599270Y-88206819D01*
X142394669Y-88148516D01*
X142382014Y-88146744D01*
X142044292Y-88134121D01*
X141746733Y-88187873D01*
X141498282Y-88303009D01*
X141307887Y-88474538D01*
X141184494Y-88697468D01*
X141149386Y-88834371D01*
X141096092Y-88993889D01*
X141018200Y-89075567D01*
X140910374Y-89116999D01*
X140748977Y-89153885D01*
X140554599Y-89184474D01*
X140347831Y-89207018D01*
X140149262Y-89219767D01*
X139979484Y-89220971D01*
X139859087Y-89208881D01*
X139808660Y-89181747D01*
X139808257Y-89178371D01*
X139781318Y-89151165D01*
X139767908Y-89156012D01*
X139712335Y-89143488D01*
X139628495Y-89083750D01*
X139614469Y-89070879D01*
X139501380Y-88963497D01*
X139488522Y-86377222D01*
X139485828Y-85823984D01*
X139484019Y-85348691D01*
X139483637Y-84945046D01*
X139485226Y-84606748D01*
X139489328Y-84327500D01*
X139496487Y-84101001D01*
X139507245Y-83920954D01*
X139522147Y-83781059D01*
X139541734Y-83675018D01*
X139566551Y-83596530D01*
X139597139Y-83539298D01*
X139634043Y-83497023D01*
X139677806Y-83463405D01*
X139728970Y-83432145D01*
X139743167Y-83423852D01*
X139779693Y-83405647D01*
X139827176Y-83390454D01*
X139894138Y-83377945D01*
X139989100Y-83367795D01*
X140120584Y-83359675D01*
X140297113Y-83353261D01*
X140527208Y-83348223D01*
X140819391Y-83344238D01*
X141182184Y-83340976D01*
X141624108Y-83338112D01*
X142037261Y-83335904D01*
X142569245Y-83333405D01*
X143015227Y-83332191D01*
X143383626Y-83332904D01*
G37*
X143383626Y-83332904D02*
X143682863Y-83336187D01*
X143921356Y-83342682D01*
X144107525Y-83353032D01*
X144249789Y-83367877D01*
X144356568Y-83387861D01*
X144436281Y-83413627D01*
X144497347Y-83445815D01*
X144548185Y-83485069D01*
X144596303Y-83531115D01*
X144649534Y-83628199D01*
X144688707Y-83783110D01*
X144711570Y-83970091D01*
X144715872Y-84163385D01*
X144699360Y-84337236D01*
X144675012Y-84431427D01*
X144645447Y-84510504D01*
X144614823Y-84574602D01*
X144573546Y-84625432D01*
X144512024Y-84664705D01*
X144420666Y-84694134D01*
X144289877Y-84715430D01*
X144110068Y-84730303D01*
X143871644Y-84740466D01*
X143565013Y-84747629D01*
X143180584Y-84753505D01*
X142844723Y-84757972D01*
X142415784Y-84763914D01*
X142071456Y-84769502D01*
X141801935Y-84775350D01*
X141597413Y-84782068D01*
X141448086Y-84790269D01*
X141344148Y-84800564D01*
X141275793Y-84813566D01*
X141233214Y-84829886D01*
X141206607Y-84850137D01*
X141197148Y-84860799D01*
X141173090Y-84908265D01*
X141155192Y-84990685D01*
X141142706Y-85118414D01*
X141134888Y-85301810D01*
X141130990Y-85551231D01*
X141130190Y-85789978D01*
X141130574Y-86109274D01*
X141134597Y-86353484D01*
X141146564Y-86531768D01*
X141170779Y-86653282D01*
X141211547Y-86727186D01*
X141273174Y-86762637D01*
X141359963Y-86768794D01*
X141476221Y-86754815D01*
X141575915Y-86738209D01*
X142000464Y-86707382D01*
X142440032Y-86748903D01*
X142878934Y-86855795D01*
X143301484Y-87021078D01*
X143691995Y-87237775D01*
X144034780Y-87498907D01*
X144314153Y-87797497D01*
X144461941Y-88022067D01*
X144525096Y-88144611D01*
X144577512Y-88268054D01*
X144620019Y-88401143D01*
X144653445Y-88552622D01*
X144678617Y-88731237D01*
X144696366Y-88945735D01*
X144707518Y-89204861D01*
X144712902Y-89517361D01*
X144713347Y-89891981D01*
X144709680Y-90337466D01*
X144706386Y-90602916D01*
X144700073Y-91029595D01*
X144693326Y-91380938D01*
X144685658Y-91665854D01*
X144676582Y-91893253D01*
X144665611Y-92072045D01*
X144652257Y-92211138D01*
X144636033Y-92319442D01*
X144616451Y-92405867D01*
X144605798Y-92441937D01*
X144442220Y-92825057D01*
X144214500Y-93155459D01*
X143928545Y-93426487D01*
X143590264Y-93631486D01*
X143523466Y-93661200D01*
X143125201Y-93789622D01*
X142674740Y-93866275D01*
X142196202Y-93888998D01*
X141713710Y-93855629D01*
X141578703Y-93835523D01*
X141064410Y-93715289D01*
X140620124Y-93539256D01*
X140246449Y-93307913D01*
X139943992Y-93021749D01*
X139713356Y-92681253D01*
X139555148Y-92286912D01*
X139526760Y-92179030D01*
X139490122Y-91923698D01*
X139517378Y-91718701D01*
X139610905Y-91550463D01*
X139643001Y-91514540D01*
X139712875Y-91451276D01*
X139789727Y-91413118D01*
X139901224Y-91391997D01*
X140075037Y-91379845D01*
X140110575Y-91378189D01*
X140477476Y-91389179D01*
X140777051Y-91458492D01*
X141010455Y-91586452D01*
X141080777Y-91649235D01*
X141167277Y-91747579D01*
X141218555Y-91826062D01*
X141224614Y-91847015D01*
X141262606Y-91926401D01*
X141362092Y-92027069D01*
X141501334Y-92130516D01*
X141658594Y-92218240D01*
X141663261Y-92220389D01*
X141888876Y-92289077D01*
X142149067Y-92314302D01*
X142418611Y-92299126D01*
X142672287Y-92246611D01*
X142884870Y-92159821D01*
X143019550Y-92055694D01*
X143043389Y-92025378D01*
X143062798Y-91988298D01*
X143078230Y-91936078D01*
X143090141Y-91860345D01*
X143098983Y-91752725D01*
X143105212Y-91604844D01*
X143109283Y-91408327D01*
X143111648Y-91154801D01*
X143112763Y-90835892D01*
X143113081Y-90443225D01*
X143113090Y-90331459D01*
X143113087Y-89903683D01*
X143112151Y-89551526D01*
X143108888Y-89266363D01*
X143101904Y-89039569D01*
X143089804Y-88862518D01*
X143071197Y-88726586D01*
X143044688Y-88623147D01*
X143008883Y-88543575D01*
X142962389Y-88479246D01*
X142903811Y-88421534D01*
X142831758Y-88361815D01*
X142789339Y-88327779D01*
X142599270Y-88206819D01*
X142394669Y-88148516D01*
X142382014Y-88146744D01*
X142044292Y-88134121D01*
X141746733Y-88187873D01*
X141498282Y-88303009D01*
X141307887Y-88474538D01*
X141184494Y-88697468D01*
X141149386Y-88834371D01*
X141096092Y-88993889D01*
X141018200Y-89075567D01*
X140910374Y-89116999D01*
X140748977Y-89153885D01*
X140554599Y-89184474D01*
X140347831Y-89207018D01*
X140149262Y-89219767D01*
X139979484Y-89220971D01*
X139859087Y-89208881D01*
X139808660Y-89181747D01*
X139808257Y-89178371D01*
X139781318Y-89151165D01*
X139767908Y-89156012D01*
X139712335Y-89143488D01*
X139628495Y-89083750D01*
X139614469Y-89070879D01*
X139501380Y-88963497D01*
X139488522Y-86377222D01*
X139485828Y-85823984D01*
X139484019Y-85348691D01*
X139483637Y-84945046D01*
X139485226Y-84606748D01*
X139489328Y-84327500D01*
X139496487Y-84101001D01*
X139507245Y-83920954D01*
X139522147Y-83781059D01*
X139541734Y-83675018D01*
X139566551Y-83596530D01*
X139597139Y-83539298D01*
X139634043Y-83497023D01*
X139677806Y-83463405D01*
X139728970Y-83432145D01*
X139743167Y-83423852D01*
X139779693Y-83405647D01*
X139827176Y-83390454D01*
X139894138Y-83377945D01*
X139989100Y-83367795D01*
X140120584Y-83359675D01*
X140297113Y-83353261D01*
X140527208Y-83348223D01*
X140819391Y-83344238D01*
X141182184Y-83340976D01*
X141624108Y-83338112D01*
X142037261Y-83335904D01*
X142569245Y-83333405D01*
X143015227Y-83332191D01*
X143383626Y-83332904D01*
G36*
X122664577Y-84939303D02*
G01*
X123102097Y-85065834D01*
X123212296Y-85111478D01*
X123510399Y-85274532D01*
X123798973Y-85488874D01*
X124046420Y-85728989D01*
X124167504Y-85882786D01*
X124308982Y-86151972D01*
X124407910Y-86469473D01*
X124460235Y-86807598D01*
X124461905Y-87138660D01*
X124408870Y-87434969D01*
X124399115Y-87465459D01*
X124333840Y-87658973D01*
X124770770Y-87465325D01*
X125207700Y-87271676D01*
X125114304Y-87083300D01*
X125052770Y-86886163D01*
X125079114Y-86719388D01*
X125193526Y-86582096D01*
X125226580Y-86558373D01*
X125392101Y-86485547D01*
X125588837Y-86451911D01*
X125778703Y-86460509D01*
X125907372Y-86503956D01*
X126035350Y-86622616D01*
X126123281Y-86789432D01*
X126155812Y-86971248D01*
X126151450Y-87031092D01*
X126146203Y-87136328D01*
X126186876Y-87197360D01*
X126275976Y-87243212D01*
X126447824Y-87355799D01*
X126567109Y-87510880D01*
X126626609Y-87687130D01*
X126619103Y-87863225D01*
X126538053Y-88017068D01*
X126361986Y-88161659D01*
X126164548Y-88232258D01*
X125962286Y-88228094D01*
X125771744Y-88148394D01*
X125664060Y-88057884D01*
X125565402Y-87953792D01*
X124387215Y-88477337D01*
X123209028Y-89000883D01*
X125131908Y-89857473D01*
X125265604Y-89729779D01*
X125367511Y-89647671D01*
X125456474Y-89600611D01*
X125474783Y-89596819D01*
X125580163Y-89586893D01*
X125609279Y-89583209D01*
X125714193Y-89595592D01*
X125857897Y-89643681D01*
X126003478Y-89712834D01*
X126103637Y-89779322D01*
X126212395Y-89924507D01*
X126242360Y-90100092D01*
X126190306Y-90285963D01*
X126186198Y-90293844D01*
X126088306Y-90426938D01*
X125959459Y-90537160D01*
X125827614Y-90603210D01*
X125767233Y-90613030D01*
X125724025Y-90629410D01*
X125700765Y-90690010D01*
X125692315Y-90812020D01*
X125691900Y-90865101D01*
X125685289Y-91018791D01*
X125657951Y-91121444D01*
X125598627Y-91205846D01*
X125562067Y-91243153D01*
X125444632Y-91330493D01*
X125321365Y-91384486D01*
X125300470Y-91388770D01*
X125138066Y-91384170D01*
X124952786Y-91338373D01*
X124785856Y-91264742D01*
X124689697Y-91190835D01*
X124639704Y-91096109D01*
X124611053Y-90971060D01*
X124607949Y-90850830D01*
X124634601Y-90770562D01*
X124638868Y-90766260D01*
X124677727Y-90700249D01*
X124681518Y-90685525D01*
X124707648Y-90600688D01*
X124720066Y-90570792D01*
X124709187Y-90543075D01*
X124652889Y-90499810D01*
X124544402Y-90437562D01*
X124376957Y-90352894D01*
X124143787Y-90242371D01*
X123838122Y-90102557D01*
X123490174Y-89946490D01*
X123172828Y-89806739D01*
X122882961Y-89682344D01*
X122631179Y-89577597D01*
X122428088Y-89496790D01*
X122284292Y-89444217D01*
X122210397Y-89424170D01*
X122203079Y-89425528D01*
X122154851Y-89454198D01*
X122033148Y-89514891D01*
X121849172Y-89602358D01*
X121614128Y-89711350D01*
X121339220Y-89836618D01*
X121035651Y-89972911D01*
X121017922Y-89980811D01*
X120713837Y-90116541D01*
X120438196Y-90240103D01*
X120202071Y-90346492D01*
X120016535Y-90430702D01*
X119892660Y-90487727D01*
X119841516Y-90512561D01*
X119840966Y-90512948D01*
X119846276Y-90557716D01*
X119884551Y-90648194D01*
X119899981Y-90678172D01*
X119971871Y-90887273D01*
X119956648Y-91070749D01*
X119859530Y-91220609D01*
X119685736Y-91328866D01*
X119440482Y-91387532D01*
X119436324Y-91387989D01*
X119297865Y-91388210D01*
X119194982Y-91369732D01*
X119097432Y-91313815D01*
X118996375Y-91223844D01*
X118990693Y-91217510D01*
X118928510Y-91129085D01*
X118900980Y-91028372D01*
X118899990Y-90882464D01*
X118901551Y-90855881D01*
X118906844Y-90718356D01*
X118896346Y-90645119D01*
X118864073Y-90616669D01*
X118827026Y-90612953D01*
X118748191Y-90592464D01*
X118643168Y-90541928D01*
X118538563Y-90477882D01*
X118460985Y-90416867D01*
X118437042Y-90375422D01*
X118439525Y-90372086D01*
X118431133Y-90329420D01*
X118395414Y-90289086D01*
X118337548Y-90184186D01*
X118334071Y-90044137D01*
X118382585Y-89901094D01*
X118429360Y-89834148D01*
X118547229Y-89735776D01*
X118697938Y-89657392D01*
X118858658Y-89604783D01*
X119006559Y-89583739D01*
X119118812Y-89600046D01*
X119168790Y-89646685D01*
X119222609Y-89685589D01*
X119232040Y-89686330D01*
X119294334Y-89715990D01*
X119360101Y-89775080D01*
X119387602Y-89802743D01*
X119419111Y-89819023D01*
X119465676Y-89820304D01*
X119538343Y-89802973D01*
X119648158Y-89763412D01*
X119806169Y-89698008D01*
X120023422Y-89603145D01*
X120310963Y-89475207D01*
X120405913Y-89432814D01*
X121371176Y-89001797D01*
X120196036Y-88477229D01*
X119020897Y-87952660D01*
X118921733Y-88057318D01*
X118759742Y-88185412D01*
X118583339Y-88235765D01*
X118477610Y-88233061D01*
X118252604Y-88172696D01*
X118083712Y-88058620D01*
X117978009Y-87906433D01*
X117942569Y-87731735D01*
X117984469Y-87550127D01*
X118096045Y-87391732D01*
X118206046Y-87296476D01*
X118310728Y-87231721D01*
X118343908Y-87219852D01*
X118400512Y-87197442D01*
X118431008Y-87148396D01*
X118443147Y-87051455D01*
X118444874Y-86942974D01*
X118449532Y-86795777D01*
X118471968Y-86701659D01*
X118524871Y-86629575D01*
X118599058Y-86565793D01*
X118763226Y-86469242D01*
X118919254Y-86442880D01*
X119120757Y-86467470D01*
X119311056Y-86532044D01*
X119450652Y-86622808D01*
X119458971Y-86631350D01*
X119511545Y-86743731D01*
X119519534Y-86897648D01*
X119483767Y-87060777D01*
X119445844Y-87142542D01*
X119371925Y-87270077D01*
X119681158Y-87406129D01*
X119832995Y-87470339D01*
X119948002Y-87514093D01*
X120004008Y-87529042D01*
X120005823Y-87528413D01*
X120005866Y-87482853D01*
X119987247Y-87385690D01*
X119977778Y-87347336D01*
X119939647Y-87093319D01*
X119939817Y-87020356D01*
X120601677Y-87020356D01*
X120602399Y-87022068D01*
X120738512Y-87304203D01*
X120809296Y-87474764D01*
X120933575Y-87690122D01*
X121121665Y-87900047D01*
X121346701Y-88079582D01*
X121581815Y-88203769D01*
X121602028Y-88211193D01*
X121823823Y-88263339D01*
X122093618Y-88288114D01*
X122379558Y-88286234D01*
X122649787Y-88258414D01*
X122872448Y-88205369D01*
X122932502Y-88181323D01*
X123223686Y-87999779D01*
X123453195Y-87756634D01*
X123616299Y-87457488D01*
X123664307Y-87314922D01*
X123710318Y-87195659D01*
X123764350Y-87114971D01*
X123787607Y-87098945D01*
X123836395Y-87061585D01*
X123809428Y-87022202D01*
X123723599Y-86995043D01*
X123659002Y-86990476D01*
X123553468Y-87006658D01*
X123519751Y-87046470D01*
X123567365Y-87095782D01*
X123608033Y-87163959D01*
X123603475Y-87283682D01*
X123559904Y-87435850D01*
X123483531Y-87601363D01*
X123380569Y-87761119D01*
X123331386Y-87821345D01*
X123227993Y-87921093D01*
X123108107Y-88012279D01*
X122995913Y-88079145D01*
X122915599Y-88105931D01*
X122899352Y-88102842D01*
X122861062Y-88110806D01*
X122859186Y-88122317D01*
X122815751Y-88158728D01*
X122700549Y-88191834D01*
X122536240Y-88218411D01*
X122345481Y-88235238D01*
X122150929Y-88239090D01*
X122063792Y-88235448D01*
X121703335Y-88173000D01*
X121390600Y-88038658D01*
X121131043Y-87835846D01*
X120930118Y-87567990D01*
X120894605Y-87501238D01*
X120812189Y-87312407D01*
X120784760Y-87184040D01*
X120811145Y-87108876D01*
X120829075Y-87095782D01*
X120876960Y-87045825D01*
X120841596Y-87006740D01*
X120734151Y-86990486D01*
X120730717Y-86990476D01*
X120635318Y-86999195D01*
X120601677Y-87020356D01*
X119939817Y-87020356D01*
X119940322Y-86804998D01*
X119978670Y-86524407D01*
X120002473Y-86429961D01*
X120088891Y-86212206D01*
X121052691Y-86212206D01*
X121053785Y-86349402D01*
X121063323Y-86375446D01*
X121165614Y-86511494D01*
X121316491Y-86589078D01*
X121490727Y-86602273D01*
X121663095Y-86545153D01*
X121696128Y-86524069D01*
X121799434Y-86405999D01*
X121812036Y-86341901D01*
X122586182Y-86341901D01*
X122660566Y-86477091D01*
X122691799Y-86507979D01*
X122847750Y-86594654D01*
X123029340Y-86600747D01*
X123186293Y-86549745D01*
X123325645Y-86448776D01*
X123378636Y-86321362D01*
X123343177Y-86179061D01*
X123270667Y-86082974D01*
X123156011Y-85998884D01*
X123009313Y-85971463D01*
X122983661Y-85971106D01*
X122799187Y-86003087D01*
X122665067Y-86087287D01*
X122590873Y-86206096D01*
X122586182Y-86341901D01*
X121812036Y-86341901D01*
X121826552Y-86268068D01*
X121782425Y-86133511D01*
X121671998Y-86025566D01*
X121581431Y-85984898D01*
X121406923Y-85965128D01*
X121248082Y-86005881D01*
X121123731Y-86092970D01*
X121052691Y-86212206D01*
X120088891Y-86212206D01*
X120144523Y-86072026D01*
X120354402Y-85756668D01*
X120610922Y-85493140D01*
X120970562Y-85229049D01*
X121365717Y-85040158D01*
X121786418Y-84927928D01*
X122222694Y-84893822D01*
X122664577Y-84939303D01*
G37*
X122664577Y-84939303D02*
X123102097Y-85065834D01*
X123212296Y-85111478D01*
X123510399Y-85274532D01*
X123798973Y-85488874D01*
X124046420Y-85728989D01*
X124167504Y-85882786D01*
X124308982Y-86151972D01*
X124407910Y-86469473D01*
X124460235Y-86807598D01*
X124461905Y-87138660D01*
X124408870Y-87434969D01*
X124399115Y-87465459D01*
X124333840Y-87658973D01*
X124770770Y-87465325D01*
X125207700Y-87271676D01*
X125114304Y-87083300D01*
X125052770Y-86886163D01*
X125079114Y-86719388D01*
X125193526Y-86582096D01*
X125226580Y-86558373D01*
X125392101Y-86485547D01*
X125588837Y-86451911D01*
X125778703Y-86460509D01*
X125907372Y-86503956D01*
X126035350Y-86622616D01*
X126123281Y-86789432D01*
X126155812Y-86971248D01*
X126151450Y-87031092D01*
X126146203Y-87136328D01*
X126186876Y-87197360D01*
X126275976Y-87243212D01*
X126447824Y-87355799D01*
X126567109Y-87510880D01*
X126626609Y-87687130D01*
X126619103Y-87863225D01*
X126538053Y-88017068D01*
X126361986Y-88161659D01*
X126164548Y-88232258D01*
X125962286Y-88228094D01*
X125771744Y-88148394D01*
X125664060Y-88057884D01*
X125565402Y-87953792D01*
X124387215Y-88477337D01*
X123209028Y-89000883D01*
X125131908Y-89857473D01*
X125265604Y-89729779D01*
X125367511Y-89647671D01*
X125456474Y-89600611D01*
X125474783Y-89596819D01*
X125580163Y-89586893D01*
X125609279Y-89583209D01*
X125714193Y-89595592D01*
X125857897Y-89643681D01*
X126003478Y-89712834D01*
X126103637Y-89779322D01*
X126212395Y-89924507D01*
X126242360Y-90100092D01*
X126190306Y-90285963D01*
X126186198Y-90293844D01*
X126088306Y-90426938D01*
X125959459Y-90537160D01*
X125827614Y-90603210D01*
X125767233Y-90613030D01*
X125724025Y-90629410D01*
X125700765Y-90690010D01*
X125692315Y-90812020D01*
X125691900Y-90865101D01*
X125685289Y-91018791D01*
X125657951Y-91121444D01*
X125598627Y-91205846D01*
X125562067Y-91243153D01*
X125444632Y-91330493D01*
X125321365Y-91384486D01*
X125300470Y-91388770D01*
X125138066Y-91384170D01*
X124952786Y-91338373D01*
X124785856Y-91264742D01*
X124689697Y-91190835D01*
X124639704Y-91096109D01*
X124611053Y-90971060D01*
X124607949Y-90850830D01*
X124634601Y-90770562D01*
X124638868Y-90766260D01*
X124677727Y-90700249D01*
X124681518Y-90685525D01*
X124707648Y-90600688D01*
X124720066Y-90570792D01*
X124709187Y-90543075D01*
X124652889Y-90499810D01*
X124544402Y-90437562D01*
X124376957Y-90352894D01*
X124143787Y-90242371D01*
X123838122Y-90102557D01*
X123490174Y-89946490D01*
X123172828Y-89806739D01*
X122882961Y-89682344D01*
X122631179Y-89577597D01*
X122428088Y-89496790D01*
X122284292Y-89444217D01*
X122210397Y-89424170D01*
X122203079Y-89425528D01*
X122154851Y-89454198D01*
X122033148Y-89514891D01*
X121849172Y-89602358D01*
X121614128Y-89711350D01*
X121339220Y-89836618D01*
X121035651Y-89972911D01*
X121017922Y-89980811D01*
X120713837Y-90116541D01*
X120438196Y-90240103D01*
X120202071Y-90346492D01*
X120016535Y-90430702D01*
X119892660Y-90487727D01*
X119841516Y-90512561D01*
X119840966Y-90512948D01*
X119846276Y-90557716D01*
X119884551Y-90648194D01*
X119899981Y-90678172D01*
X119971871Y-90887273D01*
X119956648Y-91070749D01*
X119859530Y-91220609D01*
X119685736Y-91328866D01*
X119440482Y-91387532D01*
X119436324Y-91387989D01*
X119297865Y-91388210D01*
X119194982Y-91369732D01*
X119097432Y-91313815D01*
X118996375Y-91223844D01*
X118990693Y-91217510D01*
X118928510Y-91129085D01*
X118900980Y-91028372D01*
X118899990Y-90882464D01*
X118901551Y-90855881D01*
X118906844Y-90718356D01*
X118896346Y-90645119D01*
X118864073Y-90616669D01*
X118827026Y-90612953D01*
X118748191Y-90592464D01*
X118643168Y-90541928D01*
X118538563Y-90477882D01*
X118460985Y-90416867D01*
X118437042Y-90375422D01*
X118439525Y-90372086D01*
X118431133Y-90329420D01*
X118395414Y-90289086D01*
X118337548Y-90184186D01*
X118334071Y-90044137D01*
X118382585Y-89901094D01*
X118429360Y-89834148D01*
X118547229Y-89735776D01*
X118697938Y-89657392D01*
X118858658Y-89604783D01*
X119006559Y-89583739D01*
X119118812Y-89600046D01*
X119168790Y-89646685D01*
X119222609Y-89685589D01*
X119232040Y-89686330D01*
X119294334Y-89715990D01*
X119360101Y-89775080D01*
X119387602Y-89802743D01*
X119419111Y-89819023D01*
X119465676Y-89820304D01*
X119538343Y-89802973D01*
X119648158Y-89763412D01*
X119806169Y-89698008D01*
X120023422Y-89603145D01*
X120310963Y-89475207D01*
X120405913Y-89432814D01*
X121371176Y-89001797D01*
X120196036Y-88477229D01*
X119020897Y-87952660D01*
X118921733Y-88057318D01*
X118759742Y-88185412D01*
X118583339Y-88235765D01*
X118477610Y-88233061D01*
X118252604Y-88172696D01*
X118083712Y-88058620D01*
X117978009Y-87906433D01*
X117942569Y-87731735D01*
X117984469Y-87550127D01*
X118096045Y-87391732D01*
X118206046Y-87296476D01*
X118310728Y-87231721D01*
X118343908Y-87219852D01*
X118400512Y-87197442D01*
X118431008Y-87148396D01*
X118443147Y-87051455D01*
X118444874Y-86942974D01*
X118449532Y-86795777D01*
X118471968Y-86701659D01*
X118524871Y-86629575D01*
X118599058Y-86565793D01*
X118763226Y-86469242D01*
X118919254Y-86442880D01*
X119120757Y-86467470D01*
X119311056Y-86532044D01*
X119450652Y-86622808D01*
X119458971Y-86631350D01*
X119511545Y-86743731D01*
X119519534Y-86897648D01*
X119483767Y-87060777D01*
X119445844Y-87142542D01*
X119371925Y-87270077D01*
X119681158Y-87406129D01*
X119832995Y-87470339D01*
X119948002Y-87514093D01*
X120004008Y-87529042D01*
X120005823Y-87528413D01*
X120005866Y-87482853D01*
X119987247Y-87385690D01*
X119977778Y-87347336D01*
X119939647Y-87093319D01*
X119939817Y-87020356D01*
X120601677Y-87020356D01*
X120602399Y-87022068D01*
X120738512Y-87304203D01*
X120809296Y-87474764D01*
X120933575Y-87690122D01*
X121121665Y-87900047D01*
X121346701Y-88079582D01*
X121581815Y-88203769D01*
X121602028Y-88211193D01*
X121823823Y-88263339D01*
X122093618Y-88288114D01*
X122379558Y-88286234D01*
X122649787Y-88258414D01*
X122872448Y-88205369D01*
X122932502Y-88181323D01*
X123223686Y-87999779D01*
X123453195Y-87756634D01*
X123616299Y-87457488D01*
X123664307Y-87314922D01*
X123710318Y-87195659D01*
X123764350Y-87114971D01*
X123787607Y-87098945D01*
X123836395Y-87061585D01*
X123809428Y-87022202D01*
X123723599Y-86995043D01*
X123659002Y-86990476D01*
X123553468Y-87006658D01*
X123519751Y-87046470D01*
X123567365Y-87095782D01*
X123608033Y-87163959D01*
X123603475Y-87283682D01*
X123559904Y-87435850D01*
X123483531Y-87601363D01*
X123380569Y-87761119D01*
X123331386Y-87821345D01*
X123227993Y-87921093D01*
X123108107Y-88012279D01*
X122995913Y-88079145D01*
X122915599Y-88105931D01*
X122899352Y-88102842D01*
X122861062Y-88110806D01*
X122859186Y-88122317D01*
X122815751Y-88158728D01*
X122700549Y-88191834D01*
X122536240Y-88218411D01*
X122345481Y-88235238D01*
X122150929Y-88239090D01*
X122063792Y-88235448D01*
X121703335Y-88173000D01*
X121390600Y-88038658D01*
X121131043Y-87835846D01*
X120930118Y-87567990D01*
X120894605Y-87501238D01*
X120812189Y-87312407D01*
X120784760Y-87184040D01*
X120811145Y-87108876D01*
X120829075Y-87095782D01*
X120876960Y-87045825D01*
X120841596Y-87006740D01*
X120734151Y-86990486D01*
X120730717Y-86990476D01*
X120635318Y-86999195D01*
X120601677Y-87020356D01*
X119939817Y-87020356D01*
X119940322Y-86804998D01*
X119978670Y-86524407D01*
X120002473Y-86429961D01*
X120088891Y-86212206D01*
X121052691Y-86212206D01*
X121053785Y-86349402D01*
X121063323Y-86375446D01*
X121165614Y-86511494D01*
X121316491Y-86589078D01*
X121490727Y-86602273D01*
X121663095Y-86545153D01*
X121696128Y-86524069D01*
X121799434Y-86405999D01*
X121812036Y-86341901D01*
X122586182Y-86341901D01*
X122660566Y-86477091D01*
X122691799Y-86507979D01*
X122847750Y-86594654D01*
X123029340Y-86600747D01*
X123186293Y-86549745D01*
X123325645Y-86448776D01*
X123378636Y-86321362D01*
X123343177Y-86179061D01*
X123270667Y-86082974D01*
X123156011Y-85998884D01*
X123009313Y-85971463D01*
X122983661Y-85971106D01*
X122799187Y-86003087D01*
X122665067Y-86087287D01*
X122590873Y-86206096D01*
X122586182Y-86341901D01*
X121812036Y-86341901D01*
X121826552Y-86268068D01*
X121782425Y-86133511D01*
X121671998Y-86025566D01*
X121581431Y-85984898D01*
X121406923Y-85965128D01*
X121248082Y-86005881D01*
X121123731Y-86092970D01*
X121052691Y-86212206D01*
X120088891Y-86212206D01*
X120144523Y-86072026D01*
X120354402Y-85756668D01*
X120610922Y-85493140D01*
X120970562Y-85229049D01*
X121365717Y-85040158D01*
X121786418Y-84927928D01*
X122222694Y-84893822D01*
X122664577Y-84939303D01*
G36*
X106159704Y-96323724D02*
G01*
X106308800Y-96392000D01*
X106411866Y-96503761D01*
X106467706Y-96619540D01*
X106507891Y-96797644D01*
X106480340Y-96962558D01*
X106379041Y-97134808D01*
X106284182Y-97246104D01*
X106045513Y-97533446D01*
X105870114Y-97818736D01*
X105768700Y-98047119D01*
X105701167Y-98228682D01*
X105674860Y-98344967D01*
X105700805Y-98410516D01*
X105790030Y-98439871D01*
X105953563Y-98447577D01*
X106072571Y-98447855D01*
X106269995Y-98452972D01*
X106418002Y-98466911D01*
X106496340Y-98487559D01*
X106502158Y-98492711D01*
X106514999Y-98561470D01*
X106505194Y-98670036D01*
X106502414Y-98684122D01*
X106471598Y-98830677D01*
X105880882Y-98824291D01*
X105636007Y-98821127D01*
X105468932Y-98815906D01*
X105363040Y-98805652D01*
X105301714Y-98787388D01*
X105268336Y-98758140D01*
X105246289Y-98714931D01*
X105244307Y-98710291D01*
X105220820Y-98574014D01*
X105233987Y-98382808D01*
X105278990Y-98157431D01*
X105351010Y-97918640D01*
X105445228Y-97687189D01*
X105511836Y-97557958D01*
X105600334Y-97424341D01*
X105725393Y-97262446D01*
X105860425Y-97106630D01*
X105864540Y-97102206D01*
X105998233Y-96948002D01*
X106066960Y-96839571D01*
X106076801Y-96767197D01*
X106075917Y-96764521D01*
X106007530Y-96682860D01*
X105899711Y-96657803D01*
X105780198Y-96686743D01*
X105676729Y-96767071D01*
X105650787Y-96804488D01*
X105575834Y-96890236D01*
X105465843Y-96914734D01*
X105438046Y-96914313D01*
X105305158Y-96888374D01*
X105242308Y-96816209D01*
X105242748Y-96687930D01*
X105252731Y-96642831D01*
X105329775Y-96486819D01*
X105460223Y-96365039D01*
X105618301Y-96299311D01*
X105664886Y-96293883D01*
X105949943Y-96292997D01*
X106159704Y-96323724D01*
G37*
X106159704Y-96323724D02*
X106308800Y-96392000D01*
X106411866Y-96503761D01*
X106467706Y-96619540D01*
X106507891Y-96797644D01*
X106480340Y-96962558D01*
X106379041Y-97134808D01*
X106284182Y-97246104D01*
X106045513Y-97533446D01*
X105870114Y-97818736D01*
X105768700Y-98047119D01*
X105701167Y-98228682D01*
X105674860Y-98344967D01*
X105700805Y-98410516D01*
X105790030Y-98439871D01*
X105953563Y-98447577D01*
X106072571Y-98447855D01*
X106269995Y-98452972D01*
X106418002Y-98466911D01*
X106496340Y-98487559D01*
X106502158Y-98492711D01*
X106514999Y-98561470D01*
X106505194Y-98670036D01*
X106502414Y-98684122D01*
X106471598Y-98830677D01*
X105880882Y-98824291D01*
X105636007Y-98821127D01*
X105468932Y-98815906D01*
X105363040Y-98805652D01*
X105301714Y-98787388D01*
X105268336Y-98758140D01*
X105246289Y-98714931D01*
X105244307Y-98710291D01*
X105220820Y-98574014D01*
X105233987Y-98382808D01*
X105278990Y-98157431D01*
X105351010Y-97918640D01*
X105445228Y-97687189D01*
X105511836Y-97557958D01*
X105600334Y-97424341D01*
X105725393Y-97262446D01*
X105860425Y-97106630D01*
X105864540Y-97102206D01*
X105998233Y-96948002D01*
X106066960Y-96839571D01*
X106076801Y-96767197D01*
X106075917Y-96764521D01*
X106007530Y-96682860D01*
X105899711Y-96657803D01*
X105780198Y-96686743D01*
X105676729Y-96767071D01*
X105650787Y-96804488D01*
X105575834Y-96890236D01*
X105465843Y-96914734D01*
X105438046Y-96914313D01*
X105305158Y-96888374D01*
X105242308Y-96816209D01*
X105242748Y-96687930D01*
X105252731Y-96642831D01*
X105329775Y-96486819D01*
X105460223Y-96365039D01*
X105618301Y-96299311D01*
X105664886Y-96293883D01*
X105949943Y-96292997D01*
X106159704Y-96323724D01*
G36*
X107604004Y-96303730D02*
G01*
X107782664Y-96372564D01*
X107910100Y-96480350D01*
X107942335Y-96536217D01*
X107955891Y-96609166D01*
X107967818Y-96752025D01*
X107977461Y-96950463D01*
X107984171Y-97190148D01*
X107987295Y-97456750D01*
X107987439Y-97528063D01*
X107986331Y-97836341D01*
X107982390Y-98072546D01*
X107974686Y-98248833D01*
X107962293Y-98377356D01*
X107944283Y-98470270D01*
X107919729Y-98539730D01*
X107908486Y-98562509D01*
X107786536Y-98700078D01*
X107605992Y-98787724D01*
X107388141Y-98820445D01*
X107154268Y-98793239D01*
X107056398Y-98762743D01*
X106967626Y-98723776D01*
X106898474Y-98674614D01*
X106846519Y-98605008D01*
X106809342Y-98504712D01*
X106784522Y-98363477D01*
X106769636Y-98171057D01*
X106762265Y-97917204D01*
X106759988Y-97591670D01*
X106759930Y-97507867D01*
X106760403Y-97200563D01*
X106762526Y-96965979D01*
X106767355Y-96792589D01*
X106772464Y-96719018D01*
X107137625Y-96719018D01*
X107137625Y-97510880D01*
X107139975Y-97826707D01*
X107148564Y-98067931D01*
X107165697Y-98244120D01*
X107193683Y-98364844D01*
X107234829Y-98439670D01*
X107291441Y-98478168D01*
X107365826Y-98489907D01*
X107373685Y-98489978D01*
X107466050Y-98457776D01*
X107536249Y-98396360D01*
X107562986Y-98348175D01*
X107582618Y-98273732D01*
X107596126Y-98161197D01*
X107604493Y-97998734D01*
X107608701Y-97774509D01*
X107609744Y-97510880D01*
X107609744Y-96719018D01*
X107491714Y-96671037D01*
X107359503Y-96644557D01*
X107255655Y-96671037D01*
X107137625Y-96719018D01*
X106772464Y-96719018D01*
X106775947Y-96668867D01*
X106789357Y-96583290D01*
X106808643Y-96524333D01*
X106834859Y-96480469D01*
X106856501Y-96454158D01*
X107000368Y-96349064D01*
X107188887Y-96290169D01*
X107398089Y-96275662D01*
X107604004Y-96303730D01*
G37*
X107604004Y-96303730D02*
X107782664Y-96372564D01*
X107910100Y-96480350D01*
X107942335Y-96536217D01*
X107955891Y-96609166D01*
X107967818Y-96752025D01*
X107977461Y-96950463D01*
X107984171Y-97190148D01*
X107987295Y-97456750D01*
X107987439Y-97528063D01*
X107986331Y-97836341D01*
X107982390Y-98072546D01*
X107974686Y-98248833D01*
X107962293Y-98377356D01*
X107944283Y-98470270D01*
X107919729Y-98539730D01*
X107908486Y-98562509D01*
X107786536Y-98700078D01*
X107605992Y-98787724D01*
X107388141Y-98820445D01*
X107154268Y-98793239D01*
X107056398Y-98762743D01*
X106967626Y-98723776D01*
X106898474Y-98674614D01*
X106846519Y-98605008D01*
X106809342Y-98504712D01*
X106784522Y-98363477D01*
X106769636Y-98171057D01*
X106762265Y-97917204D01*
X106759988Y-97591670D01*
X106759930Y-97507867D01*
X106760403Y-97200563D01*
X106762526Y-96965979D01*
X106767355Y-96792589D01*
X106772464Y-96719018D01*
X107137625Y-96719018D01*
X107137625Y-97510880D01*
X107139975Y-97826707D01*
X107148564Y-98067931D01*
X107165697Y-98244120D01*
X107193683Y-98364844D01*
X107234829Y-98439670D01*
X107291441Y-98478168D01*
X107365826Y-98489907D01*
X107373685Y-98489978D01*
X107466050Y-98457776D01*
X107536249Y-98396360D01*
X107562986Y-98348175D01*
X107582618Y-98273732D01*
X107596126Y-98161197D01*
X107604493Y-97998734D01*
X107608701Y-97774509D01*
X107609744Y-97510880D01*
X107609744Y-96719018D01*
X107491714Y-96671037D01*
X107359503Y-96644557D01*
X107255655Y-96671037D01*
X107137625Y-96719018D01*
X106772464Y-96719018D01*
X106775947Y-96668867D01*
X106789357Y-96583290D01*
X106808643Y-96524333D01*
X106834859Y-96480469D01*
X106856501Y-96454158D01*
X107000368Y-96349064D01*
X107188887Y-96290169D01*
X107398089Y-96275662D01*
X107604004Y-96303730D01*
G36*
X110968907Y-96254017D02*
G01*
X110968907Y-98771796D01*
X110791610Y-98787234D01*
X110650235Y-98784049D01*
X110591197Y-98747160D01*
X110584148Y-98690747D01*
X110576926Y-98562623D01*
X110569952Y-98375319D01*
X110563649Y-98141367D01*
X110558438Y-97873301D01*
X110556040Y-97703640D01*
X110544000Y-96715632D01*
X110429774Y-96691597D01*
X110331371Y-96637609D01*
X110298525Y-96554148D01*
X110302098Y-96475145D01*
X110353549Y-96409574D01*
X110471792Y-96333561D01*
X110474490Y-96332039D01*
X110669371Y-96250454D01*
X110818192Y-96238681D01*
X110968907Y-96254017D01*
G37*
X110968907Y-96254017D02*
X110968907Y-98771796D01*
X110791610Y-98787234D01*
X110650235Y-98784049D01*
X110591197Y-98747160D01*
X110584148Y-98690747D01*
X110576926Y-98562623D01*
X110569952Y-98375319D01*
X110563649Y-98141367D01*
X110558438Y-97873301D01*
X110556040Y-97703640D01*
X110544000Y-96715632D01*
X110429774Y-96691597D01*
X110331371Y-96637609D01*
X110298525Y-96554148D01*
X110302098Y-96475145D01*
X110353549Y-96409574D01*
X110471792Y-96333561D01*
X110474490Y-96332039D01*
X110669371Y-96250454D01*
X110818192Y-96238681D01*
X110968907Y-96254017D01*
D11*
G36*
X147558627Y-98158663D02*
G01*
X147729695Y-98229522D01*
X147729697Y-98229523D01*
X147807198Y-98281308D01*
X147883654Y-98332394D01*
X148014586Y-98463326D01*
X148117458Y-98617285D01*
X148188317Y-98788353D01*
X148224440Y-98969957D01*
X148224440Y-99155123D01*
X148188317Y-99336727D01*
X148117458Y-99507795D01*
X148117457Y-99507797D01*
X148014585Y-99661755D01*
X147883655Y-99792685D01*
X147729697Y-99895557D01*
X147729696Y-99895558D01*
X147729695Y-99895558D01*
X147558627Y-99966417D01*
X147377023Y-100002540D01*
X147191857Y-100002540D01*
X147010253Y-99966417D01*
X146839185Y-99895558D01*
X146839184Y-99895558D01*
X146839183Y-99895557D01*
X146685225Y-99792685D01*
X146554295Y-99661755D01*
X146451423Y-99507797D01*
X146451422Y-99507795D01*
X146380563Y-99336727D01*
X146344440Y-99155123D01*
X146344440Y-98969957D01*
X146380563Y-98788353D01*
X146451422Y-98617285D01*
X146554294Y-98463326D01*
X146685226Y-98332394D01*
X146761682Y-98281308D01*
X146839183Y-98229523D01*
X146839185Y-98229522D01*
X147010253Y-98158663D01*
X147191857Y-98122540D01*
X147377023Y-98122540D01*
X147558627Y-98158663D01*
G37*
G36*
X145018627Y-98158663D02*
G01*
X145189695Y-98229522D01*
X145189697Y-98229523D01*
X145267198Y-98281308D01*
X145343654Y-98332394D01*
X145474586Y-98463326D01*
X145577458Y-98617285D01*
X145648317Y-98788353D01*
X145684440Y-98969957D01*
X145684440Y-99155123D01*
X145648317Y-99336727D01*
X145577458Y-99507795D01*
X145577457Y-99507797D01*
X145474585Y-99661755D01*
X145343655Y-99792685D01*
X145189697Y-99895557D01*
X145189696Y-99895558D01*
X145189695Y-99895558D01*
X145018627Y-99966417D01*
X144837023Y-100002540D01*
X144651857Y-100002540D01*
X144470253Y-99966417D01*
X144299185Y-99895558D01*
X144299184Y-99895558D01*
X144299183Y-99895557D01*
X144145225Y-99792685D01*
X144014295Y-99661755D01*
X143911423Y-99507797D01*
X143911422Y-99507795D01*
X143840563Y-99336727D01*
X143804440Y-99155123D01*
X143804440Y-98969957D01*
X143840563Y-98788353D01*
X143911422Y-98617285D01*
X144014294Y-98463326D01*
X144145226Y-98332394D01*
X144221682Y-98281308D01*
X144299183Y-98229523D01*
X144299185Y-98229522D01*
X144470253Y-98158663D01*
X144651857Y-98122540D01*
X144837023Y-98122540D01*
X145018627Y-98158663D01*
G37*
G36*
X106918627Y-98158663D02*
G01*
X107089695Y-98229522D01*
X107089697Y-98229523D01*
X107167198Y-98281308D01*
X107243654Y-98332394D01*
X107374586Y-98463326D01*
X107477458Y-98617285D01*
X107548317Y-98788353D01*
X107584440Y-98969957D01*
X107584440Y-99155123D01*
X107548317Y-99336727D01*
X107477458Y-99507795D01*
X107477457Y-99507797D01*
X107374585Y-99661755D01*
X107243655Y-99792685D01*
X107089697Y-99895557D01*
X107089696Y-99895558D01*
X107089695Y-99895558D01*
X106918627Y-99966417D01*
X106737023Y-100002540D01*
X106551857Y-100002540D01*
X106370253Y-99966417D01*
X106199185Y-99895558D01*
X106199184Y-99895558D01*
X106199183Y-99895557D01*
X106045225Y-99792685D01*
X105914295Y-99661755D01*
X105811423Y-99507797D01*
X105811422Y-99507795D01*
X105740563Y-99336727D01*
X105704440Y-99155123D01*
X105704440Y-98969957D01*
X105740563Y-98788353D01*
X105811422Y-98617285D01*
X105914294Y-98463326D01*
X106045226Y-98332394D01*
X106121682Y-98281308D01*
X106199183Y-98229523D01*
X106199185Y-98229522D01*
X106370253Y-98158663D01*
X106551857Y-98122540D01*
X106737023Y-98122540D01*
X106918627Y-98158663D01*
G37*
G36*
X104378627Y-98158663D02*
G01*
X104549695Y-98229522D01*
X104549697Y-98229523D01*
X104627198Y-98281308D01*
X104703654Y-98332394D01*
X104834586Y-98463326D01*
X104937458Y-98617285D01*
X105008317Y-98788353D01*
X105044440Y-98969957D01*
X105044440Y-99155123D01*
X105008317Y-99336727D01*
X104937458Y-99507795D01*
X104937457Y-99507797D01*
X104834585Y-99661755D01*
X104703655Y-99792685D01*
X104549697Y-99895557D01*
X104549696Y-99895558D01*
X104549695Y-99895558D01*
X104378627Y-99966417D01*
X104197023Y-100002540D01*
X104011857Y-100002540D01*
X103830253Y-99966417D01*
X103659185Y-99895558D01*
X103659184Y-99895558D01*
X103659183Y-99895557D01*
X103505225Y-99792685D01*
X103374295Y-99661755D01*
X103271423Y-99507797D01*
X103271422Y-99507795D01*
X103200563Y-99336727D01*
X103164440Y-99155123D01*
X103164440Y-98969957D01*
X103200563Y-98788353D01*
X103271422Y-98617285D01*
X103374294Y-98463326D01*
X103505226Y-98332394D01*
X103581682Y-98281308D01*
X103659183Y-98229523D01*
X103659185Y-98229522D01*
X103830253Y-98158663D01*
X104011857Y-98122540D01*
X104197023Y-98122540D01*
X104378627Y-98158663D01*
G37*
G36*
X117024011Y-88763665D02*
G01*
X117057989Y-88773973D01*
X117089310Y-88790714D01*
X117116759Y-88813241D01*
X117139286Y-88840690D01*
X117156027Y-88872011D01*
X117166335Y-88905989D01*
X117170420Y-88947470D01*
X117170420Y-89548690D01*
X117166335Y-89590171D01*
X117156027Y-89624149D01*
X117139286Y-89655470D01*
X117116759Y-89682919D01*
X117089310Y-89705446D01*
X117057989Y-89722187D01*
X117024011Y-89732495D01*
X116982530Y-89736580D01*
X116306310Y-89736580D01*
X116264829Y-89732495D01*
X116230851Y-89722187D01*
X116199530Y-89705446D01*
X116172081Y-89682919D01*
X116149554Y-89655470D01*
X116132813Y-89624149D01*
X116122505Y-89590171D01*
X116118420Y-89548690D01*
X116118420Y-88947470D01*
X116122505Y-88905989D01*
X116132813Y-88872011D01*
X116149554Y-88840690D01*
X116172081Y-88813241D01*
X116199530Y-88790714D01*
X116230851Y-88773973D01*
X116264829Y-88763665D01*
X116306310Y-88759580D01*
X116982530Y-88759580D01*
X117024011Y-88763665D01*
G37*
G36*
X133724511Y-88738265D02*
G01*
X133758489Y-88748573D01*
X133789810Y-88765314D01*
X133817259Y-88787841D01*
X133839786Y-88815290D01*
X133856527Y-88846611D01*
X133866835Y-88880589D01*
X133870920Y-88922070D01*
X133870920Y-89523290D01*
X133866835Y-89564771D01*
X133856527Y-89598749D01*
X133839786Y-89630070D01*
X133817259Y-89657519D01*
X133789810Y-89680046D01*
X133758489Y-89696787D01*
X133724511Y-89707095D01*
X133683030Y-89711180D01*
X133006810Y-89711180D01*
X132965329Y-89707095D01*
X132931351Y-89696787D01*
X132900030Y-89680046D01*
X132872581Y-89657519D01*
X132850054Y-89630070D01*
X132833313Y-89598749D01*
X132823005Y-89564771D01*
X132818920Y-89523290D01*
X132818920Y-88922070D01*
X132823005Y-88880589D01*
X132833313Y-88846611D01*
X132850054Y-88815290D01*
X132872581Y-88787841D01*
X132900030Y-88765314D01*
X132931351Y-88748573D01*
X132965329Y-88738265D01*
X133006810Y-88734180D01*
X133683030Y-88734180D01*
X133724511Y-88738265D01*
G37*
G36*
X146576911Y-88738265D02*
G01*
X146610889Y-88748573D01*
X146642210Y-88765314D01*
X146669659Y-88787841D01*
X146692186Y-88815290D01*
X146708927Y-88846611D01*
X146719235Y-88880589D01*
X146723320Y-88922070D01*
X146723320Y-89523290D01*
X146719235Y-89564771D01*
X146708927Y-89598749D01*
X146692186Y-89630070D01*
X146669659Y-89657519D01*
X146642210Y-89680046D01*
X146610889Y-89696787D01*
X146576911Y-89707095D01*
X146535430Y-89711180D01*
X145859210Y-89711180D01*
X145817729Y-89707095D01*
X145783751Y-89696787D01*
X145752430Y-89680046D01*
X145724981Y-89657519D01*
X145702454Y-89630070D01*
X145685713Y-89598749D01*
X145675405Y-89564771D01*
X145671320Y-89523290D01*
X145671320Y-88922070D01*
X145675405Y-88880589D01*
X145685713Y-88846611D01*
X145702454Y-88815290D01*
X145724981Y-88787841D01*
X145752430Y-88765314D01*
X145783751Y-88748573D01*
X145817729Y-88738265D01*
X145859210Y-88734180D01*
X146535430Y-88734180D01*
X146576911Y-88738265D01*
G37*
G36*
X105621951Y-88466485D02*
G01*
X105655929Y-88476793D01*
X105687250Y-88493534D01*
X105714699Y-88516061D01*
X105737226Y-88543510D01*
X105753967Y-88574831D01*
X105764275Y-88608809D01*
X105768360Y-88650290D01*
X105768360Y-89251510D01*
X105764275Y-89292991D01*
X105753967Y-89326969D01*
X105737226Y-89358290D01*
X105714699Y-89385739D01*
X105687250Y-89408266D01*
X105655929Y-89425007D01*
X105621951Y-89435315D01*
X105580470Y-89439400D01*
X104904250Y-89439400D01*
X104862769Y-89435315D01*
X104828791Y-89425007D01*
X104797470Y-89408266D01*
X104770021Y-89385739D01*
X104747494Y-89358290D01*
X104730753Y-89326969D01*
X104720445Y-89292991D01*
X104716360Y-89251510D01*
X104716360Y-88650290D01*
X104720445Y-88608809D01*
X104730753Y-88574831D01*
X104747494Y-88543510D01*
X104770021Y-88516061D01*
X104797470Y-88493534D01*
X104828791Y-88476793D01*
X104862769Y-88466485D01*
X104904250Y-88462400D01*
X105580470Y-88462400D01*
X105621951Y-88466485D01*
G37*
G36*
X117024011Y-87188665D02*
G01*
X117057989Y-87198973D01*
X117089310Y-87215714D01*
X117116759Y-87238241D01*
X117139286Y-87265690D01*
X117156027Y-87297011D01*
X117166335Y-87330989D01*
X117170420Y-87372470D01*
X117170420Y-87973690D01*
X117166335Y-88015171D01*
X117156027Y-88049149D01*
X117139286Y-88080470D01*
X117116759Y-88107919D01*
X117089310Y-88130446D01*
X117057989Y-88147187D01*
X117024011Y-88157495D01*
X116982530Y-88161580D01*
X116306310Y-88161580D01*
X116264829Y-88157495D01*
X116230851Y-88147187D01*
X116199530Y-88130446D01*
X116172081Y-88107919D01*
X116149554Y-88080470D01*
X116132813Y-88049149D01*
X116122505Y-88015171D01*
X116118420Y-87973690D01*
X116118420Y-87372470D01*
X116122505Y-87330989D01*
X116132813Y-87297011D01*
X116149554Y-87265690D01*
X116172081Y-87238241D01*
X116199530Y-87215714D01*
X116230851Y-87198973D01*
X116264829Y-87188665D01*
X116306310Y-87184580D01*
X116982530Y-87184580D01*
X117024011Y-87188665D01*
G37*
G36*
X146576911Y-87163265D02*
G01*
X146610889Y-87173573D01*
X146642210Y-87190314D01*
X146669659Y-87212841D01*
X146692186Y-87240290D01*
X146708927Y-87271611D01*
X146719235Y-87305589D01*
X146723320Y-87347070D01*
X146723320Y-87948290D01*
X146719235Y-87989771D01*
X146708927Y-88023749D01*
X146692186Y-88055070D01*
X146669659Y-88082519D01*
X146642210Y-88105046D01*
X146610889Y-88121787D01*
X146576911Y-88132095D01*
X146535430Y-88136180D01*
X145859210Y-88136180D01*
X145817729Y-88132095D01*
X145783751Y-88121787D01*
X145752430Y-88105046D01*
X145724981Y-88082519D01*
X145702454Y-88055070D01*
X145685713Y-88023749D01*
X145675405Y-87989771D01*
X145671320Y-87948290D01*
X145671320Y-87347070D01*
X145675405Y-87305589D01*
X145685713Y-87271611D01*
X145702454Y-87240290D01*
X145724981Y-87212841D01*
X145752430Y-87190314D01*
X145783751Y-87173573D01*
X145817729Y-87163265D01*
X145859210Y-87159180D01*
X146535430Y-87159180D01*
X146576911Y-87163265D01*
G37*
G36*
X133724511Y-87163265D02*
G01*
X133758489Y-87173573D01*
X133789810Y-87190314D01*
X133817259Y-87212841D01*
X133839786Y-87240290D01*
X133856527Y-87271611D01*
X133866835Y-87305589D01*
X133870920Y-87347070D01*
X133870920Y-87948290D01*
X133866835Y-87989771D01*
X133856527Y-88023749D01*
X133839786Y-88055070D01*
X133817259Y-88082519D01*
X133789810Y-88105046D01*
X133758489Y-88121787D01*
X133724511Y-88132095D01*
X133683030Y-88136180D01*
X133006810Y-88136180D01*
X132965329Y-88132095D01*
X132931351Y-88121787D01*
X132900030Y-88105046D01*
X132872581Y-88082519D01*
X132850054Y-88055070D01*
X132833313Y-88023749D01*
X132823005Y-87989771D01*
X132818920Y-87948290D01*
X132818920Y-87347070D01*
X132823005Y-87305589D01*
X132833313Y-87271611D01*
X132850054Y-87240290D01*
X132872581Y-87212841D01*
X132900030Y-87190314D01*
X132931351Y-87173573D01*
X132965329Y-87163265D01*
X133006810Y-87159180D01*
X133683030Y-87159180D01*
X133724511Y-87163265D01*
G37*
G36*
X105621951Y-86891485D02*
G01*
X105655929Y-86901793D01*
X105687250Y-86918534D01*
X105714699Y-86941061D01*
X105737226Y-86968510D01*
X105753967Y-86999831D01*
X105764275Y-87033809D01*
X105768360Y-87075290D01*
X105768360Y-87676510D01*
X105764275Y-87717991D01*
X105753967Y-87751969D01*
X105737226Y-87783290D01*
X105714699Y-87810739D01*
X105687250Y-87833266D01*
X105655929Y-87850007D01*
X105621951Y-87860315D01*
X105580470Y-87864400D01*
X104904250Y-87864400D01*
X104862769Y-87860315D01*
X104828791Y-87850007D01*
X104797470Y-87833266D01*
X104770021Y-87810739D01*
X104747494Y-87783290D01*
X104730753Y-87751969D01*
X104720445Y-87717991D01*
X104716360Y-87676510D01*
X104716360Y-87075290D01*
X104720445Y-87033809D01*
X104730753Y-86999831D01*
X104747494Y-86968510D01*
X104770021Y-86941061D01*
X104797470Y-86918534D01*
X104828791Y-86901793D01*
X104862769Y-86891485D01*
X104904250Y-86887400D01*
X105580470Y-86887400D01*
X105621951Y-86891485D01*
G37*
G36*
X122465243Y-81451145D02*
G01*
X122495703Y-81460386D01*
X122523783Y-81475394D01*
X122548391Y-81495589D01*
X122568586Y-81520197D01*
X122583594Y-81548277D01*
X122592835Y-81578737D01*
X122596560Y-81616560D01*
X122596560Y-82330280D01*
X122592835Y-82368103D01*
X122583594Y-82398563D01*
X122568586Y-82426643D01*
X122548391Y-82451251D01*
X122523783Y-82471446D01*
X122495703Y-82486454D01*
X122465243Y-82495695D01*
X122427420Y-82499420D01*
X121863700Y-82499420D01*
X121825877Y-82495695D01*
X121795417Y-82486454D01*
X121767337Y-82471446D01*
X121742729Y-82451251D01*
X121722534Y-82426643D01*
X121707526Y-82398563D01*
X121698285Y-82368103D01*
X121694560Y-82330280D01*
X121694560Y-81616560D01*
X121698285Y-81578737D01*
X121707526Y-81548277D01*
X121722534Y-81520197D01*
X121742729Y-81495589D01*
X121767337Y-81475394D01*
X121795417Y-81460386D01*
X121825877Y-81451145D01*
X121863700Y-81447420D01*
X122427420Y-81447420D01*
X122465243Y-81451145D01*
G37*
G36*
X120815243Y-81451145D02*
G01*
X120845703Y-81460386D01*
X120873783Y-81475394D01*
X120898391Y-81495589D01*
X120918586Y-81520197D01*
X120933594Y-81548277D01*
X120942835Y-81578737D01*
X120946560Y-81616560D01*
X120946560Y-82330280D01*
X120942835Y-82368103D01*
X120933594Y-82398563D01*
X120918586Y-82426643D01*
X120898391Y-82451251D01*
X120873783Y-82471446D01*
X120845703Y-82486454D01*
X120815243Y-82495695D01*
X120777420Y-82499420D01*
X120213700Y-82499420D01*
X120175877Y-82495695D01*
X120145417Y-82486454D01*
X120117337Y-82471446D01*
X120092729Y-82451251D01*
X120072534Y-82426643D01*
X120057526Y-82398563D01*
X120048285Y-82368103D01*
X120044560Y-82330280D01*
X120044560Y-81616560D01*
X120048285Y-81578737D01*
X120057526Y-81548277D01*
X120072534Y-81520197D01*
X120092729Y-81495589D01*
X120117337Y-81475394D01*
X120145417Y-81460386D01*
X120175877Y-81451145D01*
X120213700Y-81447420D01*
X120777420Y-81447420D01*
X120815243Y-81451145D01*
G37*
G36*
X127260763Y-81329225D02*
G01*
X127291223Y-81338466D01*
X127319303Y-81353474D01*
X127343911Y-81373669D01*
X127364106Y-81398277D01*
X127379114Y-81426357D01*
X127388355Y-81456817D01*
X127392080Y-81494640D01*
X127392080Y-82208360D01*
X127388355Y-82246183D01*
X127379114Y-82276643D01*
X127364106Y-82304723D01*
X127343911Y-82329331D01*
X127319303Y-82349526D01*
X127291223Y-82364534D01*
X127260763Y-82373775D01*
X127222940Y-82377500D01*
X126659220Y-82377500D01*
X126621397Y-82373775D01*
X126590937Y-82364534D01*
X126562857Y-82349526D01*
X126538249Y-82329331D01*
X126518054Y-82304723D01*
X126503046Y-82276643D01*
X126493805Y-82246183D01*
X126490080Y-82208360D01*
X126490080Y-81494640D01*
X126493805Y-81456817D01*
X126503046Y-81426357D01*
X126518054Y-81398277D01*
X126538249Y-81373669D01*
X126562857Y-81353474D01*
X126590937Y-81338466D01*
X126621397Y-81329225D01*
X126659220Y-81325500D01*
X127222940Y-81325500D01*
X127260763Y-81329225D01*
G37*
G36*
X125610763Y-81329225D02*
G01*
X125641223Y-81338466D01*
X125669303Y-81353474D01*
X125693911Y-81373669D01*
X125714106Y-81398277D01*
X125729114Y-81426357D01*
X125738355Y-81456817D01*
X125742080Y-81494640D01*
X125742080Y-82208360D01*
X125738355Y-82246183D01*
X125729114Y-82276643D01*
X125714106Y-82304723D01*
X125693911Y-82329331D01*
X125669303Y-82349526D01*
X125641223Y-82364534D01*
X125610763Y-82373775D01*
X125572940Y-82377500D01*
X125009220Y-82377500D01*
X124971397Y-82373775D01*
X124940937Y-82364534D01*
X124912857Y-82349526D01*
X124888249Y-82329331D01*
X124868054Y-82304723D01*
X124853046Y-82276643D01*
X124843805Y-82246183D01*
X124840080Y-82208360D01*
X124840080Y-81494640D01*
X124843805Y-81456817D01*
X124853046Y-81426357D01*
X124868054Y-81398277D01*
X124888249Y-81373669D01*
X124912857Y-81353474D01*
X124940937Y-81338466D01*
X124971397Y-81329225D01*
X125009220Y-81325500D01*
X125572940Y-81325500D01*
X125610763Y-81329225D01*
G37*
G36*
X116940743Y-81329225D02*
G01*
X116971203Y-81338466D01*
X116999283Y-81353474D01*
X117023891Y-81373669D01*
X117044086Y-81398277D01*
X117059094Y-81426357D01*
X117068335Y-81456817D01*
X117072060Y-81494640D01*
X117072060Y-82208360D01*
X117068335Y-82246183D01*
X117059094Y-82276643D01*
X117044086Y-82304723D01*
X117023891Y-82329331D01*
X116999283Y-82349526D01*
X116971203Y-82364534D01*
X116940743Y-82373775D01*
X116902920Y-82377500D01*
X116339200Y-82377500D01*
X116301377Y-82373775D01*
X116270917Y-82364534D01*
X116242837Y-82349526D01*
X116218229Y-82329331D01*
X116198034Y-82304723D01*
X116183026Y-82276643D01*
X116173785Y-82246183D01*
X116170060Y-82208360D01*
X116170060Y-81494640D01*
X116173785Y-81456817D01*
X116183026Y-81426357D01*
X116198034Y-81398277D01*
X116218229Y-81373669D01*
X116242837Y-81353474D01*
X116270917Y-81338466D01*
X116301377Y-81329225D01*
X116339200Y-81325500D01*
X116902920Y-81325500D01*
X116940743Y-81329225D01*
G37*
G36*
X115290743Y-81329225D02*
G01*
X115321203Y-81338466D01*
X115349283Y-81353474D01*
X115373891Y-81373669D01*
X115394086Y-81398277D01*
X115409094Y-81426357D01*
X115418335Y-81456817D01*
X115422060Y-81494640D01*
X115422060Y-82208360D01*
X115418335Y-82246183D01*
X115409094Y-82276643D01*
X115394086Y-82304723D01*
X115373891Y-82329331D01*
X115349283Y-82349526D01*
X115321203Y-82364534D01*
X115290743Y-82373775D01*
X115252920Y-82377500D01*
X114689200Y-82377500D01*
X114651377Y-82373775D01*
X114620917Y-82364534D01*
X114592837Y-82349526D01*
X114568229Y-82329331D01*
X114548034Y-82304723D01*
X114533026Y-82276643D01*
X114523785Y-82246183D01*
X114520060Y-82208360D01*
X114520060Y-81494640D01*
X114523785Y-81456817D01*
X114533026Y-81426357D01*
X114548034Y-81398277D01*
X114568229Y-81373669D01*
X114592837Y-81353474D01*
X114620917Y-81338466D01*
X114651377Y-81329225D01*
X114689200Y-81325500D01*
X115252920Y-81325500D01*
X115290743Y-81329225D01*
G37*
G36*
X130708543Y-81268265D02*
G01*
X130739003Y-81277506D01*
X130767083Y-81292514D01*
X130791691Y-81312709D01*
X130811886Y-81337317D01*
X130826894Y-81365397D01*
X130836135Y-81395857D01*
X130839860Y-81433680D01*
X130839860Y-82147400D01*
X130836135Y-82185223D01*
X130826894Y-82215683D01*
X130811886Y-82243763D01*
X130791691Y-82268371D01*
X130767083Y-82288566D01*
X130739003Y-82303574D01*
X130708543Y-82312815D01*
X130670720Y-82316540D01*
X130107000Y-82316540D01*
X130069177Y-82312815D01*
X130038717Y-82303574D01*
X130010637Y-82288566D01*
X129986029Y-82268371D01*
X129965834Y-82243763D01*
X129950826Y-82215683D01*
X129941585Y-82185223D01*
X129937860Y-82147400D01*
X129937860Y-81433680D01*
X129941585Y-81395857D01*
X129950826Y-81365397D01*
X129965834Y-81337317D01*
X129986029Y-81312709D01*
X130010637Y-81292514D01*
X130038717Y-81277506D01*
X130069177Y-81268265D01*
X130107000Y-81264540D01*
X130670720Y-81264540D01*
X130708543Y-81268265D01*
G37*
G36*
X132358543Y-81268265D02*
G01*
X132389003Y-81277506D01*
X132417083Y-81292514D01*
X132441691Y-81312709D01*
X132461886Y-81337317D01*
X132476894Y-81365397D01*
X132486135Y-81395857D01*
X132489860Y-81433680D01*
X132489860Y-82147400D01*
X132486135Y-82185223D01*
X132476894Y-82215683D01*
X132461886Y-82243763D01*
X132441691Y-82268371D01*
X132417083Y-82288566D01*
X132389003Y-82303574D01*
X132358543Y-82312815D01*
X132320720Y-82316540D01*
X131757000Y-82316540D01*
X131719177Y-82312815D01*
X131688717Y-82303574D01*
X131660637Y-82288566D01*
X131636029Y-82268371D01*
X131615834Y-82243763D01*
X131600826Y-82215683D01*
X131591585Y-82185223D01*
X131587860Y-82147400D01*
X131587860Y-81433680D01*
X131591585Y-81395857D01*
X131600826Y-81365397D01*
X131615834Y-81337317D01*
X131636029Y-81312709D01*
X131660637Y-81292514D01*
X131688717Y-81277506D01*
X131719177Y-81268265D01*
X131757000Y-81264540D01*
X132320720Y-81264540D01*
X132358543Y-81268265D01*
G37*
G36*
X104378627Y-80378663D02*
G01*
X104549695Y-80449522D01*
X104549697Y-80449523D01*
X104627198Y-80501308D01*
X104703654Y-80552394D01*
X104834586Y-80683326D01*
X104937458Y-80837285D01*
X105008317Y-81008353D01*
X105044440Y-81189957D01*
X105044440Y-81375123D01*
X105008317Y-81556727D01*
X104960188Y-81672920D01*
X104937457Y-81727797D01*
X104834585Y-81881755D01*
X104703655Y-82012685D01*
X104549697Y-82115557D01*
X104549696Y-82115558D01*
X104549695Y-82115558D01*
X104378627Y-82186417D01*
X104197023Y-82222540D01*
X104011857Y-82222540D01*
X103830253Y-82186417D01*
X103659185Y-82115558D01*
X103659184Y-82115558D01*
X103659183Y-82115557D01*
X103505225Y-82012685D01*
X103374295Y-81881755D01*
X103271423Y-81727797D01*
X103248692Y-81672920D01*
X103200563Y-81556727D01*
X103164440Y-81375123D01*
X103164440Y-81189957D01*
X103200563Y-81008353D01*
X103271422Y-80837285D01*
X103374294Y-80683326D01*
X103505226Y-80552394D01*
X103581682Y-80501308D01*
X103659183Y-80449523D01*
X103659185Y-80449522D01*
X103830253Y-80378663D01*
X104011857Y-80342540D01*
X104197023Y-80342540D01*
X104378627Y-80378663D01*
G37*
G36*
X145018627Y-80378663D02*
G01*
X145189695Y-80449522D01*
X145189697Y-80449523D01*
X145267198Y-80501308D01*
X145343654Y-80552394D01*
X145474586Y-80683326D01*
X145577458Y-80837285D01*
X145648317Y-81008353D01*
X145684440Y-81189957D01*
X145684440Y-81375123D01*
X145648317Y-81556727D01*
X145600188Y-81672920D01*
X145577457Y-81727797D01*
X145474585Y-81881755D01*
X145343655Y-82012685D01*
X145189697Y-82115557D01*
X145189696Y-82115558D01*
X145189695Y-82115558D01*
X145018627Y-82186417D01*
X144837023Y-82222540D01*
X144651857Y-82222540D01*
X144470253Y-82186417D01*
X144299185Y-82115558D01*
X144299184Y-82115558D01*
X144299183Y-82115557D01*
X144145225Y-82012685D01*
X144014295Y-81881755D01*
X143911423Y-81727797D01*
X143888692Y-81672920D01*
X143840563Y-81556727D01*
X143804440Y-81375123D01*
X143804440Y-81189957D01*
X143840563Y-81008353D01*
X143911422Y-80837285D01*
X144014294Y-80683326D01*
X144145226Y-80552394D01*
X144221682Y-80501308D01*
X144299183Y-80449523D01*
X144299185Y-80449522D01*
X144470253Y-80378663D01*
X144651857Y-80342540D01*
X144837023Y-80342540D01*
X145018627Y-80378663D01*
G37*
G36*
X147558627Y-80378663D02*
G01*
X147729695Y-80449522D01*
X147729697Y-80449523D01*
X147807198Y-80501308D01*
X147883654Y-80552394D01*
X148014586Y-80683326D01*
X148117458Y-80837285D01*
X148188317Y-81008353D01*
X148224440Y-81189957D01*
X148224440Y-81375123D01*
X148188317Y-81556727D01*
X148140188Y-81672920D01*
X148117457Y-81727797D01*
X148014585Y-81881755D01*
X147883655Y-82012685D01*
X147729697Y-82115557D01*
X147729696Y-82115558D01*
X147729695Y-82115558D01*
X147558627Y-82186417D01*
X147377023Y-82222540D01*
X147191857Y-82222540D01*
X147010253Y-82186417D01*
X146839185Y-82115558D01*
X146839184Y-82115558D01*
X146839183Y-82115557D01*
X146685225Y-82012685D01*
X146554295Y-81881755D01*
X146451423Y-81727797D01*
X146428692Y-81672920D01*
X146380563Y-81556727D01*
X146344440Y-81375123D01*
X146344440Y-81189957D01*
X146380563Y-81008353D01*
X146451422Y-80837285D01*
X146554294Y-80683326D01*
X146685226Y-80552394D01*
X146761682Y-80501308D01*
X146839183Y-80449523D01*
X146839185Y-80449522D01*
X147010253Y-80378663D01*
X147191857Y-80342540D01*
X147377023Y-80342540D01*
X147558627Y-80378663D01*
G37*
G36*
X106918627Y-80378663D02*
G01*
X107089695Y-80449522D01*
X107089697Y-80449523D01*
X107167198Y-80501308D01*
X107243654Y-80552394D01*
X107374586Y-80683326D01*
X107477458Y-80837285D01*
X107548317Y-81008353D01*
X107584440Y-81189957D01*
X107584440Y-81375123D01*
X107548317Y-81556727D01*
X107500188Y-81672920D01*
X107477457Y-81727797D01*
X107374585Y-81881755D01*
X107243655Y-82012685D01*
X107089697Y-82115557D01*
X107089696Y-82115558D01*
X107089695Y-82115558D01*
X106918627Y-82186417D01*
X106737023Y-82222540D01*
X106551857Y-82222540D01*
X106370253Y-82186417D01*
X106199185Y-82115558D01*
X106199184Y-82115558D01*
X106199183Y-82115557D01*
X106045225Y-82012685D01*
X105914295Y-81881755D01*
X105811423Y-81727797D01*
X105788692Y-81672920D01*
X105740563Y-81556727D01*
X105704440Y-81375123D01*
X105704440Y-81189957D01*
X105740563Y-81008353D01*
X105811422Y-80837285D01*
X105914294Y-80683326D01*
X106045226Y-80552394D01*
X106121682Y-80501308D01*
X106199183Y-80449523D01*
X106199185Y-80449522D01*
X106370253Y-80378663D01*
X106551857Y-80342540D01*
X106737023Y-80342540D01*
X106918627Y-80378663D01*
G37*
M02*
