G04 #@! TF.GenerationSoftware,KiCad,Pcbnew,(5.1.5-0-10_14)*
G04 #@! TF.CreationDate,2021-09-19T20:31:28-06:00*
G04 #@! TF.ProjectId,2021DC435,32303231-4443-4343-9335-2e6b69636164,rev?*
G04 #@! TF.SameCoordinates,Original*
G04 #@! TF.FileFunction,Copper,L1,Top*
G04 #@! TF.FilePolarity,Positive*
%FSLAX46Y46*%
G04 Gerber Fmt 4.6, Leading zero omitted, Abs format (unit mm)*
G04 Created by KiCad (PCBNEW (5.1.5-0-10_14)) date 2021-09-19 20:31:28*
%MOMM*%
%LPD*%
G04 APERTURE LIST*
%ADD10C,0.010000*%
%ADD11C,1.778000*%
%ADD12C,0.800000*%
%ADD13C,0.250000*%
G04 APERTURE END LIST*
D10*
G36*
X122659497Y-84952003D02*
G01*
X123097017Y-85078534D01*
X123207216Y-85124178D01*
X123505319Y-85287232D01*
X123793893Y-85501574D01*
X124041340Y-85741689D01*
X124162424Y-85895486D01*
X124303902Y-86164672D01*
X124402830Y-86482173D01*
X124455155Y-86820298D01*
X124456825Y-87151360D01*
X124403790Y-87447669D01*
X124394035Y-87478159D01*
X124328760Y-87671673D01*
X124765690Y-87478025D01*
X125202620Y-87284376D01*
X125109224Y-87096000D01*
X125047690Y-86898863D01*
X125074034Y-86732088D01*
X125188446Y-86594796D01*
X125221500Y-86571073D01*
X125387021Y-86498247D01*
X125583757Y-86464611D01*
X125773623Y-86473209D01*
X125902292Y-86516656D01*
X126030270Y-86635316D01*
X126118201Y-86802132D01*
X126150732Y-86983948D01*
X126146370Y-87043792D01*
X126141123Y-87149028D01*
X126181796Y-87210060D01*
X126270896Y-87255912D01*
X126442744Y-87368499D01*
X126562029Y-87523580D01*
X126621529Y-87699830D01*
X126614023Y-87875925D01*
X126532973Y-88029768D01*
X126356906Y-88174359D01*
X126159468Y-88244958D01*
X125957206Y-88240794D01*
X125766664Y-88161094D01*
X125658980Y-88070584D01*
X125560322Y-87966492D01*
X124382135Y-88490037D01*
X123203948Y-89013583D01*
X125126828Y-89870173D01*
X125260524Y-89742479D01*
X125362431Y-89660371D01*
X125451394Y-89613311D01*
X125469703Y-89609519D01*
X125575083Y-89599593D01*
X125604199Y-89595909D01*
X125709113Y-89608292D01*
X125852817Y-89656381D01*
X125998398Y-89725534D01*
X126098557Y-89792022D01*
X126207315Y-89937207D01*
X126237280Y-90112792D01*
X126185226Y-90298663D01*
X126181118Y-90306544D01*
X126083226Y-90439638D01*
X125954379Y-90549860D01*
X125822534Y-90615910D01*
X125762153Y-90625730D01*
X125718945Y-90642110D01*
X125695685Y-90702710D01*
X125687235Y-90824720D01*
X125686820Y-90877801D01*
X125680209Y-91031491D01*
X125652871Y-91134144D01*
X125593547Y-91218546D01*
X125556987Y-91255853D01*
X125439552Y-91343193D01*
X125316285Y-91397186D01*
X125295390Y-91401470D01*
X125132986Y-91396870D01*
X124947706Y-91351073D01*
X124780776Y-91277442D01*
X124684617Y-91203535D01*
X124634624Y-91108809D01*
X124605973Y-90983760D01*
X124602869Y-90863530D01*
X124629521Y-90783262D01*
X124633788Y-90778960D01*
X124672647Y-90712949D01*
X124676438Y-90698225D01*
X124702568Y-90613388D01*
X124714986Y-90583492D01*
X124704107Y-90555775D01*
X124647809Y-90512510D01*
X124539322Y-90450262D01*
X124371877Y-90365594D01*
X124138707Y-90255071D01*
X123833042Y-90115257D01*
X123485094Y-89959190D01*
X123167748Y-89819439D01*
X122877881Y-89695044D01*
X122626099Y-89590297D01*
X122423008Y-89509490D01*
X122279212Y-89456917D01*
X122205317Y-89436870D01*
X122197999Y-89438228D01*
X122149771Y-89466898D01*
X122028068Y-89527591D01*
X121844092Y-89615058D01*
X121609048Y-89724050D01*
X121334140Y-89849318D01*
X121030571Y-89985611D01*
X121012842Y-89993511D01*
X120708757Y-90129241D01*
X120433116Y-90252803D01*
X120196991Y-90359192D01*
X120011455Y-90443402D01*
X119887580Y-90500427D01*
X119836436Y-90525261D01*
X119835886Y-90525648D01*
X119841196Y-90570416D01*
X119879471Y-90660894D01*
X119894901Y-90690872D01*
X119966791Y-90899973D01*
X119951568Y-91083449D01*
X119854450Y-91233309D01*
X119680656Y-91341566D01*
X119435402Y-91400232D01*
X119431244Y-91400689D01*
X119292785Y-91400910D01*
X119189902Y-91382432D01*
X119092352Y-91326515D01*
X118991295Y-91236544D01*
X118985613Y-91230210D01*
X118923430Y-91141785D01*
X118895900Y-91041072D01*
X118894910Y-90895164D01*
X118896471Y-90868581D01*
X118901764Y-90731056D01*
X118891266Y-90657819D01*
X118858993Y-90629369D01*
X118821946Y-90625653D01*
X118743111Y-90605164D01*
X118638088Y-90554628D01*
X118533483Y-90490582D01*
X118455905Y-90429567D01*
X118431962Y-90388122D01*
X118434445Y-90384786D01*
X118426053Y-90342120D01*
X118390334Y-90301786D01*
X118332468Y-90196886D01*
X118328991Y-90056837D01*
X118377505Y-89913794D01*
X118424280Y-89846848D01*
X118542149Y-89748476D01*
X118692858Y-89670092D01*
X118853578Y-89617483D01*
X119001479Y-89596439D01*
X119113732Y-89612746D01*
X119163710Y-89659385D01*
X119217529Y-89698289D01*
X119226960Y-89699030D01*
X119289254Y-89728690D01*
X119355021Y-89787780D01*
X119382522Y-89815443D01*
X119414031Y-89831723D01*
X119460596Y-89833004D01*
X119533263Y-89815673D01*
X119643078Y-89776112D01*
X119801089Y-89710708D01*
X120018342Y-89615845D01*
X120305883Y-89487907D01*
X120400833Y-89445514D01*
X121366096Y-89014497D01*
X120190956Y-88489929D01*
X119015817Y-87965360D01*
X118916653Y-88070018D01*
X118754662Y-88198112D01*
X118578259Y-88248465D01*
X118472530Y-88245761D01*
X118247524Y-88185396D01*
X118078632Y-88071320D01*
X117972929Y-87919133D01*
X117937489Y-87744435D01*
X117979389Y-87562827D01*
X118090965Y-87404432D01*
X118200966Y-87309176D01*
X118305648Y-87244421D01*
X118338828Y-87232552D01*
X118395432Y-87210142D01*
X118425928Y-87161096D01*
X118438067Y-87064155D01*
X118439794Y-86955674D01*
X118444452Y-86808477D01*
X118466888Y-86714359D01*
X118519791Y-86642275D01*
X118593978Y-86578493D01*
X118758146Y-86481942D01*
X118914174Y-86455580D01*
X119115677Y-86480170D01*
X119305976Y-86544744D01*
X119445572Y-86635508D01*
X119453891Y-86644050D01*
X119506465Y-86756431D01*
X119514454Y-86910348D01*
X119478687Y-87073477D01*
X119440764Y-87155242D01*
X119366845Y-87282777D01*
X119676078Y-87418829D01*
X119827915Y-87483039D01*
X119942922Y-87526793D01*
X119998928Y-87541742D01*
X120000743Y-87541113D01*
X120000786Y-87495553D01*
X119982167Y-87398390D01*
X119972698Y-87360036D01*
X119934567Y-87106019D01*
X119934737Y-87033056D01*
X120596597Y-87033056D01*
X120597319Y-87034768D01*
X120733432Y-87316903D01*
X120804216Y-87487464D01*
X120928495Y-87702822D01*
X121116585Y-87912747D01*
X121341621Y-88092282D01*
X121576735Y-88216469D01*
X121596948Y-88223893D01*
X121818743Y-88276039D01*
X122088538Y-88300814D01*
X122374478Y-88298934D01*
X122644707Y-88271114D01*
X122867368Y-88218069D01*
X122927422Y-88194023D01*
X123218606Y-88012479D01*
X123448115Y-87769334D01*
X123611219Y-87470188D01*
X123659227Y-87327622D01*
X123705238Y-87208359D01*
X123759270Y-87127671D01*
X123782527Y-87111645D01*
X123831315Y-87074285D01*
X123804348Y-87034902D01*
X123718519Y-87007743D01*
X123653922Y-87003176D01*
X123548388Y-87019358D01*
X123514671Y-87059170D01*
X123562285Y-87108482D01*
X123602953Y-87176659D01*
X123598395Y-87296382D01*
X123554824Y-87448550D01*
X123478451Y-87614063D01*
X123375489Y-87773819D01*
X123326306Y-87834045D01*
X123222913Y-87933793D01*
X123103027Y-88024979D01*
X122990833Y-88091845D01*
X122910519Y-88118631D01*
X122894272Y-88115542D01*
X122855982Y-88123506D01*
X122854106Y-88135017D01*
X122810671Y-88171428D01*
X122695469Y-88204534D01*
X122531160Y-88231111D01*
X122340401Y-88247938D01*
X122145849Y-88251790D01*
X122058712Y-88248148D01*
X121698255Y-88185700D01*
X121385520Y-88051358D01*
X121125963Y-87848546D01*
X120925038Y-87580690D01*
X120889525Y-87513938D01*
X120807109Y-87325107D01*
X120779680Y-87196740D01*
X120806065Y-87121576D01*
X120823995Y-87108482D01*
X120871880Y-87058525D01*
X120836516Y-87019440D01*
X120729071Y-87003186D01*
X120725637Y-87003176D01*
X120630238Y-87011895D01*
X120596597Y-87033056D01*
X119934737Y-87033056D01*
X119935242Y-86817698D01*
X119973590Y-86537107D01*
X119997393Y-86442661D01*
X120083811Y-86224906D01*
X121047611Y-86224906D01*
X121048705Y-86362102D01*
X121058243Y-86388146D01*
X121160534Y-86524194D01*
X121311411Y-86601778D01*
X121485647Y-86614973D01*
X121658015Y-86557853D01*
X121691048Y-86536769D01*
X121794354Y-86418699D01*
X121806956Y-86354601D01*
X122581102Y-86354601D01*
X122655486Y-86489791D01*
X122686719Y-86520679D01*
X122842670Y-86607354D01*
X123024260Y-86613447D01*
X123181213Y-86562445D01*
X123320565Y-86461476D01*
X123373556Y-86334062D01*
X123338097Y-86191761D01*
X123265587Y-86095674D01*
X123150931Y-86011584D01*
X123004233Y-85984163D01*
X122978581Y-85983806D01*
X122794107Y-86015787D01*
X122659987Y-86099987D01*
X122585793Y-86218796D01*
X122581102Y-86354601D01*
X121806956Y-86354601D01*
X121821472Y-86280768D01*
X121777345Y-86146211D01*
X121666918Y-86038266D01*
X121576351Y-85997598D01*
X121401843Y-85977828D01*
X121243002Y-86018581D01*
X121118651Y-86105670D01*
X121047611Y-86224906D01*
X120083811Y-86224906D01*
X120139443Y-86084726D01*
X120349322Y-85769368D01*
X120605842Y-85505840D01*
X120965482Y-85241749D01*
X121360637Y-85052858D01*
X121781338Y-84940628D01*
X122217614Y-84906522D01*
X122659497Y-84952003D01*
G37*
X122659497Y-84952003D02*
X123097017Y-85078534D01*
X123207216Y-85124178D01*
X123505319Y-85287232D01*
X123793893Y-85501574D01*
X124041340Y-85741689D01*
X124162424Y-85895486D01*
X124303902Y-86164672D01*
X124402830Y-86482173D01*
X124455155Y-86820298D01*
X124456825Y-87151360D01*
X124403790Y-87447669D01*
X124394035Y-87478159D01*
X124328760Y-87671673D01*
X124765690Y-87478025D01*
X125202620Y-87284376D01*
X125109224Y-87096000D01*
X125047690Y-86898863D01*
X125074034Y-86732088D01*
X125188446Y-86594796D01*
X125221500Y-86571073D01*
X125387021Y-86498247D01*
X125583757Y-86464611D01*
X125773623Y-86473209D01*
X125902292Y-86516656D01*
X126030270Y-86635316D01*
X126118201Y-86802132D01*
X126150732Y-86983948D01*
X126146370Y-87043792D01*
X126141123Y-87149028D01*
X126181796Y-87210060D01*
X126270896Y-87255912D01*
X126442744Y-87368499D01*
X126562029Y-87523580D01*
X126621529Y-87699830D01*
X126614023Y-87875925D01*
X126532973Y-88029768D01*
X126356906Y-88174359D01*
X126159468Y-88244958D01*
X125957206Y-88240794D01*
X125766664Y-88161094D01*
X125658980Y-88070584D01*
X125560322Y-87966492D01*
X124382135Y-88490037D01*
X123203948Y-89013583D01*
X125126828Y-89870173D01*
X125260524Y-89742479D01*
X125362431Y-89660371D01*
X125451394Y-89613311D01*
X125469703Y-89609519D01*
X125575083Y-89599593D01*
X125604199Y-89595909D01*
X125709113Y-89608292D01*
X125852817Y-89656381D01*
X125998398Y-89725534D01*
X126098557Y-89792022D01*
X126207315Y-89937207D01*
X126237280Y-90112792D01*
X126185226Y-90298663D01*
X126181118Y-90306544D01*
X126083226Y-90439638D01*
X125954379Y-90549860D01*
X125822534Y-90615910D01*
X125762153Y-90625730D01*
X125718945Y-90642110D01*
X125695685Y-90702710D01*
X125687235Y-90824720D01*
X125686820Y-90877801D01*
X125680209Y-91031491D01*
X125652871Y-91134144D01*
X125593547Y-91218546D01*
X125556987Y-91255853D01*
X125439552Y-91343193D01*
X125316285Y-91397186D01*
X125295390Y-91401470D01*
X125132986Y-91396870D01*
X124947706Y-91351073D01*
X124780776Y-91277442D01*
X124684617Y-91203535D01*
X124634624Y-91108809D01*
X124605973Y-90983760D01*
X124602869Y-90863530D01*
X124629521Y-90783262D01*
X124633788Y-90778960D01*
X124672647Y-90712949D01*
X124676438Y-90698225D01*
X124702568Y-90613388D01*
X124714986Y-90583492D01*
X124704107Y-90555775D01*
X124647809Y-90512510D01*
X124539322Y-90450262D01*
X124371877Y-90365594D01*
X124138707Y-90255071D01*
X123833042Y-90115257D01*
X123485094Y-89959190D01*
X123167748Y-89819439D01*
X122877881Y-89695044D01*
X122626099Y-89590297D01*
X122423008Y-89509490D01*
X122279212Y-89456917D01*
X122205317Y-89436870D01*
X122197999Y-89438228D01*
X122149771Y-89466898D01*
X122028068Y-89527591D01*
X121844092Y-89615058D01*
X121609048Y-89724050D01*
X121334140Y-89849318D01*
X121030571Y-89985611D01*
X121012842Y-89993511D01*
X120708757Y-90129241D01*
X120433116Y-90252803D01*
X120196991Y-90359192D01*
X120011455Y-90443402D01*
X119887580Y-90500427D01*
X119836436Y-90525261D01*
X119835886Y-90525648D01*
X119841196Y-90570416D01*
X119879471Y-90660894D01*
X119894901Y-90690872D01*
X119966791Y-90899973D01*
X119951568Y-91083449D01*
X119854450Y-91233309D01*
X119680656Y-91341566D01*
X119435402Y-91400232D01*
X119431244Y-91400689D01*
X119292785Y-91400910D01*
X119189902Y-91382432D01*
X119092352Y-91326515D01*
X118991295Y-91236544D01*
X118985613Y-91230210D01*
X118923430Y-91141785D01*
X118895900Y-91041072D01*
X118894910Y-90895164D01*
X118896471Y-90868581D01*
X118901764Y-90731056D01*
X118891266Y-90657819D01*
X118858993Y-90629369D01*
X118821946Y-90625653D01*
X118743111Y-90605164D01*
X118638088Y-90554628D01*
X118533483Y-90490582D01*
X118455905Y-90429567D01*
X118431962Y-90388122D01*
X118434445Y-90384786D01*
X118426053Y-90342120D01*
X118390334Y-90301786D01*
X118332468Y-90196886D01*
X118328991Y-90056837D01*
X118377505Y-89913794D01*
X118424280Y-89846848D01*
X118542149Y-89748476D01*
X118692858Y-89670092D01*
X118853578Y-89617483D01*
X119001479Y-89596439D01*
X119113732Y-89612746D01*
X119163710Y-89659385D01*
X119217529Y-89698289D01*
X119226960Y-89699030D01*
X119289254Y-89728690D01*
X119355021Y-89787780D01*
X119382522Y-89815443D01*
X119414031Y-89831723D01*
X119460596Y-89833004D01*
X119533263Y-89815673D01*
X119643078Y-89776112D01*
X119801089Y-89710708D01*
X120018342Y-89615845D01*
X120305883Y-89487907D01*
X120400833Y-89445514D01*
X121366096Y-89014497D01*
X120190956Y-88489929D01*
X119015817Y-87965360D01*
X118916653Y-88070018D01*
X118754662Y-88198112D01*
X118578259Y-88248465D01*
X118472530Y-88245761D01*
X118247524Y-88185396D01*
X118078632Y-88071320D01*
X117972929Y-87919133D01*
X117937489Y-87744435D01*
X117979389Y-87562827D01*
X118090965Y-87404432D01*
X118200966Y-87309176D01*
X118305648Y-87244421D01*
X118338828Y-87232552D01*
X118395432Y-87210142D01*
X118425928Y-87161096D01*
X118438067Y-87064155D01*
X118439794Y-86955674D01*
X118444452Y-86808477D01*
X118466888Y-86714359D01*
X118519791Y-86642275D01*
X118593978Y-86578493D01*
X118758146Y-86481942D01*
X118914174Y-86455580D01*
X119115677Y-86480170D01*
X119305976Y-86544744D01*
X119445572Y-86635508D01*
X119453891Y-86644050D01*
X119506465Y-86756431D01*
X119514454Y-86910348D01*
X119478687Y-87073477D01*
X119440764Y-87155242D01*
X119366845Y-87282777D01*
X119676078Y-87418829D01*
X119827915Y-87483039D01*
X119942922Y-87526793D01*
X119998928Y-87541742D01*
X120000743Y-87541113D01*
X120000786Y-87495553D01*
X119982167Y-87398390D01*
X119972698Y-87360036D01*
X119934567Y-87106019D01*
X119934737Y-87033056D01*
X120596597Y-87033056D01*
X120597319Y-87034768D01*
X120733432Y-87316903D01*
X120804216Y-87487464D01*
X120928495Y-87702822D01*
X121116585Y-87912747D01*
X121341621Y-88092282D01*
X121576735Y-88216469D01*
X121596948Y-88223893D01*
X121818743Y-88276039D01*
X122088538Y-88300814D01*
X122374478Y-88298934D01*
X122644707Y-88271114D01*
X122867368Y-88218069D01*
X122927422Y-88194023D01*
X123218606Y-88012479D01*
X123448115Y-87769334D01*
X123611219Y-87470188D01*
X123659227Y-87327622D01*
X123705238Y-87208359D01*
X123759270Y-87127671D01*
X123782527Y-87111645D01*
X123831315Y-87074285D01*
X123804348Y-87034902D01*
X123718519Y-87007743D01*
X123653922Y-87003176D01*
X123548388Y-87019358D01*
X123514671Y-87059170D01*
X123562285Y-87108482D01*
X123602953Y-87176659D01*
X123598395Y-87296382D01*
X123554824Y-87448550D01*
X123478451Y-87614063D01*
X123375489Y-87773819D01*
X123326306Y-87834045D01*
X123222913Y-87933793D01*
X123103027Y-88024979D01*
X122990833Y-88091845D01*
X122910519Y-88118631D01*
X122894272Y-88115542D01*
X122855982Y-88123506D01*
X122854106Y-88135017D01*
X122810671Y-88171428D01*
X122695469Y-88204534D01*
X122531160Y-88231111D01*
X122340401Y-88247938D01*
X122145849Y-88251790D01*
X122058712Y-88248148D01*
X121698255Y-88185700D01*
X121385520Y-88051358D01*
X121125963Y-87848546D01*
X120925038Y-87580690D01*
X120889525Y-87513938D01*
X120807109Y-87325107D01*
X120779680Y-87196740D01*
X120806065Y-87121576D01*
X120823995Y-87108482D01*
X120871880Y-87058525D01*
X120836516Y-87019440D01*
X120729071Y-87003186D01*
X120725637Y-87003176D01*
X120630238Y-87011895D01*
X120596597Y-87033056D01*
X119934737Y-87033056D01*
X119935242Y-86817698D01*
X119973590Y-86537107D01*
X119997393Y-86442661D01*
X120083811Y-86224906D01*
X121047611Y-86224906D01*
X121048705Y-86362102D01*
X121058243Y-86388146D01*
X121160534Y-86524194D01*
X121311411Y-86601778D01*
X121485647Y-86614973D01*
X121658015Y-86557853D01*
X121691048Y-86536769D01*
X121794354Y-86418699D01*
X121806956Y-86354601D01*
X122581102Y-86354601D01*
X122655486Y-86489791D01*
X122686719Y-86520679D01*
X122842670Y-86607354D01*
X123024260Y-86613447D01*
X123181213Y-86562445D01*
X123320565Y-86461476D01*
X123373556Y-86334062D01*
X123338097Y-86191761D01*
X123265587Y-86095674D01*
X123150931Y-86011584D01*
X123004233Y-85984163D01*
X122978581Y-85983806D01*
X122794107Y-86015787D01*
X122659987Y-86099987D01*
X122585793Y-86218796D01*
X122581102Y-86354601D01*
X121806956Y-86354601D01*
X121821472Y-86280768D01*
X121777345Y-86146211D01*
X121666918Y-86038266D01*
X121576351Y-85997598D01*
X121401843Y-85977828D01*
X121243002Y-86018581D01*
X121118651Y-86105670D01*
X121047611Y-86224906D01*
X120083811Y-86224906D01*
X120139443Y-86084726D01*
X120349322Y-85769368D01*
X120605842Y-85505840D01*
X120965482Y-85241749D01*
X121360637Y-85052858D01*
X121781338Y-84940628D01*
X122217614Y-84906522D01*
X122659497Y-84952003D01*
D11*
X147284440Y-99062540D03*
X144744440Y-99062540D03*
X147284440Y-81282540D03*
X144744440Y-81282540D03*
X104104440Y-81282540D03*
X106644440Y-81282540D03*
X104104440Y-99062540D03*
X106644440Y-99062540D03*
D12*
X147386040Y-84043520D03*
X128318170Y-81051490D03*
D13*
X147386040Y-84043520D02*
X146016980Y-84043520D01*
X146016980Y-84043520D02*
X144528540Y-82555080D01*
X129821760Y-82555080D02*
X128318170Y-81051490D01*
X144528540Y-82555080D02*
X129821760Y-82555080D01*
M02*
