G04 #@! TF.GenerationSoftware,KiCad,Pcbnew,(5.1.5-0-10_14)*
G04 #@! TF.CreationDate,2021-09-19T20:31:28-06:00*
G04 #@! TF.ProjectId,2021DC435,32303231-4443-4343-9335-2e6b69636164,rev?*
G04 #@! TF.SameCoordinates,Original*
G04 #@! TF.FileFunction,Legend,Bot*
G04 #@! TF.FilePolarity,Positive*
%FSLAX46Y46*%
G04 Gerber Fmt 4.6, Leading zero omitted, Abs format (unit mm)*
G04 Created by KiCad (PCBNEW (5.1.5-0-10_14)) date 2021-09-19 20:31:28*
%MOMM*%
%LPD*%
G04 APERTURE LIST*
%ADD10C,0.150000*%
%ADD11C,0.125000*%
%ADD12C,0.120000*%
G04 APERTURE END LIST*
D10*
X127365248Y-93856851D02*
X127258105Y-93892565D01*
X127079534Y-93892565D01*
X127008105Y-93856851D01*
X126972391Y-93821137D01*
X126936677Y-93749708D01*
X126936677Y-93678280D01*
X126972391Y-93606851D01*
X127008105Y-93571137D01*
X127079534Y-93535422D01*
X127222391Y-93499708D01*
X127293820Y-93463994D01*
X127329534Y-93428280D01*
X127365248Y-93356851D01*
X127365248Y-93285422D01*
X127329534Y-93213994D01*
X127293820Y-93178280D01*
X127222391Y-93142565D01*
X127043820Y-93142565D01*
X126936677Y-93178280D01*
X126615248Y-93892565D02*
X126615248Y-93142565D01*
X126293820Y-93892565D02*
X126293820Y-93499708D01*
X126329534Y-93428280D01*
X126400962Y-93392565D01*
X126508105Y-93392565D01*
X126579534Y-93428280D01*
X126615248Y-93463994D01*
X126008105Y-93142565D02*
X125543820Y-93142565D01*
X125793820Y-93428280D01*
X125686677Y-93428280D01*
X125615248Y-93463994D01*
X125579534Y-93499708D01*
X125543820Y-93571137D01*
X125543820Y-93749708D01*
X125579534Y-93821137D01*
X125615248Y-93856851D01*
X125686677Y-93892565D01*
X125900962Y-93892565D01*
X125972391Y-93856851D01*
X126008105Y-93821137D01*
X125293820Y-93142565D02*
X124829534Y-93142565D01*
X125079534Y-93428280D01*
X124972391Y-93428280D01*
X124900962Y-93463994D01*
X124865248Y-93499708D01*
X124829534Y-93571137D01*
X124829534Y-93749708D01*
X124865248Y-93821137D01*
X124900962Y-93856851D01*
X124972391Y-93892565D01*
X125186677Y-93892565D01*
X125258105Y-93856851D01*
X125293820Y-93821137D01*
X124508105Y-93392565D02*
X124508105Y-94142565D01*
X124508105Y-93428280D02*
X124436677Y-93392565D01*
X124293820Y-93392565D01*
X124222391Y-93428280D01*
X124186677Y-93463994D01*
X124150962Y-93535422D01*
X124150962Y-93749708D01*
X124186677Y-93821137D01*
X124222391Y-93856851D01*
X124293820Y-93892565D01*
X124436677Y-93892565D01*
X124508105Y-93856851D01*
X123829534Y-93892565D02*
X123829534Y-93392565D01*
X123829534Y-93535422D02*
X123793820Y-93463994D01*
X123758105Y-93428280D01*
X123686677Y-93392565D01*
X123615248Y-93392565D01*
X123222391Y-93142565D02*
X123150962Y-93142565D01*
X123079534Y-93178280D01*
X123043820Y-93213994D01*
X123008105Y-93285422D01*
X122972391Y-93428280D01*
X122972391Y-93606851D01*
X123008105Y-93749708D01*
X123043820Y-93821137D01*
X123079534Y-93856851D01*
X123150962Y-93892565D01*
X123222391Y-93892565D01*
X123293820Y-93856851D01*
X123329534Y-93821137D01*
X123365248Y-93749708D01*
X123400962Y-93606851D01*
X123400962Y-93428280D01*
X123365248Y-93285422D01*
X123329534Y-93213994D01*
X123293820Y-93178280D01*
X123222391Y-93142565D01*
X122329534Y-93856851D02*
X122400962Y-93892565D01*
X122543820Y-93892565D01*
X122615248Y-93856851D01*
X122650962Y-93821137D01*
X122686677Y-93749708D01*
X122686677Y-93535422D01*
X122650962Y-93463994D01*
X122615248Y-93428280D01*
X122543820Y-93392565D01*
X122400962Y-93392565D01*
X122329534Y-93428280D01*
X122008105Y-93892565D02*
X122008105Y-93142565D01*
X121936677Y-93606851D02*
X121722391Y-93892565D01*
X121722391Y-93392565D02*
X122008105Y-93678280D01*
D11*
X147601892Y-96887220D02*
X147649511Y-96863410D01*
X147720940Y-96863410D01*
X147792368Y-96887220D01*
X147839987Y-96934839D01*
X147863797Y-96982458D01*
X147887606Y-97077696D01*
X147887606Y-97149124D01*
X147863797Y-97244362D01*
X147839987Y-97291981D01*
X147792368Y-97339600D01*
X147720940Y-97363410D01*
X147673320Y-97363410D01*
X147601892Y-97339600D01*
X147578082Y-97315791D01*
X147578082Y-97149124D01*
X147673320Y-97149124D01*
X147363797Y-97363410D02*
X147363797Y-96863410D01*
X147078082Y-97363410D01*
X147078082Y-96863410D01*
X146839987Y-97363410D02*
X146839987Y-96863410D01*
X146720940Y-96863410D01*
X146649511Y-96887220D01*
X146601892Y-96934839D01*
X146578082Y-96982458D01*
X146554273Y-97077696D01*
X146554273Y-97149124D01*
X146578082Y-97244362D01*
X146601892Y-97291981D01*
X146649511Y-97339600D01*
X146720940Y-97363410D01*
X146839987Y-97363410D01*
X147650152Y-82749580D02*
X147697771Y-82725770D01*
X147769200Y-82725770D01*
X147840628Y-82749580D01*
X147888247Y-82797199D01*
X147912057Y-82844818D01*
X147935866Y-82940056D01*
X147935866Y-83011484D01*
X147912057Y-83106722D01*
X147888247Y-83154341D01*
X147840628Y-83201960D01*
X147769200Y-83225770D01*
X147721580Y-83225770D01*
X147650152Y-83201960D01*
X147626342Y-83178151D01*
X147626342Y-83011484D01*
X147721580Y-83011484D01*
X147412057Y-83225770D02*
X147412057Y-82725770D01*
X147126342Y-83225770D01*
X147126342Y-82725770D01*
X146888247Y-83225770D02*
X146888247Y-82725770D01*
X146769200Y-82725770D01*
X146697771Y-82749580D01*
X146650152Y-82797199D01*
X146626342Y-82844818D01*
X146602533Y-82940056D01*
X146602533Y-83011484D01*
X146626342Y-83106722D01*
X146650152Y-83154341D01*
X146697771Y-83201960D01*
X146769200Y-83225770D01*
X146888247Y-83225770D01*
X106972052Y-82599720D02*
X107019671Y-82575910D01*
X107091100Y-82575910D01*
X107162528Y-82599720D01*
X107210147Y-82647339D01*
X107233957Y-82694958D01*
X107257766Y-82790196D01*
X107257766Y-82861624D01*
X107233957Y-82956862D01*
X107210147Y-83004481D01*
X107162528Y-83052100D01*
X107091100Y-83075910D01*
X107043480Y-83075910D01*
X106972052Y-83052100D01*
X106948242Y-83028291D01*
X106948242Y-82861624D01*
X107043480Y-82861624D01*
X106733957Y-83075910D02*
X106733957Y-82575910D01*
X106448242Y-83075910D01*
X106448242Y-82575910D01*
X106210147Y-83075910D02*
X106210147Y-82575910D01*
X106091100Y-82575910D01*
X106019671Y-82599720D01*
X105972052Y-82647339D01*
X105948242Y-82694958D01*
X105924433Y-82790196D01*
X105924433Y-82861624D01*
X105948242Y-82956862D01*
X105972052Y-83004481D01*
X106019671Y-83052100D01*
X106091100Y-83075910D01*
X106210147Y-83075910D01*
X145670162Y-97147534D02*
X145289210Y-97147534D01*
X145479686Y-97338010D02*
X145479686Y-96957058D01*
X145098734Y-96838010D02*
X144789210Y-96838010D01*
X144955877Y-97028486D01*
X144884448Y-97028486D01*
X144836829Y-97052296D01*
X144813020Y-97076105D01*
X144789210Y-97123724D01*
X144789210Y-97242772D01*
X144813020Y-97290391D01*
X144836829Y-97314200D01*
X144884448Y-97338010D01*
X145027305Y-97338010D01*
X145074924Y-97314200D01*
X145098734Y-97290391D01*
X144622543Y-97004677D02*
X144503496Y-97338010D01*
X144384448Y-97004677D01*
X144241591Y-96838010D02*
X143932067Y-96838010D01*
X144098734Y-97028486D01*
X144027305Y-97028486D01*
X143979686Y-97052296D01*
X143955877Y-97076105D01*
X143932067Y-97123724D01*
X143932067Y-97242772D01*
X143955877Y-97290391D01*
X143979686Y-97314200D01*
X144027305Y-97338010D01*
X144170162Y-97338010D01*
X144217781Y-97314200D01*
X144241591Y-97290391D01*
X105365442Y-82837174D02*
X104984490Y-82837174D01*
X105174966Y-83027650D02*
X105174966Y-82646698D01*
X104794014Y-82527650D02*
X104484490Y-82527650D01*
X104651157Y-82718126D01*
X104579728Y-82718126D01*
X104532109Y-82741936D01*
X104508300Y-82765745D01*
X104484490Y-82813364D01*
X104484490Y-82932412D01*
X104508300Y-82980031D01*
X104532109Y-83003840D01*
X104579728Y-83027650D01*
X104722585Y-83027650D01*
X104770204Y-83003840D01*
X104794014Y-82980031D01*
X104317823Y-82694317D02*
X104198776Y-83027650D01*
X104079728Y-82694317D01*
X103936871Y-82527650D02*
X103627347Y-82527650D01*
X103794014Y-82718126D01*
X103722585Y-82718126D01*
X103674966Y-82741936D01*
X103651157Y-82765745D01*
X103627347Y-82813364D01*
X103627347Y-82932412D01*
X103651157Y-82980031D01*
X103674966Y-83003840D01*
X103722585Y-83027650D01*
X103865442Y-83027650D01*
X103913061Y-83003840D01*
X103936871Y-82980031D01*
X145802242Y-82941314D02*
X145421290Y-82941314D01*
X145611766Y-83131790D02*
X145611766Y-82750838D01*
X145230814Y-82631790D02*
X144921290Y-82631790D01*
X145087957Y-82822266D01*
X145016528Y-82822266D01*
X144968909Y-82846076D01*
X144945100Y-82869885D01*
X144921290Y-82917504D01*
X144921290Y-83036552D01*
X144945100Y-83084171D01*
X144968909Y-83107980D01*
X145016528Y-83131790D01*
X145159385Y-83131790D01*
X145207004Y-83107980D01*
X145230814Y-83084171D01*
X144754623Y-82798457D02*
X144635576Y-83131790D01*
X144516528Y-82798457D01*
X144373671Y-82631790D02*
X144064147Y-82631790D01*
X144230814Y-82822266D01*
X144159385Y-82822266D01*
X144111766Y-82846076D01*
X144087957Y-82869885D01*
X144064147Y-82917504D01*
X144064147Y-83036552D01*
X144087957Y-83084171D01*
X144111766Y-83107980D01*
X144159385Y-83131790D01*
X144302242Y-83131790D01*
X144349861Y-83107980D01*
X144373671Y-83084171D01*
D12*
X130976602Y-81268040D02*
X131451118Y-81268040D01*
X130976602Y-82313040D02*
X131451118Y-82313040D01*
X125878822Y-81329000D02*
X126353338Y-81329000D01*
X125878822Y-82374000D02*
X126353338Y-82374000D01*
X121083302Y-81450920D02*
X121557818Y-81450920D01*
X121083302Y-82495920D02*
X121557818Y-82495920D01*
X115558802Y-81329000D02*
X116033318Y-81329000D01*
X115558802Y-82374000D02*
X116033318Y-82374000D01*
X146932320Y-86950180D02*
X146932320Y-89235180D01*
X145462320Y-86950180D02*
X146932320Y-86950180D01*
X145462320Y-89235180D02*
X145462320Y-86950180D01*
X134079920Y-86950180D02*
X134079920Y-89235180D01*
X132609920Y-86950180D02*
X134079920Y-86950180D01*
X132609920Y-89235180D02*
X132609920Y-86950180D01*
X117379420Y-86975580D02*
X117379420Y-89260580D01*
X115909420Y-86975580D02*
X117379420Y-86975580D01*
X115909420Y-89260580D02*
X115909420Y-86975580D01*
X105977360Y-86678400D02*
X105977360Y-88963400D01*
X104507360Y-86678400D02*
X105977360Y-86678400D01*
X104507360Y-88963400D02*
X104507360Y-86678400D01*
M02*
