G04 #@! TF.GenerationSoftware,KiCad,Pcbnew,(5.1.5-0-10_14)*
G04 #@! TF.CreationDate,2021-09-19T20:31:28-06:00*
G04 #@! TF.ProjectId,2021DC435,32303231-4443-4343-9335-2e6b69636164,rev?*
G04 #@! TF.SameCoordinates,Original*
G04 #@! TF.FileFunction,Copper,L2,Bot*
G04 #@! TF.FilePolarity,Positive*
%FSLAX46Y46*%
G04 Gerber Fmt 4.6, Leading zero omitted, Abs format (unit mm)*
G04 Created by KiCad (PCBNEW (5.1.5-0-10_14)) date 2021-09-19 20:31:28*
%MOMM*%
%LPD*%
G04 APERTURE LIST*
%ADD10C,1.778000*%
%ADD11C,0.100000*%
%ADD12C,0.800000*%
%ADD13C,0.250000*%
G04 APERTURE END LIST*
D10*
X147284440Y-99062540D03*
X144744440Y-99062540D03*
X147284440Y-81282540D03*
X144744440Y-81282540D03*
X104104440Y-81282540D03*
X106644440Y-81282540D03*
X104104440Y-99062540D03*
X106644440Y-99062540D03*
G04 #@! TA.AperFunction,SMDPad,CuDef*
D11*
G36*
X132258463Y-81316503D02*
G01*
X132277878Y-81319383D01*
X132296917Y-81324152D01*
X132315397Y-81330764D01*
X132333139Y-81339156D01*
X132349974Y-81349246D01*
X132365739Y-81360938D01*
X132380281Y-81374119D01*
X132393462Y-81388661D01*
X132405154Y-81404426D01*
X132415244Y-81421261D01*
X132423636Y-81439003D01*
X132430248Y-81457483D01*
X132435017Y-81476522D01*
X132437897Y-81495937D01*
X132438860Y-81515540D01*
X132438860Y-82065540D01*
X132437897Y-82085143D01*
X132435017Y-82104558D01*
X132430248Y-82123597D01*
X132423636Y-82142077D01*
X132415244Y-82159819D01*
X132405154Y-82176654D01*
X132393462Y-82192419D01*
X132380281Y-82206961D01*
X132365739Y-82220142D01*
X132349974Y-82231834D01*
X132333139Y-82241924D01*
X132315397Y-82250316D01*
X132296917Y-82256928D01*
X132277878Y-82261697D01*
X132258463Y-82264577D01*
X132238860Y-82265540D01*
X131838860Y-82265540D01*
X131819257Y-82264577D01*
X131799842Y-82261697D01*
X131780803Y-82256928D01*
X131762323Y-82250316D01*
X131744581Y-82241924D01*
X131727746Y-82231834D01*
X131711981Y-82220142D01*
X131697439Y-82206961D01*
X131684258Y-82192419D01*
X131672566Y-82176654D01*
X131662476Y-82159819D01*
X131654084Y-82142077D01*
X131647472Y-82123597D01*
X131642703Y-82104558D01*
X131639823Y-82085143D01*
X131638860Y-82065540D01*
X131638860Y-81515540D01*
X131639823Y-81495937D01*
X131642703Y-81476522D01*
X131647472Y-81457483D01*
X131654084Y-81439003D01*
X131662476Y-81421261D01*
X131672566Y-81404426D01*
X131684258Y-81388661D01*
X131697439Y-81374119D01*
X131711981Y-81360938D01*
X131727746Y-81349246D01*
X131744581Y-81339156D01*
X131762323Y-81330764D01*
X131780803Y-81324152D01*
X131799842Y-81319383D01*
X131819257Y-81316503D01*
X131838860Y-81315540D01*
X132238860Y-81315540D01*
X132258463Y-81316503D01*
G37*
G04 #@! TD.AperFunction*
G04 #@! TA.AperFunction,SMDPad,CuDef*
G36*
X130608463Y-81316503D02*
G01*
X130627878Y-81319383D01*
X130646917Y-81324152D01*
X130665397Y-81330764D01*
X130683139Y-81339156D01*
X130699974Y-81349246D01*
X130715739Y-81360938D01*
X130730281Y-81374119D01*
X130743462Y-81388661D01*
X130755154Y-81404426D01*
X130765244Y-81421261D01*
X130773636Y-81439003D01*
X130780248Y-81457483D01*
X130785017Y-81476522D01*
X130787897Y-81495937D01*
X130788860Y-81515540D01*
X130788860Y-82065540D01*
X130787897Y-82085143D01*
X130785017Y-82104558D01*
X130780248Y-82123597D01*
X130773636Y-82142077D01*
X130765244Y-82159819D01*
X130755154Y-82176654D01*
X130743462Y-82192419D01*
X130730281Y-82206961D01*
X130715739Y-82220142D01*
X130699974Y-82231834D01*
X130683139Y-82241924D01*
X130665397Y-82250316D01*
X130646917Y-82256928D01*
X130627878Y-82261697D01*
X130608463Y-82264577D01*
X130588860Y-82265540D01*
X130188860Y-82265540D01*
X130169257Y-82264577D01*
X130149842Y-82261697D01*
X130130803Y-82256928D01*
X130112323Y-82250316D01*
X130094581Y-82241924D01*
X130077746Y-82231834D01*
X130061981Y-82220142D01*
X130047439Y-82206961D01*
X130034258Y-82192419D01*
X130022566Y-82176654D01*
X130012476Y-82159819D01*
X130004084Y-82142077D01*
X129997472Y-82123597D01*
X129992703Y-82104558D01*
X129989823Y-82085143D01*
X129988860Y-82065540D01*
X129988860Y-81515540D01*
X129989823Y-81495937D01*
X129992703Y-81476522D01*
X129997472Y-81457483D01*
X130004084Y-81439003D01*
X130012476Y-81421261D01*
X130022566Y-81404426D01*
X130034258Y-81388661D01*
X130047439Y-81374119D01*
X130061981Y-81360938D01*
X130077746Y-81349246D01*
X130094581Y-81339156D01*
X130112323Y-81330764D01*
X130130803Y-81324152D01*
X130149842Y-81319383D01*
X130169257Y-81316503D01*
X130188860Y-81315540D01*
X130588860Y-81315540D01*
X130608463Y-81316503D01*
G37*
G04 #@! TD.AperFunction*
G04 #@! TA.AperFunction,SMDPad,CuDef*
G36*
X127160683Y-81377463D02*
G01*
X127180098Y-81380343D01*
X127199137Y-81385112D01*
X127217617Y-81391724D01*
X127235359Y-81400116D01*
X127252194Y-81410206D01*
X127267959Y-81421898D01*
X127282501Y-81435079D01*
X127295682Y-81449621D01*
X127307374Y-81465386D01*
X127317464Y-81482221D01*
X127325856Y-81499963D01*
X127332468Y-81518443D01*
X127337237Y-81537482D01*
X127340117Y-81556897D01*
X127341080Y-81576500D01*
X127341080Y-82126500D01*
X127340117Y-82146103D01*
X127337237Y-82165518D01*
X127332468Y-82184557D01*
X127325856Y-82203037D01*
X127317464Y-82220779D01*
X127307374Y-82237614D01*
X127295682Y-82253379D01*
X127282501Y-82267921D01*
X127267959Y-82281102D01*
X127252194Y-82292794D01*
X127235359Y-82302884D01*
X127217617Y-82311276D01*
X127199137Y-82317888D01*
X127180098Y-82322657D01*
X127160683Y-82325537D01*
X127141080Y-82326500D01*
X126741080Y-82326500D01*
X126721477Y-82325537D01*
X126702062Y-82322657D01*
X126683023Y-82317888D01*
X126664543Y-82311276D01*
X126646801Y-82302884D01*
X126629966Y-82292794D01*
X126614201Y-82281102D01*
X126599659Y-82267921D01*
X126586478Y-82253379D01*
X126574786Y-82237614D01*
X126564696Y-82220779D01*
X126556304Y-82203037D01*
X126549692Y-82184557D01*
X126544923Y-82165518D01*
X126542043Y-82146103D01*
X126541080Y-82126500D01*
X126541080Y-81576500D01*
X126542043Y-81556897D01*
X126544923Y-81537482D01*
X126549692Y-81518443D01*
X126556304Y-81499963D01*
X126564696Y-81482221D01*
X126574786Y-81465386D01*
X126586478Y-81449621D01*
X126599659Y-81435079D01*
X126614201Y-81421898D01*
X126629966Y-81410206D01*
X126646801Y-81400116D01*
X126664543Y-81391724D01*
X126683023Y-81385112D01*
X126702062Y-81380343D01*
X126721477Y-81377463D01*
X126741080Y-81376500D01*
X127141080Y-81376500D01*
X127160683Y-81377463D01*
G37*
G04 #@! TD.AperFunction*
G04 #@! TA.AperFunction,SMDPad,CuDef*
G36*
X125510683Y-81377463D02*
G01*
X125530098Y-81380343D01*
X125549137Y-81385112D01*
X125567617Y-81391724D01*
X125585359Y-81400116D01*
X125602194Y-81410206D01*
X125617959Y-81421898D01*
X125632501Y-81435079D01*
X125645682Y-81449621D01*
X125657374Y-81465386D01*
X125667464Y-81482221D01*
X125675856Y-81499963D01*
X125682468Y-81518443D01*
X125687237Y-81537482D01*
X125690117Y-81556897D01*
X125691080Y-81576500D01*
X125691080Y-82126500D01*
X125690117Y-82146103D01*
X125687237Y-82165518D01*
X125682468Y-82184557D01*
X125675856Y-82203037D01*
X125667464Y-82220779D01*
X125657374Y-82237614D01*
X125645682Y-82253379D01*
X125632501Y-82267921D01*
X125617959Y-82281102D01*
X125602194Y-82292794D01*
X125585359Y-82302884D01*
X125567617Y-82311276D01*
X125549137Y-82317888D01*
X125530098Y-82322657D01*
X125510683Y-82325537D01*
X125491080Y-82326500D01*
X125091080Y-82326500D01*
X125071477Y-82325537D01*
X125052062Y-82322657D01*
X125033023Y-82317888D01*
X125014543Y-82311276D01*
X124996801Y-82302884D01*
X124979966Y-82292794D01*
X124964201Y-82281102D01*
X124949659Y-82267921D01*
X124936478Y-82253379D01*
X124924786Y-82237614D01*
X124914696Y-82220779D01*
X124906304Y-82203037D01*
X124899692Y-82184557D01*
X124894923Y-82165518D01*
X124892043Y-82146103D01*
X124891080Y-82126500D01*
X124891080Y-81576500D01*
X124892043Y-81556897D01*
X124894923Y-81537482D01*
X124899692Y-81518443D01*
X124906304Y-81499963D01*
X124914696Y-81482221D01*
X124924786Y-81465386D01*
X124936478Y-81449621D01*
X124949659Y-81435079D01*
X124964201Y-81421898D01*
X124979966Y-81410206D01*
X124996801Y-81400116D01*
X125014543Y-81391724D01*
X125033023Y-81385112D01*
X125052062Y-81380343D01*
X125071477Y-81377463D01*
X125091080Y-81376500D01*
X125491080Y-81376500D01*
X125510683Y-81377463D01*
G37*
G04 #@! TD.AperFunction*
G04 #@! TA.AperFunction,SMDPad,CuDef*
G36*
X122365163Y-81499383D02*
G01*
X122384578Y-81502263D01*
X122403617Y-81507032D01*
X122422097Y-81513644D01*
X122439839Y-81522036D01*
X122456674Y-81532126D01*
X122472439Y-81543818D01*
X122486981Y-81556999D01*
X122500162Y-81571541D01*
X122511854Y-81587306D01*
X122521944Y-81604141D01*
X122530336Y-81621883D01*
X122536948Y-81640363D01*
X122541717Y-81659402D01*
X122544597Y-81678817D01*
X122545560Y-81698420D01*
X122545560Y-82248420D01*
X122544597Y-82268023D01*
X122541717Y-82287438D01*
X122536948Y-82306477D01*
X122530336Y-82324957D01*
X122521944Y-82342699D01*
X122511854Y-82359534D01*
X122500162Y-82375299D01*
X122486981Y-82389841D01*
X122472439Y-82403022D01*
X122456674Y-82414714D01*
X122439839Y-82424804D01*
X122422097Y-82433196D01*
X122403617Y-82439808D01*
X122384578Y-82444577D01*
X122365163Y-82447457D01*
X122345560Y-82448420D01*
X121945560Y-82448420D01*
X121925957Y-82447457D01*
X121906542Y-82444577D01*
X121887503Y-82439808D01*
X121869023Y-82433196D01*
X121851281Y-82424804D01*
X121834446Y-82414714D01*
X121818681Y-82403022D01*
X121804139Y-82389841D01*
X121790958Y-82375299D01*
X121779266Y-82359534D01*
X121769176Y-82342699D01*
X121760784Y-82324957D01*
X121754172Y-82306477D01*
X121749403Y-82287438D01*
X121746523Y-82268023D01*
X121745560Y-82248420D01*
X121745560Y-81698420D01*
X121746523Y-81678817D01*
X121749403Y-81659402D01*
X121754172Y-81640363D01*
X121760784Y-81621883D01*
X121769176Y-81604141D01*
X121779266Y-81587306D01*
X121790958Y-81571541D01*
X121804139Y-81556999D01*
X121818681Y-81543818D01*
X121834446Y-81532126D01*
X121851281Y-81522036D01*
X121869023Y-81513644D01*
X121887503Y-81507032D01*
X121906542Y-81502263D01*
X121925957Y-81499383D01*
X121945560Y-81498420D01*
X122345560Y-81498420D01*
X122365163Y-81499383D01*
G37*
G04 #@! TD.AperFunction*
G04 #@! TA.AperFunction,SMDPad,CuDef*
G36*
X120715163Y-81499383D02*
G01*
X120734578Y-81502263D01*
X120753617Y-81507032D01*
X120772097Y-81513644D01*
X120789839Y-81522036D01*
X120806674Y-81532126D01*
X120822439Y-81543818D01*
X120836981Y-81556999D01*
X120850162Y-81571541D01*
X120861854Y-81587306D01*
X120871944Y-81604141D01*
X120880336Y-81621883D01*
X120886948Y-81640363D01*
X120891717Y-81659402D01*
X120894597Y-81678817D01*
X120895560Y-81698420D01*
X120895560Y-82248420D01*
X120894597Y-82268023D01*
X120891717Y-82287438D01*
X120886948Y-82306477D01*
X120880336Y-82324957D01*
X120871944Y-82342699D01*
X120861854Y-82359534D01*
X120850162Y-82375299D01*
X120836981Y-82389841D01*
X120822439Y-82403022D01*
X120806674Y-82414714D01*
X120789839Y-82424804D01*
X120772097Y-82433196D01*
X120753617Y-82439808D01*
X120734578Y-82444577D01*
X120715163Y-82447457D01*
X120695560Y-82448420D01*
X120295560Y-82448420D01*
X120275957Y-82447457D01*
X120256542Y-82444577D01*
X120237503Y-82439808D01*
X120219023Y-82433196D01*
X120201281Y-82424804D01*
X120184446Y-82414714D01*
X120168681Y-82403022D01*
X120154139Y-82389841D01*
X120140958Y-82375299D01*
X120129266Y-82359534D01*
X120119176Y-82342699D01*
X120110784Y-82324957D01*
X120104172Y-82306477D01*
X120099403Y-82287438D01*
X120096523Y-82268023D01*
X120095560Y-82248420D01*
X120095560Y-81698420D01*
X120096523Y-81678817D01*
X120099403Y-81659402D01*
X120104172Y-81640363D01*
X120110784Y-81621883D01*
X120119176Y-81604141D01*
X120129266Y-81587306D01*
X120140958Y-81571541D01*
X120154139Y-81556999D01*
X120168681Y-81543818D01*
X120184446Y-81532126D01*
X120201281Y-81522036D01*
X120219023Y-81513644D01*
X120237503Y-81507032D01*
X120256542Y-81502263D01*
X120275957Y-81499383D01*
X120295560Y-81498420D01*
X120695560Y-81498420D01*
X120715163Y-81499383D01*
G37*
G04 #@! TD.AperFunction*
G04 #@! TA.AperFunction,SMDPad,CuDef*
G36*
X116840663Y-81377463D02*
G01*
X116860078Y-81380343D01*
X116879117Y-81385112D01*
X116897597Y-81391724D01*
X116915339Y-81400116D01*
X116932174Y-81410206D01*
X116947939Y-81421898D01*
X116962481Y-81435079D01*
X116975662Y-81449621D01*
X116987354Y-81465386D01*
X116997444Y-81482221D01*
X117005836Y-81499963D01*
X117012448Y-81518443D01*
X117017217Y-81537482D01*
X117020097Y-81556897D01*
X117021060Y-81576500D01*
X117021060Y-82126500D01*
X117020097Y-82146103D01*
X117017217Y-82165518D01*
X117012448Y-82184557D01*
X117005836Y-82203037D01*
X116997444Y-82220779D01*
X116987354Y-82237614D01*
X116975662Y-82253379D01*
X116962481Y-82267921D01*
X116947939Y-82281102D01*
X116932174Y-82292794D01*
X116915339Y-82302884D01*
X116897597Y-82311276D01*
X116879117Y-82317888D01*
X116860078Y-82322657D01*
X116840663Y-82325537D01*
X116821060Y-82326500D01*
X116421060Y-82326500D01*
X116401457Y-82325537D01*
X116382042Y-82322657D01*
X116363003Y-82317888D01*
X116344523Y-82311276D01*
X116326781Y-82302884D01*
X116309946Y-82292794D01*
X116294181Y-82281102D01*
X116279639Y-82267921D01*
X116266458Y-82253379D01*
X116254766Y-82237614D01*
X116244676Y-82220779D01*
X116236284Y-82203037D01*
X116229672Y-82184557D01*
X116224903Y-82165518D01*
X116222023Y-82146103D01*
X116221060Y-82126500D01*
X116221060Y-81576500D01*
X116222023Y-81556897D01*
X116224903Y-81537482D01*
X116229672Y-81518443D01*
X116236284Y-81499963D01*
X116244676Y-81482221D01*
X116254766Y-81465386D01*
X116266458Y-81449621D01*
X116279639Y-81435079D01*
X116294181Y-81421898D01*
X116309946Y-81410206D01*
X116326781Y-81400116D01*
X116344523Y-81391724D01*
X116363003Y-81385112D01*
X116382042Y-81380343D01*
X116401457Y-81377463D01*
X116421060Y-81376500D01*
X116821060Y-81376500D01*
X116840663Y-81377463D01*
G37*
G04 #@! TD.AperFunction*
G04 #@! TA.AperFunction,SMDPad,CuDef*
G36*
X115190663Y-81377463D02*
G01*
X115210078Y-81380343D01*
X115229117Y-81385112D01*
X115247597Y-81391724D01*
X115265339Y-81400116D01*
X115282174Y-81410206D01*
X115297939Y-81421898D01*
X115312481Y-81435079D01*
X115325662Y-81449621D01*
X115337354Y-81465386D01*
X115347444Y-81482221D01*
X115355836Y-81499963D01*
X115362448Y-81518443D01*
X115367217Y-81537482D01*
X115370097Y-81556897D01*
X115371060Y-81576500D01*
X115371060Y-82126500D01*
X115370097Y-82146103D01*
X115367217Y-82165518D01*
X115362448Y-82184557D01*
X115355836Y-82203037D01*
X115347444Y-82220779D01*
X115337354Y-82237614D01*
X115325662Y-82253379D01*
X115312481Y-82267921D01*
X115297939Y-82281102D01*
X115282174Y-82292794D01*
X115265339Y-82302884D01*
X115247597Y-82311276D01*
X115229117Y-82317888D01*
X115210078Y-82322657D01*
X115190663Y-82325537D01*
X115171060Y-82326500D01*
X114771060Y-82326500D01*
X114751457Y-82325537D01*
X114732042Y-82322657D01*
X114713003Y-82317888D01*
X114694523Y-82311276D01*
X114676781Y-82302884D01*
X114659946Y-82292794D01*
X114644181Y-82281102D01*
X114629639Y-82267921D01*
X114616458Y-82253379D01*
X114604766Y-82237614D01*
X114594676Y-82220779D01*
X114586284Y-82203037D01*
X114579672Y-82184557D01*
X114574903Y-82165518D01*
X114572023Y-82146103D01*
X114571060Y-82126500D01*
X114571060Y-81576500D01*
X114572023Y-81556897D01*
X114574903Y-81537482D01*
X114579672Y-81518443D01*
X114586284Y-81499963D01*
X114594676Y-81482221D01*
X114604766Y-81465386D01*
X114616458Y-81449621D01*
X114629639Y-81435079D01*
X114644181Y-81421898D01*
X114659946Y-81410206D01*
X114676781Y-81400116D01*
X114694523Y-81391724D01*
X114713003Y-81385112D01*
X114732042Y-81380343D01*
X114751457Y-81377463D01*
X114771060Y-81376500D01*
X115171060Y-81376500D01*
X115190663Y-81377463D01*
G37*
G04 #@! TD.AperFunction*
G04 #@! TA.AperFunction,SMDPad,CuDef*
G36*
X146475011Y-88786233D02*
G01*
X146496246Y-88789383D01*
X146517070Y-88794599D01*
X146537282Y-88801831D01*
X146556688Y-88811010D01*
X146575101Y-88822046D01*
X146592344Y-88834834D01*
X146608250Y-88849250D01*
X146622666Y-88865156D01*
X146635454Y-88882399D01*
X146646490Y-88900812D01*
X146655669Y-88920218D01*
X146662901Y-88940430D01*
X146668117Y-88961254D01*
X146671267Y-88982489D01*
X146672320Y-89003930D01*
X146672320Y-89441430D01*
X146671267Y-89462871D01*
X146668117Y-89484106D01*
X146662901Y-89504930D01*
X146655669Y-89525142D01*
X146646490Y-89544548D01*
X146635454Y-89562961D01*
X146622666Y-89580204D01*
X146608250Y-89596110D01*
X146592344Y-89610526D01*
X146575101Y-89623314D01*
X146556688Y-89634350D01*
X146537282Y-89643529D01*
X146517070Y-89650761D01*
X146496246Y-89655977D01*
X146475011Y-89659127D01*
X146453570Y-89660180D01*
X145941070Y-89660180D01*
X145919629Y-89659127D01*
X145898394Y-89655977D01*
X145877570Y-89650761D01*
X145857358Y-89643529D01*
X145837952Y-89634350D01*
X145819539Y-89623314D01*
X145802296Y-89610526D01*
X145786390Y-89596110D01*
X145771974Y-89580204D01*
X145759186Y-89562961D01*
X145748150Y-89544548D01*
X145738971Y-89525142D01*
X145731739Y-89504930D01*
X145726523Y-89484106D01*
X145723373Y-89462871D01*
X145722320Y-89441430D01*
X145722320Y-89003930D01*
X145723373Y-88982489D01*
X145726523Y-88961254D01*
X145731739Y-88940430D01*
X145738971Y-88920218D01*
X145748150Y-88900812D01*
X145759186Y-88882399D01*
X145771974Y-88865156D01*
X145786390Y-88849250D01*
X145802296Y-88834834D01*
X145819539Y-88822046D01*
X145837952Y-88811010D01*
X145857358Y-88801831D01*
X145877570Y-88794599D01*
X145898394Y-88789383D01*
X145919629Y-88786233D01*
X145941070Y-88785180D01*
X146453570Y-88785180D01*
X146475011Y-88786233D01*
G37*
G04 #@! TD.AperFunction*
G04 #@! TA.AperFunction,SMDPad,CuDef*
G36*
X146475011Y-87211233D02*
G01*
X146496246Y-87214383D01*
X146517070Y-87219599D01*
X146537282Y-87226831D01*
X146556688Y-87236010D01*
X146575101Y-87247046D01*
X146592344Y-87259834D01*
X146608250Y-87274250D01*
X146622666Y-87290156D01*
X146635454Y-87307399D01*
X146646490Y-87325812D01*
X146655669Y-87345218D01*
X146662901Y-87365430D01*
X146668117Y-87386254D01*
X146671267Y-87407489D01*
X146672320Y-87428930D01*
X146672320Y-87866430D01*
X146671267Y-87887871D01*
X146668117Y-87909106D01*
X146662901Y-87929930D01*
X146655669Y-87950142D01*
X146646490Y-87969548D01*
X146635454Y-87987961D01*
X146622666Y-88005204D01*
X146608250Y-88021110D01*
X146592344Y-88035526D01*
X146575101Y-88048314D01*
X146556688Y-88059350D01*
X146537282Y-88068529D01*
X146517070Y-88075761D01*
X146496246Y-88080977D01*
X146475011Y-88084127D01*
X146453570Y-88085180D01*
X145941070Y-88085180D01*
X145919629Y-88084127D01*
X145898394Y-88080977D01*
X145877570Y-88075761D01*
X145857358Y-88068529D01*
X145837952Y-88059350D01*
X145819539Y-88048314D01*
X145802296Y-88035526D01*
X145786390Y-88021110D01*
X145771974Y-88005204D01*
X145759186Y-87987961D01*
X145748150Y-87969548D01*
X145738971Y-87950142D01*
X145731739Y-87929930D01*
X145726523Y-87909106D01*
X145723373Y-87887871D01*
X145722320Y-87866430D01*
X145722320Y-87428930D01*
X145723373Y-87407489D01*
X145726523Y-87386254D01*
X145731739Y-87365430D01*
X145738971Y-87345218D01*
X145748150Y-87325812D01*
X145759186Y-87307399D01*
X145771974Y-87290156D01*
X145786390Y-87274250D01*
X145802296Y-87259834D01*
X145819539Y-87247046D01*
X145837952Y-87236010D01*
X145857358Y-87226831D01*
X145877570Y-87219599D01*
X145898394Y-87214383D01*
X145919629Y-87211233D01*
X145941070Y-87210180D01*
X146453570Y-87210180D01*
X146475011Y-87211233D01*
G37*
G04 #@! TD.AperFunction*
G04 #@! TA.AperFunction,SMDPad,CuDef*
G36*
X133622611Y-88786233D02*
G01*
X133643846Y-88789383D01*
X133664670Y-88794599D01*
X133684882Y-88801831D01*
X133704288Y-88811010D01*
X133722701Y-88822046D01*
X133739944Y-88834834D01*
X133755850Y-88849250D01*
X133770266Y-88865156D01*
X133783054Y-88882399D01*
X133794090Y-88900812D01*
X133803269Y-88920218D01*
X133810501Y-88940430D01*
X133815717Y-88961254D01*
X133818867Y-88982489D01*
X133819920Y-89003930D01*
X133819920Y-89441430D01*
X133818867Y-89462871D01*
X133815717Y-89484106D01*
X133810501Y-89504930D01*
X133803269Y-89525142D01*
X133794090Y-89544548D01*
X133783054Y-89562961D01*
X133770266Y-89580204D01*
X133755850Y-89596110D01*
X133739944Y-89610526D01*
X133722701Y-89623314D01*
X133704288Y-89634350D01*
X133684882Y-89643529D01*
X133664670Y-89650761D01*
X133643846Y-89655977D01*
X133622611Y-89659127D01*
X133601170Y-89660180D01*
X133088670Y-89660180D01*
X133067229Y-89659127D01*
X133045994Y-89655977D01*
X133025170Y-89650761D01*
X133004958Y-89643529D01*
X132985552Y-89634350D01*
X132967139Y-89623314D01*
X132949896Y-89610526D01*
X132933990Y-89596110D01*
X132919574Y-89580204D01*
X132906786Y-89562961D01*
X132895750Y-89544548D01*
X132886571Y-89525142D01*
X132879339Y-89504930D01*
X132874123Y-89484106D01*
X132870973Y-89462871D01*
X132869920Y-89441430D01*
X132869920Y-89003930D01*
X132870973Y-88982489D01*
X132874123Y-88961254D01*
X132879339Y-88940430D01*
X132886571Y-88920218D01*
X132895750Y-88900812D01*
X132906786Y-88882399D01*
X132919574Y-88865156D01*
X132933990Y-88849250D01*
X132949896Y-88834834D01*
X132967139Y-88822046D01*
X132985552Y-88811010D01*
X133004958Y-88801831D01*
X133025170Y-88794599D01*
X133045994Y-88789383D01*
X133067229Y-88786233D01*
X133088670Y-88785180D01*
X133601170Y-88785180D01*
X133622611Y-88786233D01*
G37*
G04 #@! TD.AperFunction*
G04 #@! TA.AperFunction,SMDPad,CuDef*
G36*
X133622611Y-87211233D02*
G01*
X133643846Y-87214383D01*
X133664670Y-87219599D01*
X133684882Y-87226831D01*
X133704288Y-87236010D01*
X133722701Y-87247046D01*
X133739944Y-87259834D01*
X133755850Y-87274250D01*
X133770266Y-87290156D01*
X133783054Y-87307399D01*
X133794090Y-87325812D01*
X133803269Y-87345218D01*
X133810501Y-87365430D01*
X133815717Y-87386254D01*
X133818867Y-87407489D01*
X133819920Y-87428930D01*
X133819920Y-87866430D01*
X133818867Y-87887871D01*
X133815717Y-87909106D01*
X133810501Y-87929930D01*
X133803269Y-87950142D01*
X133794090Y-87969548D01*
X133783054Y-87987961D01*
X133770266Y-88005204D01*
X133755850Y-88021110D01*
X133739944Y-88035526D01*
X133722701Y-88048314D01*
X133704288Y-88059350D01*
X133684882Y-88068529D01*
X133664670Y-88075761D01*
X133643846Y-88080977D01*
X133622611Y-88084127D01*
X133601170Y-88085180D01*
X133088670Y-88085180D01*
X133067229Y-88084127D01*
X133045994Y-88080977D01*
X133025170Y-88075761D01*
X133004958Y-88068529D01*
X132985552Y-88059350D01*
X132967139Y-88048314D01*
X132949896Y-88035526D01*
X132933990Y-88021110D01*
X132919574Y-88005204D01*
X132906786Y-87987961D01*
X132895750Y-87969548D01*
X132886571Y-87950142D01*
X132879339Y-87929930D01*
X132874123Y-87909106D01*
X132870973Y-87887871D01*
X132869920Y-87866430D01*
X132869920Y-87428930D01*
X132870973Y-87407489D01*
X132874123Y-87386254D01*
X132879339Y-87365430D01*
X132886571Y-87345218D01*
X132895750Y-87325812D01*
X132906786Y-87307399D01*
X132919574Y-87290156D01*
X132933990Y-87274250D01*
X132949896Y-87259834D01*
X132967139Y-87247046D01*
X132985552Y-87236010D01*
X133004958Y-87226831D01*
X133025170Y-87219599D01*
X133045994Y-87214383D01*
X133067229Y-87211233D01*
X133088670Y-87210180D01*
X133601170Y-87210180D01*
X133622611Y-87211233D01*
G37*
G04 #@! TD.AperFunction*
G04 #@! TA.AperFunction,SMDPad,CuDef*
G36*
X116922111Y-88811633D02*
G01*
X116943346Y-88814783D01*
X116964170Y-88819999D01*
X116984382Y-88827231D01*
X117003788Y-88836410D01*
X117022201Y-88847446D01*
X117039444Y-88860234D01*
X117055350Y-88874650D01*
X117069766Y-88890556D01*
X117082554Y-88907799D01*
X117093590Y-88926212D01*
X117102769Y-88945618D01*
X117110001Y-88965830D01*
X117115217Y-88986654D01*
X117118367Y-89007889D01*
X117119420Y-89029330D01*
X117119420Y-89466830D01*
X117118367Y-89488271D01*
X117115217Y-89509506D01*
X117110001Y-89530330D01*
X117102769Y-89550542D01*
X117093590Y-89569948D01*
X117082554Y-89588361D01*
X117069766Y-89605604D01*
X117055350Y-89621510D01*
X117039444Y-89635926D01*
X117022201Y-89648714D01*
X117003788Y-89659750D01*
X116984382Y-89668929D01*
X116964170Y-89676161D01*
X116943346Y-89681377D01*
X116922111Y-89684527D01*
X116900670Y-89685580D01*
X116388170Y-89685580D01*
X116366729Y-89684527D01*
X116345494Y-89681377D01*
X116324670Y-89676161D01*
X116304458Y-89668929D01*
X116285052Y-89659750D01*
X116266639Y-89648714D01*
X116249396Y-89635926D01*
X116233490Y-89621510D01*
X116219074Y-89605604D01*
X116206286Y-89588361D01*
X116195250Y-89569948D01*
X116186071Y-89550542D01*
X116178839Y-89530330D01*
X116173623Y-89509506D01*
X116170473Y-89488271D01*
X116169420Y-89466830D01*
X116169420Y-89029330D01*
X116170473Y-89007889D01*
X116173623Y-88986654D01*
X116178839Y-88965830D01*
X116186071Y-88945618D01*
X116195250Y-88926212D01*
X116206286Y-88907799D01*
X116219074Y-88890556D01*
X116233490Y-88874650D01*
X116249396Y-88860234D01*
X116266639Y-88847446D01*
X116285052Y-88836410D01*
X116304458Y-88827231D01*
X116324670Y-88819999D01*
X116345494Y-88814783D01*
X116366729Y-88811633D01*
X116388170Y-88810580D01*
X116900670Y-88810580D01*
X116922111Y-88811633D01*
G37*
G04 #@! TD.AperFunction*
G04 #@! TA.AperFunction,SMDPad,CuDef*
G36*
X116922111Y-87236633D02*
G01*
X116943346Y-87239783D01*
X116964170Y-87244999D01*
X116984382Y-87252231D01*
X117003788Y-87261410D01*
X117022201Y-87272446D01*
X117039444Y-87285234D01*
X117055350Y-87299650D01*
X117069766Y-87315556D01*
X117082554Y-87332799D01*
X117093590Y-87351212D01*
X117102769Y-87370618D01*
X117110001Y-87390830D01*
X117115217Y-87411654D01*
X117118367Y-87432889D01*
X117119420Y-87454330D01*
X117119420Y-87891830D01*
X117118367Y-87913271D01*
X117115217Y-87934506D01*
X117110001Y-87955330D01*
X117102769Y-87975542D01*
X117093590Y-87994948D01*
X117082554Y-88013361D01*
X117069766Y-88030604D01*
X117055350Y-88046510D01*
X117039444Y-88060926D01*
X117022201Y-88073714D01*
X117003788Y-88084750D01*
X116984382Y-88093929D01*
X116964170Y-88101161D01*
X116943346Y-88106377D01*
X116922111Y-88109527D01*
X116900670Y-88110580D01*
X116388170Y-88110580D01*
X116366729Y-88109527D01*
X116345494Y-88106377D01*
X116324670Y-88101161D01*
X116304458Y-88093929D01*
X116285052Y-88084750D01*
X116266639Y-88073714D01*
X116249396Y-88060926D01*
X116233490Y-88046510D01*
X116219074Y-88030604D01*
X116206286Y-88013361D01*
X116195250Y-87994948D01*
X116186071Y-87975542D01*
X116178839Y-87955330D01*
X116173623Y-87934506D01*
X116170473Y-87913271D01*
X116169420Y-87891830D01*
X116169420Y-87454330D01*
X116170473Y-87432889D01*
X116173623Y-87411654D01*
X116178839Y-87390830D01*
X116186071Y-87370618D01*
X116195250Y-87351212D01*
X116206286Y-87332799D01*
X116219074Y-87315556D01*
X116233490Y-87299650D01*
X116249396Y-87285234D01*
X116266639Y-87272446D01*
X116285052Y-87261410D01*
X116304458Y-87252231D01*
X116324670Y-87244999D01*
X116345494Y-87239783D01*
X116366729Y-87236633D01*
X116388170Y-87235580D01*
X116900670Y-87235580D01*
X116922111Y-87236633D01*
G37*
G04 #@! TD.AperFunction*
G04 #@! TA.AperFunction,SMDPad,CuDef*
G36*
X105520051Y-88514453D02*
G01*
X105541286Y-88517603D01*
X105562110Y-88522819D01*
X105582322Y-88530051D01*
X105601728Y-88539230D01*
X105620141Y-88550266D01*
X105637384Y-88563054D01*
X105653290Y-88577470D01*
X105667706Y-88593376D01*
X105680494Y-88610619D01*
X105691530Y-88629032D01*
X105700709Y-88648438D01*
X105707941Y-88668650D01*
X105713157Y-88689474D01*
X105716307Y-88710709D01*
X105717360Y-88732150D01*
X105717360Y-89169650D01*
X105716307Y-89191091D01*
X105713157Y-89212326D01*
X105707941Y-89233150D01*
X105700709Y-89253362D01*
X105691530Y-89272768D01*
X105680494Y-89291181D01*
X105667706Y-89308424D01*
X105653290Y-89324330D01*
X105637384Y-89338746D01*
X105620141Y-89351534D01*
X105601728Y-89362570D01*
X105582322Y-89371749D01*
X105562110Y-89378981D01*
X105541286Y-89384197D01*
X105520051Y-89387347D01*
X105498610Y-89388400D01*
X104986110Y-89388400D01*
X104964669Y-89387347D01*
X104943434Y-89384197D01*
X104922610Y-89378981D01*
X104902398Y-89371749D01*
X104882992Y-89362570D01*
X104864579Y-89351534D01*
X104847336Y-89338746D01*
X104831430Y-89324330D01*
X104817014Y-89308424D01*
X104804226Y-89291181D01*
X104793190Y-89272768D01*
X104784011Y-89253362D01*
X104776779Y-89233150D01*
X104771563Y-89212326D01*
X104768413Y-89191091D01*
X104767360Y-89169650D01*
X104767360Y-88732150D01*
X104768413Y-88710709D01*
X104771563Y-88689474D01*
X104776779Y-88668650D01*
X104784011Y-88648438D01*
X104793190Y-88629032D01*
X104804226Y-88610619D01*
X104817014Y-88593376D01*
X104831430Y-88577470D01*
X104847336Y-88563054D01*
X104864579Y-88550266D01*
X104882992Y-88539230D01*
X104902398Y-88530051D01*
X104922610Y-88522819D01*
X104943434Y-88517603D01*
X104964669Y-88514453D01*
X104986110Y-88513400D01*
X105498610Y-88513400D01*
X105520051Y-88514453D01*
G37*
G04 #@! TD.AperFunction*
G04 #@! TA.AperFunction,SMDPad,CuDef*
G36*
X105520051Y-86939453D02*
G01*
X105541286Y-86942603D01*
X105562110Y-86947819D01*
X105582322Y-86955051D01*
X105601728Y-86964230D01*
X105620141Y-86975266D01*
X105637384Y-86988054D01*
X105653290Y-87002470D01*
X105667706Y-87018376D01*
X105680494Y-87035619D01*
X105691530Y-87054032D01*
X105700709Y-87073438D01*
X105707941Y-87093650D01*
X105713157Y-87114474D01*
X105716307Y-87135709D01*
X105717360Y-87157150D01*
X105717360Y-87594650D01*
X105716307Y-87616091D01*
X105713157Y-87637326D01*
X105707941Y-87658150D01*
X105700709Y-87678362D01*
X105691530Y-87697768D01*
X105680494Y-87716181D01*
X105667706Y-87733424D01*
X105653290Y-87749330D01*
X105637384Y-87763746D01*
X105620141Y-87776534D01*
X105601728Y-87787570D01*
X105582322Y-87796749D01*
X105562110Y-87803981D01*
X105541286Y-87809197D01*
X105520051Y-87812347D01*
X105498610Y-87813400D01*
X104986110Y-87813400D01*
X104964669Y-87812347D01*
X104943434Y-87809197D01*
X104922610Y-87803981D01*
X104902398Y-87796749D01*
X104882992Y-87787570D01*
X104864579Y-87776534D01*
X104847336Y-87763746D01*
X104831430Y-87749330D01*
X104817014Y-87733424D01*
X104804226Y-87716181D01*
X104793190Y-87697768D01*
X104784011Y-87678362D01*
X104776779Y-87658150D01*
X104771563Y-87637326D01*
X104768413Y-87616091D01*
X104767360Y-87594650D01*
X104767360Y-87157150D01*
X104768413Y-87135709D01*
X104771563Y-87114474D01*
X104776779Y-87093650D01*
X104784011Y-87073438D01*
X104793190Y-87054032D01*
X104804226Y-87035619D01*
X104817014Y-87018376D01*
X104831430Y-87002470D01*
X104847336Y-86988054D01*
X104864579Y-86975266D01*
X104882992Y-86964230D01*
X104902398Y-86955051D01*
X104922610Y-86947819D01*
X104943434Y-86942603D01*
X104964669Y-86939453D01*
X104986110Y-86938400D01*
X105498610Y-86938400D01*
X105520051Y-86939453D01*
G37*
G04 #@! TD.AperFunction*
D12*
X147386040Y-84043520D03*
X128318170Y-81051490D03*
D13*
X104767360Y-88950900D02*
X105242360Y-88950900D01*
X104206040Y-81236820D02*
X104206040Y-88389580D01*
X104206040Y-88389580D02*
X104767360Y-88950900D01*
X117680740Y-90350340D02*
X116768880Y-90350340D01*
X119804180Y-92961460D02*
X119804180Y-92473780D01*
X116768880Y-90350340D02*
X116644420Y-90225880D01*
X107421680Y-94962980D02*
X117802660Y-94962980D01*
X107360720Y-95023940D02*
X107421680Y-94962980D01*
X117802660Y-94962980D02*
X119804180Y-92961460D01*
X119804180Y-92473780D02*
X117680740Y-90350340D01*
X105242360Y-92905580D02*
X107360720Y-95023940D01*
X116644420Y-90225880D02*
X116644420Y-89248080D01*
X105242360Y-88950900D02*
X105242360Y-92905580D01*
X105242360Y-84152740D02*
X105242360Y-87375900D01*
X116730280Y-81643220D02*
X116730280Y-82118220D01*
X116730280Y-82118220D02*
X116024180Y-82824320D01*
X116024180Y-82824320D02*
X106570780Y-82824320D01*
X106570780Y-82824320D02*
X105242360Y-84152740D01*
X117779080Y-86100920D02*
X116644420Y-87235580D01*
X119377460Y-85000620D02*
X119377460Y-85554820D01*
X118831360Y-86100920D02*
X117779080Y-86100920D01*
X116644420Y-87235580D02*
X116644420Y-87673080D01*
X119377460Y-85554820D02*
X118831360Y-86100920D01*
X122145560Y-82232520D02*
X119377460Y-85000620D01*
X122145560Y-81757520D02*
X122145560Y-82232520D01*
X146197320Y-97665540D02*
X144846040Y-99016820D01*
X146197320Y-89222680D02*
X146197320Y-97665540D01*
X133344920Y-90403680D02*
X133344920Y-89222680D01*
X132430520Y-91318080D02*
X133344920Y-90403680D01*
X138244580Y-99016820D02*
X132430520Y-93202760D01*
X132430520Y-93202760D02*
X132430520Y-91318080D01*
X144846040Y-99016820D02*
X138244580Y-99016820D01*
X132869920Y-87647680D02*
X133344920Y-87647680D01*
X126951240Y-81569560D02*
X126951240Y-82044560D01*
X132427980Y-82824320D02*
X132427980Y-87205740D01*
X127731000Y-82824320D02*
X132427980Y-82824320D01*
X126951240Y-82044560D02*
X127731000Y-82824320D01*
X132427980Y-87205740D02*
X132869920Y-87647680D01*
X146197320Y-83842860D02*
X146197320Y-87647680D01*
X132120140Y-81569560D02*
X142768320Y-81569560D01*
X142768320Y-81569560D02*
X144084040Y-82885280D01*
X144084040Y-82885280D02*
X145239740Y-82885280D01*
X145239740Y-82885280D02*
X146197320Y-83842860D01*
X125616090Y-81051490D02*
X125291080Y-81376500D01*
X129249810Y-81051490D02*
X128318170Y-81051490D01*
X125291080Y-81376500D02*
X125291080Y-81851500D01*
X129988860Y-81790540D02*
X129249810Y-81051490D01*
X130388860Y-81790540D02*
X129988860Y-81790540D01*
X121069051Y-80924929D02*
X120495560Y-81498420D01*
X124891080Y-81851500D02*
X123964509Y-80924929D01*
X123964509Y-80924929D02*
X121069051Y-80924929D01*
X125291080Y-81851500D02*
X124891080Y-81851500D01*
X114971060Y-81376500D02*
X114971060Y-81851500D01*
X115296070Y-81051490D02*
X114971060Y-81376500D01*
X120048630Y-81051490D02*
X115296070Y-81051490D01*
X120495560Y-81498420D02*
X120048630Y-81051490D01*
X120495560Y-81973420D02*
X120495560Y-81498420D01*
X107360720Y-81851500D02*
X106746040Y-81236820D01*
X114971060Y-81851500D02*
X107360720Y-81851500D01*
X147386040Y-81236820D02*
X147386040Y-84043520D01*
X147386040Y-84043520D02*
X147386040Y-84043520D01*
X128318170Y-81051490D02*
X125616090Y-81051490D01*
M02*
